<svg width="72" height="72" viewBox="-32 -32 72 72" xmlns="http://www.w3.org/2000/svg"><circle cx="0.0000" cy="0.0000" r="28.0000" stroke="green" stroke-width="1" fill="none" /><circle cx="0.0000" cy="0.0000" r="11.0000" stroke="green" stroke-width="1" fill="none" /><circle cx="13.0000" cy="0.0000" r="1.0000" stroke="green" stroke-width="1" fill="none" /><circle cx="12.5570" cy="-3.3646" r="1.0000" stroke="green" stroke-width="1" fill="none" /><circle cx="11.2583" cy="-6.5000" r="1.0000" stroke="green" stroke-width="1" fill="none" /><circle cx="9.1924" cy="-9.1924" r="1.0000" stroke="green" stroke-width="1" fill="none" /><circle cx="6.5000" cy="-11.2583" r="1.0000" stroke="green" stroke-width="1" fill="none" /><circle cx="3.3646" cy="-12.5570" r="1.0000" stroke="green" stroke-width="1" fill="none" /><circle cx="0.0000" cy="-13.0000" r="1.0000" stroke="green" stroke-width="1" fill="none" /><circle cx="-3.3646" cy="-12.5570" r="1.0000" stroke="green" stroke-width="1" fill="none" /><circle cx="-6.5000" cy="-11.2583" r="1.0000" stroke="green" stroke-width="1" fill="none" /><circle cx="-9.1924" cy="-9.1924" r="1.0000" stroke="green" stroke-width="1" fill="none" /><circle cx="-11.2583" cy="-6.5000" r="1.0000" stroke="green" stroke-width="1" fill="none" /><circle cx="-12.5570" cy="-3.3646" r="1.0000" stroke="green" stroke-width="1" fill="none" /><circle cx="-13.0000" cy="-0.0000" r="1.0000" stroke="green" stroke-width="1" fill="none" /><circle cx="-12.5570" cy="3.3646" r="1.0000" stroke="green" stroke-width="1" fill="none" /><circle cx="-11.2583" cy="6.5000" r="1.0000" stroke="green" stroke-width="1" fill="none" /><circle cx="-9.1924" cy="9.1924" r="1.0000" stroke="green" stroke-width="1" fill="none" /><circle cx="-6.5000" cy="11.2583" r="1.0000" stroke="green" stroke-width="1" fill="none" /><circle cx="-3.3646" cy="12.5570" r="1.0000" stroke="green" stroke-width="1" fill="none" /><circle cx="-0.0000" cy="13.0000" r="1.0000" stroke="green" stroke-width="1" fill="none" /><circle cx="3.3646" cy="12.5570" r="1.0000" stroke="green" stroke-width="1" fill="none" /><circle cx="6.5000" cy="11.2583" r="1.0000" stroke="green" stroke-width="1" fill="none" /><circle cx="9.1924" cy="9.1924" r="1.0000" stroke="green" stroke-width="1" fill="none" /><circle cx="11.2583" cy="6.5000" r="1.0000" stroke="green" stroke-width="1" fill="none" /><circle cx="12.5570" cy="3.3646" r="1.0000" stroke="green" stroke-width="1" fill="none" /></svg>