<svg width="72" height="72" viewBox="-32 -32 72 72" xmlns="http://www.w3.org/2000/svg"><circle cx="0.0000" cy="0.0000" r="28.0000" stroke="green" stroke-width="1" fill="none" /><path d="M 24.0000 0.0000 L 20.8850 -2.1951 L 23.4755 -4.9899 L 19.9722 -6.4894 L 21.9251 -9.7617 L 18.1865 -10.5000 L 19.4164 -14.1068 L 15.6060 -14.0517 L 16.0591 -17.8355 L 12.3435 -16.9894 L 12.0000 -20.7846 L 8.5415 -19.1845 L 7.4164 -22.8254 L 4.3661 -20.5411 L 2.5087 -23.8685 L 0.0000 -21.0000 L -2.5087 -23.8685 L -4.3661 -20.5411 L -7.4164 -22.8254 L -8.5415 -19.1845 L -12.0000 -20.7846 L -12.3435 -16.9894 L -16.0591 -17.8355 L -15.6060 -14.0517 L -19.4164 -14.1068 L -18.1865 -10.5000 L -21.9251 -9.7617 L -19.9722 -6.4894 L -23.4755 -4.9899 L -20.8850 -2.1951 L -24.0000 -0.0000 L -20.8850 2.1951 L -23.4755 4.9899 L -19.9722 6.4894 L -21.9251 9.7617 L -18.1865 10.5000 L -19.4164 14.1068 L -15.6060 14.0517 L -16.0591 17.8355 L -12.3435 16.9894 L -12.0000 20.7846 L -8.5415 19.1845 L -7.4164 22.8254 L -4.3661 20.5411 L -2.5087 23.8685 L -0.0000 21.0000 L 2.5087 23.8685 L 4.3661 20.5411 L 7.4164 22.8254 L 8.5415 19.1845 L 12.0000 20.7846 L 12.3435 16.9894 L 16.0591 17.8355 L 15.6060 14.0517 L 19.4164 14.1068 L 18.1865 10.5000 L 21.9251 9.7617 L 19.9722 6.4894 L 23.4755 4.9899 L 20.8850 2.1951 L 24.0000 0.0000 Z" stroke="green" stroke-width="1" fill="none" /></svg>