0
SECTION
2
ENTITIES
0
CIRCLE
8
PARAMETRIX
10
0.0000
20
0.0000
40
28.0000
0
LINE
8
PARAMETRIX
10
24.0000
20
0.0000
11
20.8850
21
2.1951
0
LINE
8
PARAMETRIX
10
20.8850
20
2.1951
11
23.4755
21
4.9899
0
LINE
8
PARAMETRIX
10
23.4755
20
4.9899
11
19.9722
21
6.4894
0
LINE
8
PARAMETRIX
10
19.9722
20
6.4894
11
21.9251
21
9.7617
0
LINE
8
PARAMETRIX
10
21.9251
20
9.7617
11
18.1865
21
10.5000
0
LINE
8
PARAMETRIX
10
18.1865
20
10.5000
11
19.4164
21
14.1068
0
LINE
8
PARAMETRIX
10
19.4164
20
14.1068
11
15.6060
21
14.0517
0
LINE
8
PARAMETRIX
10
15.6060
20
14.0517
11
16.0591
21
17.8355
0
LINE
8
PARAMETRIX
10
16.0591
20
17.8355
11
12.3435
21
16.9894
0
LINE
8
PARAMETRIX
10
12.3435
20
16.9894
11
12.0000
21
20.7846
0
LINE
8
PARAMETRIX
10
12.0000
20
20.7846
11
8.5415
21
19.1845
0
LINE
8
PARAMETRIX
10
8.5415
20
19.1845
11
7.4164
21
22.8254
0
LINE
8
PARAMETRIX
10
7.4164
20
22.8254
11
4.3661
21
20.5411
0
LINE
8
PARAMETRIX
10
4.3661
20
20.5411
11
2.5087
21
23.8685
0
LINE
8
PARAMETRIX
10
2.5087
20
23.8685
11
0.0000
21
21.0000
0
LINE
8
PARAMETRIX
10
0.0000
20
21.0000
11
-2.5087
21
23.8685
0
LINE
8
PARAMETRIX
10
-2.5087
20
23.8685
11
-4.3661
21
20.5411
0
LINE
8
PARAMETRIX
10
-4.3661
20
20.5411
11
-7.4164
21
22.8254
0
LINE
8
PARAMETRIX
10
-7.4164
20
22.8254
11
-8.5415
21
19.1845
0
LINE
8
PARAMETRIX
10
-8.5415
20
19.1845
11
-12.0000
21
20.7846
0
LINE
8
PARAMETRIX
10
-12.0000
20
20.7846
11
-12.3435
21
16.9894
0
LINE
8
PARAMETRIX
10
-12.3435
20
16.9894
11
-16.0591
21
17.8355
0
LINE
8
PARAMETRIX
10
-16.0591
20
17.8355
11
-15.6060
21
14.0517
0
LINE
8
PARAMETRIX
10
-15.6060
20
14.0517
11
-19.4164
21
14.1068
0
LINE
8
PARAMETRIX
10
-19.4164
20
14.1068
11
-18.1865
21
10.5000
0
LINE
8
PARAMETRIX
10
-18.1865
20
10.5000
11
-21.9251
21
9.7617
0
LINE
8
PARAMETRIX
10
-21.9251
20
9.7617
11
-19.9722
21
6.4894
0
LINE
8
PARAMETRIX
10
-19.9722
20
6.4894
11
-23.4755
21
4.9899
0
LINE
8
PARAMETRIX
10
-23.4755
20
4.9899
11
-20.8850
21
2.1951
0
LINE
8
PARAMETRIX
10
-20.8850
20
2.1951
11
-24.0000
21
0.0000
0
LINE
8
PARAMETRIX
10
-24.0000
20
0.0000
11
-20.8850
21
-2.1951
0
LINE
8
PARAMETRIX
10
-20.8850
20
-2.1951
11
-23.4755
21
-4.9899
0
LINE
8
PARAMETRIX
10
-23.4755
20
-4.9899
11
-19.9722
21
-6.4894
0
LINE
8
PARAMETRIX
10
-19.9722
20
-6.4894
11
-21.9251
21
-9.7617
0
LINE
8
PARAMETRIX
10
-21.9251
20
-9.7617
11
-18.1865
21
-10.5000
0
LINE
8
PARAMETRIX
10
-18.1865
20
-10.5000
11
-19.4164
21
-14.1068
0
LINE
8
PARAMETRIX
10
-19.4164
20
-14.1068
11
-15.6060
21
-14.0517
0
LINE
8
PARAMETRIX
10
-15.6060
20
-14.0517
11
-16.0591
21
-17.8355
0
LINE
8
PARAMETRIX
10
-16.0591
20
-17.8355
11
-12.3435
21
-16.9894
0
LINE
8
PARAMETRIX
10
-12.3435
20
-16.9894
11
-12.0000
21
-20.7846
0
LINE
8
PARAMETRIX
10
-12.0000
20
-20.7846
11
-8.5415
21
-19.1845
0
LINE
8
PARAMETRIX
10
-8.5415
20
-19.1845
11
-7.4164
21
-22.8254
0
LINE
8
PARAMETRIX
10
-7.4164
20
-22.8254
11
-4.3661
21
-20.5411
0
LINE
8
PARAMETRIX
10
-4.3661
20
-20.5411
11
-2.5087
21
-23.8685
0
LINE
8
PARAMETRIX
10
-2.5087
20
-23.8685
11
-0.0000
21
-21.0000
0
LINE
8
PARAMETRIX
10
-0.0000
20
-21.0000
11
2.5087
21
-23.8685
0
LINE
8
PARAMETRIX
10
2.5087
20
-23.8685
11
4.3661
21
-20.5411
0
LINE
8
PARAMETRIX
10
4.3661
20
-20.5411
11
7.4164
21
-22.8254
0
LINE
8
PARAMETRIX
10
7.4164
20
-22.8254
11
8.5415
21
-19.1845
0
LINE
8
PARAMETRIX
10
8.5415
20
-19.1845
11
12.0000
21
-20.7846
0
LINE
8
PARAMETRIX
10
12.0000
20
-20.7846
11
12.3435
21
-16.9894
0
LINE
8
PARAMETRIX
10
12.3435
20
-16.9894
11
16.0591
21
-17.8355
0
LINE
8
PARAMETRIX
10
16.0591
20
-17.8355
11
15.6060
21
-14.0517
0
LINE
8
PARAMETRIX
10
15.6060
20
-14.0517
11
19.4164
21
-14.1068
0
LINE
8
PARAMETRIX
10
19.4164
20
-14.1068
11
18.1865
21
-10.5000
0
LINE
8
PARAMETRIX
10
18.1865
20
-10.5000
11
21.9251
21
-9.7617
0
LINE
8
PARAMETRIX
10
21.9251
20
-9.7617
11
19.9722
21
-6.4894
0
LINE
8
PARAMETRIX
10
19.9722
20
-6.4894
11
23.4755
21
-4.9899
0
LINE
8
PARAMETRIX
10
23.4755
20
-4.9899
11
20.8850
21
-2.1951
0
LINE
8
PARAMETRIX
10
20.8850
20
-2.1951
11
24.0000
21
-0.0000
0
ENDSEC
0
EOF
