0
SECTION
2
ENTITIES
0
LINE
8
PARAMETRIX
10
44.0000
20
0.0000
11
44.0000
21
80.0000
0
LINE
8
PARAMETRIX
10
44.0000
20
80.0000
11
35.0000
21
300.0000
0
LINE
8
PARAMETRIX
10
35.0000
20
300.0000
11
33.0017
21
299.9183
0
LINE
8
PARAMETRIX
10
33.0017
20
299.9183
11
42.0000
21
79.9591
0
LINE
8
PARAMETRIX
10
42.0000
20
79.9591
11
42.0000
21
0.0000
0
LINE
8
PARAMETRIX
10
42.0000
20
0.0000
11
44.0000
21
0.0000
0
CIRCLE
8
PARAMETRIX
10
0.0000
20
409.0000
40
20.0000
0
CIRCLE
8
PARAMETRIX
10
0.0000
20
409.0000
40
18.0000
0
LINE
8
PARAMETRIX
10
2.5000
20
447.3417
11
2.5000
21
441.0000
0
LINE
8
PARAMETRIX
10
2.5000
20
441.0000
11
34.2132
21
441.0000
0
ARC
8
PARAMETRIX
10
34.2132
20
436.0000
40
5.0000
50
45.0000
51
90.0000
0
LINE
8
PARAMETRIX
10
37.7487
20
439.5355
11
70.7107
21
406.5736
0
LINE
8
PARAMETRIX
10
70.7107
20
406.5736
11
67.1751
21
403.0381
0
LINE
8
PARAMETRIX
10
67.1751
20
403.0381
11
34.2132
21
436.0000
0
LINE
8
PARAMETRIX
10
34.2132
20
436.0000
11
-34.2132
21
436.0000
0
LINE
8
PARAMETRIX
10
-34.2132
20
436.0000
11
-67.1751
21
403.0381
0
LINE
8
PARAMETRIX
10
-67.1751
20
403.0381
11
-70.7107
21
406.5736
0
LINE
8
PARAMETRIX
10
-70.7107
20
406.5736
11
-37.7487
21
439.5355
0
ARC
8
PARAMETRIX
10
-34.2132
20
436.0000
40
5.0000
50
90.0000
51
135.0000
0
LINE
8
PARAMETRIX
10
-34.2132
20
441.0000
11
-2.5000
21
441.0000
0
LINE
8
PARAMETRIX
10
-2.5000
20
441.0000
11
-2.5000
21
447.3417
0
ARC
8
PARAMETRIX
10
0.0000
20
449.0000
40
3.0000
50
326.4427
51
213.5573
0
CIRCLE
8
PARAMETRIX
10
0.0000
20
449.0000
40
1.0000
0
CIRCLE
8
PARAMETRIX
10
0.0000
20
469.0000
40
10.0000
0
CIRCLE
8
PARAMETRIX
10
0.0000
20
469.0000
40
5.0000
0
LINE
8
PARAMETRIX
10
-100.0000
20
479.0000
11
-92.0000
21
479.0000
0
LINE
8
PARAMETRIX
10
-92.0000
20
479.0000
11
-92.0000
21
489.0000
0
LINE
8
PARAMETRIX
10
-92.0000
20
489.0000
11
-100.0000
21
489.0000
0
LINE
8
PARAMETRIX
10
-100.0000
20
489.0000
11
-100.0000
21
479.0000
0
LINE
8
PARAMETRIX
10
-97.0000
20
482.0000
11
-95.0000
21
482.0000
0
LINE
8
PARAMETRIX
10
-95.0000
20
482.0000
11
-95.0000
21
486.0000
0
LINE
8
PARAMETRIX
10
-95.0000
20
486.0000
11
-97.0000
21
486.0000
0
LINE
8
PARAMETRIX
10
-97.0000
20
486.0000
11
-97.0000
21
482.0000
0
LINE
8
PARAMETRIX
10
-58.0000
20
479.0000
11
-50.0000
21
479.0000
0
LINE
8
PARAMETRIX
10
-50.0000
20
479.0000
11
-50.0000
21
489.0000
0
LINE
8
PARAMETRIX
10
-50.0000
20
489.0000
11
-58.0000
21
489.0000
0
LINE
8
PARAMETRIX
10
-58.0000
20
489.0000
11
-58.0000
21
479.0000
0
LINE
8
PARAMETRIX
10
-55.0000
20
482.0000
11
-53.0000
21
482.0000
0
LINE
8
PARAMETRIX
10
-53.0000
20
482.0000
11
-53.0000
21
486.0000
0
LINE
8
PARAMETRIX
10
-53.0000
20
486.0000
11
-55.0000
21
486.0000
0
LINE
8
PARAMETRIX
10
-55.0000
20
486.0000
11
-55.0000
21
482.0000
0
LINE
8
PARAMETRIX
10
50.0000
20
479.0000
11
58.0000
21
479.0000
0
LINE
8
PARAMETRIX
10
58.0000
20
479.0000
11
58.0000
21
489.0000
0
LINE
8
PARAMETRIX
10
58.0000
20
489.0000
11
50.0000
21
489.0000
0
LINE
8
PARAMETRIX
10
50.0000
20
489.0000
11
50.0000
21
479.0000
0
LINE
8
PARAMETRIX
10
53.0000
20
482.0000
11
55.0000
21
482.0000
0
LINE
8
PARAMETRIX
10
55.0000
20
482.0000
11
55.0000
21
486.0000
0
LINE
8
PARAMETRIX
10
55.0000
20
486.0000
11
53.0000
21
486.0000
0
LINE
8
PARAMETRIX
10
53.0000
20
486.0000
11
53.0000
21
482.0000
0
LINE
8
PARAMETRIX
10
92.0000
20
479.0000
11
100.0000
21
479.0000
0
LINE
8
PARAMETRIX
10
100.0000
20
479.0000
11
100.0000
21
489.0000
0
LINE
8
PARAMETRIX
10
100.0000
20
489.0000
11
92.0000
21
489.0000
0
LINE
8
PARAMETRIX
10
92.0000
20
489.0000
11
92.0000
21
479.0000
0
LINE
8
PARAMETRIX
10
95.0000
20
482.0000
11
97.0000
21
482.0000
0
LINE
8
PARAMETRIX
10
97.0000
20
482.0000
11
97.0000
21
486.0000
0
LINE
8
PARAMETRIX
10
97.0000
20
486.0000
11
95.0000
21
486.0000
0
LINE
8
PARAMETRIX
10
95.0000
20
486.0000
11
95.0000
21
482.0000
0
ENDSEC
0
EOF
