<svg width="384" height="559" viewBox="-189 -28 384 559" xmlns="http://www.w3.org/2000/svg"><path d="M 44.0000 499.0000 L 44.0000 419.0000 L 35.0000 199.0000 L 33.0017 199.0817 L 42.0000 419.0409 L 42.0000 499.0000 L 44.0000 499.0000 Z" stroke="green" stroke-width="1" fill="none" /><path d="M 40.0000 200.0000 L 40.0000 190.0000 L 25.0000 70.0000 L 23.0154 70.2481 L 38.0000 190.1245 L 38.0000 200.0000 L 40.0000 200.0000 Z" stroke="green" stroke-width="1" fill="none" /><path d="M -170.0000 10.0000 L -162.0000 10.0000 L -162.0000 0.0000 L -170.0000 0.0000 L -170.0000 10.0000 Z" stroke="green" stroke-width="1" fill="none" /><path d="M -167.0000 7.0000 L -165.0000 7.0000 L -165.0000 3.0000 L -167.0000 3.0000 L -167.0000 7.0000 Z" stroke="green" stroke-width="1" fill="none" /><path d="M 162.0000 10.0000 L 170.0000 10.0000 L 170.0000 0.0000 L 162.0000 0.0000 L 162.0000 10.0000 Z" stroke="green" stroke-width="1" fill="none" /><path d="M 165.0000 7.0000 L 167.0000 7.0000 L 167.0000 3.0000 L 165.0000 3.0000 L 165.0000 7.0000 Z" stroke="green" stroke-width="1" fill="none" /><path d="M -151.0000 10.0000 L -143.0000 10.0000 L -143.0000 0.0000 L -151.0000 0.0000 L -151.0000 10.0000 Z" stroke="green" stroke-width="1" fill="none" /><path d="M -148.0000 7.0000 L -146.0000 7.0000 L -146.0000 3.0000 L -148.0000 3.0000 L -148.0000 7.0000 Z" stroke="green" stroke-width="1" fill="none" /><path d="M -129.0000 10.0000 L -121.0000 10.0000 L -121.0000 0.0000 L -129.0000 0.0000 L -129.0000 10.0000 Z" stroke="green" stroke-width="1" fill="none" /><path d="M -126.0000 7.0000 L -124.0000 7.0000 L -124.0000 3.0000 L -126.0000 3.0000 L -126.0000 7.0000 Z" stroke="green" stroke-width="1" fill="none" /><path d="M -50.0000 10.0000 L -42.0000 10.0000 L -42.0000 0.0000 L -50.0000 0.0000 L -50.0000 10.0000 Z" stroke="green" stroke-width="1" fill="none" /><path d="M -47.0000 7.0000 L -45.0000 7.0000 L -45.0000 3.0000 L -47.0000 3.0000 L -47.0000 7.0000 Z" stroke="green" stroke-width="1" fill="none" /><path d="M -28.0000 10.0000 L -20.0000 10.0000 L -20.0000 0.0000 L -28.0000 0.0000 L -28.0000 10.0000 Z" stroke="green" stroke-width="1" fill="none" /><path d="M -25.0000 7.0000 L -23.0000 7.0000 L -23.0000 3.0000 L -25.0000 3.0000 L -25.0000 7.0000 Z" stroke="green" stroke-width="1" fill="none" /><path d="M 20.0000 10.0000 L 28.0000 10.0000 L 28.0000 0.0000 L 20.0000 0.0000 L 20.0000 10.0000 Z" stroke="green" stroke-width="1" fill="none" /><path d="M 23.0000 7.0000 L 25.0000 7.0000 L 25.0000 3.0000 L 23.0000 3.0000 L 23.0000 7.0000 Z" stroke="green" stroke-width="1" fill="none" /><path d="M 42.0000 10.0000 L 50.0000 10.0000 L 50.0000 0.0000 L 42.0000 0.0000 L 42.0000 10.0000 Z" stroke="green" stroke-width="1" fill="none" /><path d="M 45.0000 7.0000 L 47.0000 7.0000 L 47.0000 3.0000 L 45.0000 3.0000 L 45.0000 7.0000 Z" stroke="green" stroke-width="1" fill="none" /><path d="M 121.0000 10.0000 L 129.0000 10.0000 L 129.0000 0.0000 L 121.0000 0.0000 L 121.0000 10.0000 Z" stroke="green" stroke-width="1" fill="none" /><path d="M 124.0000 7.0000 L 126.0000 7.0000 L 126.0000 3.0000 L 124.0000 3.0000 L 124.0000 7.0000 Z" stroke="green" stroke-width="1" fill="none" /><path d="M 143.0000 10.0000 L 151.0000 10.0000 L 151.0000 0.0000 L 143.0000 0.0000 L 143.0000 10.0000 Z" stroke="green" stroke-width="1" fill="none" /><path d="M 146.0000 7.0000 L 148.0000 7.0000 L 148.0000 3.0000 L 146.0000 3.0000 L 146.0000 7.0000 Z" stroke="green" stroke-width="1" fill="none" /></svg>