0
SECTION
2
ENTITIES
0
LINE
8
PARAMETRIX
10
44.0000
20
0.0000
11
44.0000
21
80.0000
0
LINE
8
PARAMETRIX
10
44.0000
20
80.0000
11
35.0000
21
300.0000
0
LINE
8
PARAMETRIX
10
35.0000
20
300.0000
11
33.0017
21
299.9183
0
LINE
8
PARAMETRIX
10
33.0017
20
299.9183
11
42.0000
21
79.9591
0
LINE
8
PARAMETRIX
10
42.0000
20
79.9591
11
42.0000
21
0.0000
0
LINE
8
PARAMETRIX
10
42.0000
20
0.0000
11
44.0000
21
0.0000
0
LINE
8
PARAMETRIX
10
40.0000
20
299.0000
11
40.0000
21
309.0000
0
LINE
8
PARAMETRIX
10
40.0000
20
309.0000
11
25.0000
21
429.0000
0
LINE
8
PARAMETRIX
10
25.0000
20
429.0000
11
23.0154
21
428.7519
0
LINE
8
PARAMETRIX
10
23.0154
20
428.7519
11
38.0000
21
308.8755
0
LINE
8
PARAMETRIX
10
38.0000
20
308.8755
11
38.0000
21
299.0000
0
LINE
8
PARAMETRIX
10
38.0000
20
299.0000
11
40.0000
21
299.0000
0
LINE
8
PARAMETRIX
10
-170.0000
20
489.0000
11
-162.0000
21
489.0000
0
LINE
8
PARAMETRIX
10
-162.0000
20
489.0000
11
-162.0000
21
499.0000
0
LINE
8
PARAMETRIX
10
-162.0000
20
499.0000
11
-170.0000
21
499.0000
0
LINE
8
PARAMETRIX
10
-170.0000
20
499.0000
11
-170.0000
21
489.0000
0
LINE
8
PARAMETRIX
10
-167.0000
20
492.0000
11
-165.0000
21
492.0000
0
LINE
8
PARAMETRIX
10
-165.0000
20
492.0000
11
-165.0000
21
496.0000
0
LINE
8
PARAMETRIX
10
-165.0000
20
496.0000
11
-167.0000
21
496.0000
0
LINE
8
PARAMETRIX
10
-167.0000
20
496.0000
11
-167.0000
21
492.0000
0
LINE
8
PARAMETRIX
10
162.0000
20
489.0000
11
170.0000
21
489.0000
0
LINE
8
PARAMETRIX
10
170.0000
20
489.0000
11
170.0000
21
499.0000
0
LINE
8
PARAMETRIX
10
170.0000
20
499.0000
11
162.0000
21
499.0000
0
LINE
8
PARAMETRIX
10
162.0000
20
499.0000
11
162.0000
21
489.0000
0
LINE
8
PARAMETRIX
10
165.0000
20
492.0000
11
167.0000
21
492.0000
0
LINE
8
PARAMETRIX
10
167.0000
20
492.0000
11
167.0000
21
496.0000
0
LINE
8
PARAMETRIX
10
167.0000
20
496.0000
11
165.0000
21
496.0000
0
LINE
8
PARAMETRIX
10
165.0000
20
496.0000
11
165.0000
21
492.0000
0
LINE
8
PARAMETRIX
10
-151.0000
20
489.0000
11
-143.0000
21
489.0000
0
LINE
8
PARAMETRIX
10
-143.0000
20
489.0000
11
-143.0000
21
499.0000
0
LINE
8
PARAMETRIX
10
-143.0000
20
499.0000
11
-151.0000
21
499.0000
0
LINE
8
PARAMETRIX
10
-151.0000
20
499.0000
11
-151.0000
21
489.0000
0
LINE
8
PARAMETRIX
10
-148.0000
20
492.0000
11
-146.0000
21
492.0000
0
LINE
8
PARAMETRIX
10
-146.0000
20
492.0000
11
-146.0000
21
496.0000
0
LINE
8
PARAMETRIX
10
-146.0000
20
496.0000
11
-148.0000
21
496.0000
0
LINE
8
PARAMETRIX
10
-148.0000
20
496.0000
11
-148.0000
21
492.0000
0
LINE
8
PARAMETRIX
10
-129.0000
20
489.0000
11
-121.0000
21
489.0000
0
LINE
8
PARAMETRIX
10
-121.0000
20
489.0000
11
-121.0000
21
499.0000
0
LINE
8
PARAMETRIX
10
-121.0000
20
499.0000
11
-129.0000
21
499.0000
0
LINE
8
PARAMETRIX
10
-129.0000
20
499.0000
11
-129.0000
21
489.0000
0
LINE
8
PARAMETRIX
10
-126.0000
20
492.0000
11
-124.0000
21
492.0000
0
LINE
8
PARAMETRIX
10
-124.0000
20
492.0000
11
-124.0000
21
496.0000
0
LINE
8
PARAMETRIX
10
-124.0000
20
496.0000
11
-126.0000
21
496.0000
0
LINE
8
PARAMETRIX
10
-126.0000
20
496.0000
11
-126.0000
21
492.0000
0
LINE
8
PARAMETRIX
10
-50.0000
20
489.0000
11
-42.0000
21
489.0000
0
LINE
8
PARAMETRIX
10
-42.0000
20
489.0000
11
-42.0000
21
499.0000
0
LINE
8
PARAMETRIX
10
-42.0000
20
499.0000
11
-50.0000
21
499.0000
0
LINE
8
PARAMETRIX
10
-50.0000
20
499.0000
11
-50.0000
21
489.0000
0
LINE
8
PARAMETRIX
10
-47.0000
20
492.0000
11
-45.0000
21
492.0000
0
LINE
8
PARAMETRIX
10
-45.0000
20
492.0000
11
-45.0000
21
496.0000
0
LINE
8
PARAMETRIX
10
-45.0000
20
496.0000
11
-47.0000
21
496.0000
0
LINE
8
PARAMETRIX
10
-47.0000
20
496.0000
11
-47.0000
21
492.0000
0
LINE
8
PARAMETRIX
10
-28.0000
20
489.0000
11
-20.0000
21
489.0000
0
LINE
8
PARAMETRIX
10
-20.0000
20
489.0000
11
-20.0000
21
499.0000
0
LINE
8
PARAMETRIX
10
-20.0000
20
499.0000
11
-28.0000
21
499.0000
0
LINE
8
PARAMETRIX
10
-28.0000
20
499.0000
11
-28.0000
21
489.0000
0
LINE
8
PARAMETRIX
10
-25.0000
20
492.0000
11
-23.0000
21
492.0000
0
LINE
8
PARAMETRIX
10
-23.0000
20
492.0000
11
-23.0000
21
496.0000
0
LINE
8
PARAMETRIX
10
-23.0000
20
496.0000
11
-25.0000
21
496.0000
0
LINE
8
PARAMETRIX
10
-25.0000
20
496.0000
11
-25.0000
21
492.0000
0
LINE
8
PARAMETRIX
10
20.0000
20
489.0000
11
28.0000
21
489.0000
0
LINE
8
PARAMETRIX
10
28.0000
20
489.0000
11
28.0000
21
499.0000
0
LINE
8
PARAMETRIX
10
28.0000
20
499.0000
11
20.0000
21
499.0000
0
LINE
8
PARAMETRIX
10
20.0000
20
499.0000
11
20.0000
21
489.0000
0
LINE
8
PARAMETRIX
10
23.0000
20
492.0000
11
25.0000
21
492.0000
0
LINE
8
PARAMETRIX
10
25.0000
20
492.0000
11
25.0000
21
496.0000
0
LINE
8
PARAMETRIX
10
25.0000
20
496.0000
11
23.0000
21
496.0000
0
LINE
8
PARAMETRIX
10
23.0000
20
496.0000
11
23.0000
21
492.0000
0
LINE
8
PARAMETRIX
10
42.0000
20
489.0000
11
50.0000
21
489.0000
0
LINE
8
PARAMETRIX
10
50.0000
20
489.0000
11
50.0000
21
499.0000
0
LINE
8
PARAMETRIX
10
50.0000
20
499.0000
11
42.0000
21
499.0000
0
LINE
8
PARAMETRIX
10
42.0000
20
499.0000
11
42.0000
21
489.0000
0
LINE
8
PARAMETRIX
10
45.0000
20
492.0000
11
47.0000
21
492.0000
0
LINE
8
PARAMETRIX
10
47.0000
20
492.0000
11
47.0000
21
496.0000
0
LINE
8
PARAMETRIX
10
47.0000
20
496.0000
11
45.0000
21
496.0000
0
LINE
8
PARAMETRIX
10
45.0000
20
496.0000
11
45.0000
21
492.0000
0
LINE
8
PARAMETRIX
10
121.0000
20
489.0000
11
129.0000
21
489.0000
0
LINE
8
PARAMETRIX
10
129.0000
20
489.0000
11
129.0000
21
499.0000
0
LINE
8
PARAMETRIX
10
129.0000
20
499.0000
11
121.0000
21
499.0000
0
LINE
8
PARAMETRIX
10
121.0000
20
499.0000
11
121.0000
21
489.0000
0
LINE
8
PARAMETRIX
10
124.0000
20
492.0000
11
126.0000
21
492.0000
0
LINE
8
PARAMETRIX
10
126.0000
20
492.0000
11
126.0000
21
496.0000
0
LINE
8
PARAMETRIX
10
126.0000
20
496.0000
11
124.0000
21
496.0000
0
LINE
8
PARAMETRIX
10
124.0000
20
496.0000
11
124.0000
21
492.0000
0
LINE
8
PARAMETRIX
10
143.0000
20
489.0000
11
151.0000
21
489.0000
0
LINE
8
PARAMETRIX
10
151.0000
20
489.0000
11
151.0000
21
499.0000
0
LINE
8
PARAMETRIX
10
151.0000
20
499.0000
11
143.0000
21
499.0000
0
LINE
8
PARAMETRIX
10
143.0000
20
499.0000
11
143.0000
21
489.0000
0
LINE
8
PARAMETRIX
10
146.0000
20
492.0000
11
148.0000
21
492.0000
0
LINE
8
PARAMETRIX
10
148.0000
20
492.0000
11
148.0000
21
496.0000
0
LINE
8
PARAMETRIX
10
148.0000
20
496.0000
11
146.0000
21
496.0000
0
LINE
8
PARAMETRIX
10
146.0000
20
496.0000
11
146.0000
21
492.0000
0
ENDSEC
0
EOF
