<svg width="230" height="548" viewBox="-111 -27 230 548" xmlns="http://www.w3.org/2000/svg"><path d="M 44.0000 489.0000 L 44.0000 409.0000 L 35.0000 189.0000 L 33.0017 189.0817 L 42.0000 409.0409 L 42.0000 489.0000 L 44.0000 489.0000 Z" stroke="green" stroke-width="1" fill="none" /><circle cx="0.0000" cy="80.0000" r="20.0000" stroke="green" stroke-width="1" fill="none" /><circle cx="0.0000" cy="80.0000" r="18.0000" stroke="green" stroke-width="1" fill="none" /><path d="M 2.5000 41.6583 L 2.5000 48.0000 L 34.2132 48.0000 A 5.0000 5.0000 0 0 1 37.7487 49.4645 L 70.7107 82.4264 L 67.1751 85.9619 L 34.2132 53.0000 L -34.2132 53.0000 L -67.1751 85.9619 L -70.7107 82.4264 L -37.7487 49.4645 A 5.0000 5.0000 0 0 1 -34.2132 48.0000 L -2.5000 48.0000 L -2.5000 41.6583 A 3.0000 3.0000 0 1 1 2.5000 41.6583 Z" stroke="green" stroke-width="1" fill="none" /><circle cx="0.0000" cy="40.0000" r="1.0000" stroke="green" stroke-width="1" fill="none" /><circle cx="0.0000" cy="20.0000" r="10.0000" stroke="green" stroke-width="1" fill="none" /><circle cx="0.0000" cy="20.0000" r="5.0000" stroke="green" stroke-width="1" fill="none" /><path d="M -100.0000 10.0000 L -92.0000 10.0000 L -92.0000 0.0000 L -100.0000 0.0000 L -100.0000 10.0000 Z" stroke="green" stroke-width="1" fill="none" /><path d="M -97.0000 7.0000 L -95.0000 7.0000 L -95.0000 3.0000 L -97.0000 3.0000 L -97.0000 7.0000 Z" stroke="green" stroke-width="1" fill="none" /><path d="M -58.0000 10.0000 L -50.0000 10.0000 L -50.0000 0.0000 L -58.0000 0.0000 L -58.0000 10.0000 Z" stroke="green" stroke-width="1" fill="none" /><path d="M -55.0000 7.0000 L -53.0000 7.0000 L -53.0000 3.0000 L -55.0000 3.0000 L -55.0000 7.0000 Z" stroke="green" stroke-width="1" fill="none" /><path d="M 50.0000 10.0000 L 58.0000 10.0000 L 58.0000 0.0000 L 50.0000 0.0000 L 50.0000 10.0000 Z" stroke="green" stroke-width="1" fill="none" /><path d="M 53.0000 7.0000 L 55.0000 7.0000 L 55.0000 3.0000 L 53.0000 3.0000 L 53.0000 7.0000 Z" stroke="green" stroke-width="1" fill="none" /><path d="M 92.0000 10.0000 L 100.0000 10.0000 L 100.0000 0.0000 L 92.0000 0.0000 L 92.0000 10.0000 Z" stroke="green" stroke-width="1" fill="none" /><path d="M 95.0000 7.0000 L 97.0000 7.0000 L 97.0000 3.0000 L 95.0000 3.0000 L 95.0000 7.0000 Z" stroke="green" stroke-width="1" fill="none" /></svg>