<svg width="65" height="65" viewBox="-28 -28 65 65" xmlns="http://www.w3.org/2000/svg"><circle cx="0.0000" cy="0.0000" r="25.0000" stroke="green" stroke-width="1" fill="none" /><circle cx="0.0000" cy="0.0000" r="12.0000" stroke="green" stroke-width="1" fill="none" /><circle cx="12.2500" cy="0.0000" r="0.1250" stroke="green" stroke-width="1" fill="none" /><circle cx="11.8326" cy="-3.1705" r="0.1250" stroke="green" stroke-width="1" fill="none" /><circle cx="10.6088" cy="-6.1250" r="0.1250" stroke="green" stroke-width="1" fill="none" /><circle cx="8.6621" cy="-8.6621" r="0.1250" stroke="green" stroke-width="1" fill="none" /><circle cx="6.1250" cy="-10.6088" r="0.1250" stroke="green" stroke-width="1" fill="none" /><circle cx="3.1705" cy="-11.8326" r="0.1250" stroke="green" stroke-width="1" fill="none" /><circle cx="0.0000" cy="-12.2500" r="0.1250" stroke="green" stroke-width="1" fill="none" /><circle cx="-3.1705" cy="-11.8326" r="0.1250" stroke="green" stroke-width="1" fill="none" /><circle cx="-6.1250" cy="-10.6088" r="0.1250" stroke="green" stroke-width="1" fill="none" /><circle cx="-8.6621" cy="-8.6621" r="0.1250" stroke="green" stroke-width="1" fill="none" /><circle cx="-10.6088" cy="-6.1250" r="0.1250" stroke="green" stroke-width="1" fill="none" /><circle cx="-11.8326" cy="-3.1705" r="0.1250" stroke="green" stroke-width="1" fill="none" /><circle cx="-12.2500" cy="-0.0000" r="0.1250" stroke="green" stroke-width="1" fill="none" /><circle cx="-11.8326" cy="3.1705" r="0.1250" stroke="green" stroke-width="1" fill="none" /><circle cx="-10.6088" cy="6.1250" r="0.1250" stroke="green" stroke-width="1" fill="none" /><circle cx="-8.6621" cy="8.6621" r="0.1250" stroke="green" stroke-width="1" fill="none" /><circle cx="-6.1250" cy="10.6088" r="0.1250" stroke="green" stroke-width="1" fill="none" /><circle cx="-3.1705" cy="11.8326" r="0.1250" stroke="green" stroke-width="1" fill="none" /><circle cx="-0.0000" cy="12.2500" r="0.1250" stroke="green" stroke-width="1" fill="none" /><circle cx="3.1705" cy="11.8326" r="0.1250" stroke="green" stroke-width="1" fill="none" /><circle cx="6.1250" cy="10.6088" r="0.1250" stroke="green" stroke-width="1" fill="none" /><circle cx="8.6621" cy="8.6621" r="0.1250" stroke="green" stroke-width="1" fill="none" /><circle cx="10.6088" cy="6.1250" r="0.1250" stroke="green" stroke-width="1" fill="none" /><circle cx="11.8326" cy="3.1705" r="0.1250" stroke="green" stroke-width="1" fill="none" /></svg>