0
SECTION
2
ENTITIES
0
LINE
8
PARAMETRIX
10
25.6324
20
-2.4754
11
27.5537
21
-1.9218
0
ARC
8
PARAMETRIX
10
27.0000
20
0.0000
40
2.0000
50
286.0734
51
73.9266
0
LINE
8
PARAMETRIX
10
27.5537
20
1.9218
11
25.6324
21
2.4754
0
ARC
8
PARAMETRIX
10
26.4630
20
5.3581
40
3.0000
50
191.4463
51
253.9266
0
ARC
8
PARAMETRIX
10
-0.0000
20
-0.0000
40
24.0000
50
11.4463
51
48.5537
0
ARC
8
PARAMETRIX
10
17.8718
20
20.2386
40
3.0000
50
166.0734
51
228.5537
0
LINE
8
PARAMETRIX
10
14.9600
20
20.9606
11
15.4412
21
22.9013
0
ARC
8
PARAMETRIX
10
13.5000
20
23.3827
40
2.0000
50
346.0734
51
133.9266
0
LINE
8
PARAMETRIX
10
12.1125
20
24.8231
11
10.6724
21
23.4360
0
ARC
8
PARAMETRIX
10
8.5912
20
25.5967
40
3.0000
50
251.4463
51
313.9266
0
ARC
8
PARAMETRIX
10
-0.0000
20
-0.0000
40
24.0000
50
71.4463
51
108.5537
0
ARC
8
PARAMETRIX
10
-8.5912
20
25.5967
40
3.0000
50
226.0734
51
288.5537
0
LINE
8
PARAMETRIX
10
-10.6724
20
23.4360
11
-12.1125
21
24.8231
0
ARC
8
PARAMETRIX
10
-13.5000
20
23.3827
40
2.0000
50
46.0734
51
193.9266
0
LINE
8
PARAMETRIX
10
-15.4412
20
22.9013
11
-14.9600
21
20.9606
0
ARC
8
PARAMETRIX
10
-17.8718
20
20.2386
40
3.0000
50
311.4463
51
13.9266
0
ARC
8
PARAMETRIX
10
0.0000
20
-0.0000
40
24.0000
50
131.4463
51
168.5537
0
ARC
8
PARAMETRIX
10
-26.4630
20
5.3581
40
3.0000
50
286.0734
51
348.5537
0
LINE
8
PARAMETRIX
10
-25.6324
20
2.4754
11
-27.5537
21
1.9218
0
ARC
8
PARAMETRIX
10
-27.0000
20
0.0000
40
2.0000
50
106.0734
51
253.9266
0
LINE
8
PARAMETRIX
10
-27.5537
20
-1.9218
11
-25.6324
21
-2.4754
0
ARC
8
PARAMETRIX
10
-26.4630
20
-5.3581
40
3.0000
50
11.4463
51
73.9266
0
ARC
8
PARAMETRIX
10
0.0000
20
0.0000
40
24.0000
50
191.4463
51
228.5537
0
ARC
8
PARAMETRIX
10
-17.8718
20
-20.2386
40
3.0000
50
346.0734
51
48.5537
0
LINE
8
PARAMETRIX
10
-14.9600
20
-20.9606
11
-15.4412
21
-22.9013
0
ARC
8
PARAMETRIX
10
-13.5000
20
-23.3827
40
2.0000
50
166.0734
51
313.9266
0
LINE
8
PARAMETRIX
10
-12.1125
20
-24.8231
11
-10.6724
21
-23.4360
0
ARC
8
PARAMETRIX
10
-8.5912
20
-25.5967
40
3.0000
50
71.4463
51
133.9266
0
ARC
8
PARAMETRIX
10
-0.0000
20
0.0000
40
24.0000
50
251.4463
51
288.5537
0
ARC
8
PARAMETRIX
10
8.5912
20
-25.5967
40
3.0000
50
46.0734
51
108.5537
0
LINE
8
PARAMETRIX
10
10.6724
20
-23.4360
11
12.1125
21
-24.8231
0
ARC
8
PARAMETRIX
10
13.5000
20
-23.3827
40
2.0000
50
226.0734
51
13.9266
0
LINE
8
PARAMETRIX
10
15.4412
20
-22.9013
11
14.9600
21
-20.9606
0
ARC
8
PARAMETRIX
10
17.8718
20
-20.2386
40
3.0000
50
131.4463
51
193.9266
0
ARC
8
PARAMETRIX
10
0.0000
20
0.0000
40
24.0000
50
311.4463
51
348.5537
0
ARC
8
PARAMETRIX
10
26.4630
20
-5.3581
40
3.0000
50
106.0734
51
168.5537
0
CIRCLE
8
PARAMETRIX
10
27.0000
20
0.0000
40
1.0000
0
CIRCLE
8
PARAMETRIX
10
13.5000
20
23.3827
40
1.0000
0
CIRCLE
8
PARAMETRIX
10
-13.5000
20
23.3827
40
1.0000
0
CIRCLE
8
PARAMETRIX
10
-27.0000
20
0.0000
40
1.0000
0
CIRCLE
8
PARAMETRIX
10
-13.5000
20
-23.3827
40
1.0000
0
CIRCLE
8
PARAMETRIX
10
13.5000
20
-23.3827
40
1.0000
0
ARC
8
PARAMETRIX
10
0.0000
20
0.0000
40
22.0000
50
253.1504
51
357.2706
0
ARC
8
PARAMETRIX
10
-6.0871
20
-20.0984
40
1.0000
50
160.4210
51
253.1504
0
LINE
8
PARAMETRIX
10
-7.0292
20
-19.7633
11
-6.7021
21
-18.8436
0
ARC
8
PARAMETRIX
10
-5.7599
20
-19.1787
40
1.0000
50
6.4210
51
160.4210
0
LINE
8
PARAMETRIX
10
-4.7662
20
-19.0669
11
-4.6544
21
-20.0606
0
ARC
8
PARAMETRIX
10
-3.3625
20
-19.9152
40
1.3000
50
186.4210
51
6.4210
0
LINE
8
PARAMETRIX
10
-2.0707
20
-19.7698
11
-2.1825
21
-18.7761
0
ARC
8
PARAMETRIX
10
-1.6857
20
-18.7202
40
0.5000
50
6.4210
51
186.4210
0
LINE
8
PARAMETRIX
10
-1.1888
20
-18.6643
11
-1.0770
21
-19.6580
0
ARC
8
PARAMETRIX
10
0.2149
20
-19.5126
40
1.3000
50
186.4210
51
6.4210
0
LINE
8
PARAMETRIX
10
1.5067
20
-19.3672
11
1.3949
21
-18.3735
0
ARC
8
PARAMETRIX
10
1.8918
20
-18.3176
40
0.5000
50
6.4210
51
186.4210
0
LINE
8
PARAMETRIX
10
2.3886
20
-18.2617
11
2.5005
21
-19.2554
0
ARC
8
PARAMETRIX
10
3.7923
20
-19.1100
40
1.3000
50
186.4210
51
6.4210
0
LINE
8
PARAMETRIX
10
5.0841
20
-18.9646
11
4.7822
21
-16.2816
0
ARC
8
PARAMETRIX
10
5.2791
20
-16.2257
40
0.5000
50
6.4210
51
186.4210
0
LINE
8
PARAMETRIX
10
5.7759
20
-16.1697
11
6.5709
21
-16.0803
0
ARC
8
PARAMETRIX
10
5.2791
20
-16.2257
40
1.3000
50
6.4210
51
186.4210
0
LINE
8
PARAMETRIX
10
3.9872
20
-16.3710
11
4.2892
21
-19.0541
0
ARC
8
PARAMETRIX
10
3.7923
20
-19.1100
40
0.5000
50
186.4210
51
6.4210
0
LINE
8
PARAMETRIX
10
3.2954
20
-19.1659
11
3.1836
21
-18.1722
0
ARC
8
PARAMETRIX
10
1.8918
20
-18.3176
40
1.3000
50
6.4210
51
186.4210
0
LINE
8
PARAMETRIX
10
0.5999
20
-18.4630
11
0.7117
21
-19.4567
0
ARC
8
PARAMETRIX
10
0.2149
20
-19.5126
40
0.5000
50
186.4210
51
6.4210
0
LINE
8
PARAMETRIX
10
-0.2820
20
-19.5685
11
-0.3938
21
-18.5748
0
ARC
8
PARAMETRIX
10
-1.6857
20
-18.7202
40
1.3000
50
6.4210
51
186.4210
0
LINE
8
PARAMETRIX
10
-2.9775
20
-18.8656
11
-2.8657
21
-19.8593
0
ARC
8
PARAMETRIX
10
-3.3625
20
-19.9152
40
0.5000
50
186.4210
51
6.4210
0
LINE
8
PARAMETRIX
10
-3.8594
20
-19.9711
11
-3.9712
21
-18.9774
0
ARC
8
PARAMETRIX
10
-5.7599
20
-19.1787
40
1.8000
50
6.4210
51
69.3877
0
ARC
8
PARAMETRIX
10
-4.7742
20
-16.5580
40
1.0000
50
245.2105
51
249.3877
0
LINE
8
PARAMETRIX
10
-5.1935
20
-17.4658
11
-9.9293
21
-15.2786
0
ARC
8
PARAMETRIX
10
-9.5100
20
-14.3708
40
1.0000
50
241.0333
51
245.2105
0
ARC
8
PARAMETRIX
10
-10.8660
20
-16.8205
40
1.8000
50
61.0333
51
124.0000
0
LINE
8
PARAMETRIX
10
-11.8726
20
-15.3282
11
-12.7016
21
-15.8874
0
ARC
8
PARAMETRIX
10
-12.9812
20
-15.4729
40
0.5000
50
124.0000
51
304.0000
0
LINE
8
PARAMETRIX
10
-13.2608
20
-15.0584
11
-12.4318
21
-14.4992
0
ARC
8
PARAMETRIX
10
-13.1587
20
-13.4215
40
1.3000
50
304.0000
51
124.0000
0
LINE
8
PARAMETRIX
10
-13.8857
20
-12.3437
11
-14.7147
21
-12.9029
0
ARC
8
PARAMETRIX
10
-14.9943
20
-12.4884
40
0.5000
50
124.0000
51
304.0000
0
LINE
8
PARAMETRIX
10
-15.2739
20
-12.0739
11
-14.4449
21
-11.5147
0
ARC
8
PARAMETRIX
10
-15.1718
20
-10.4369
40
1.3000
50
304.0000
51
124.0000
0
LINE
8
PARAMETRIX
10
-15.8988
20
-9.3592
11
-16.7278
21
-9.9184
0
ARC
8
PARAMETRIX
10
-17.0074
20
-9.5038
40
0.5000
50
124.0000
51
304.0000
0
LINE
8
PARAMETRIX
10
-17.2870
20
-9.0893
11
-15.0486
21
-7.5795
0
ARC
8
PARAMETRIX
10
-15.7755
20
-6.5018
40
1.3000
50
304.0000
51
124.0000
0
LINE
8
PARAMETRIX
10
-16.5025
20
-5.4240
11
-16.0551
21
-6.0872
0
ARC
8
PARAMETRIX
10
-15.7755
20
-6.5018
40
0.5000
50
304.0000
51
124.0000
0
LINE
8
PARAMETRIX
10
-15.4959
20
-6.9163
11
-17.7343
21
-8.4261
0
ARC
8
PARAMETRIX
10
-17.0074
20
-9.5038
40
1.3000
50
124.0000
51
304.0000
0
LINE
8
PARAMETRIX
10
-16.2804
20
-10.5816
11
-15.4514
21
-10.0224
0
ARC
8
PARAMETRIX
10
-15.1718
20
-10.4369
40
0.5000
50
304.0000
51
124.0000
0
LINE
8
PARAMETRIX
10
-14.8922
20
-10.8514
11
-15.7213
21
-11.4106
0
ARC
8
PARAMETRIX
10
-14.9943
20
-12.4884
40
1.3000
50
124.0000
51
304.0000
0
LINE
8
PARAMETRIX
10
-14.2674
20
-13.5661
11
-13.4383
21
-13.0069
0
ARC
8
PARAMETRIX
10
-13.1587
20
-13.4215
40
0.5000
50
304.0000
51
124.0000
0
LINE
8
PARAMETRIX
10
-12.8791
20
-13.8360
11
-13.7082
21
-14.3952
0
ARC
8
PARAMETRIX
10
-12.9812
20
-15.4729
40
1.3000
50
124.0000
51
304.0000
0
LINE
8
PARAMETRIX
10
-12.2543
20
-16.5507
11
-11.4252
21
-15.9915
0
ARC
8
PARAMETRIX
10
-10.8660
20
-16.8205
40
1.0000
50
330.0000
51
124.0000
0
LINE
8
PARAMETRIX
10
-10.0000
20
-17.3205
11
-10.4881
21
-18.1659
0
ARC
8
PARAMETRIX
10
-11.3541
20
-17.6659
40
1.0000
50
237.2706
51
330.0000
0
ARC
8
PARAMETRIX
10
-0.0000
20
0.0000
40
22.0000
50
133.1504
51
237.2706
0
ARC
8
PARAMETRIX
10
-14.3622
20
15.3208
40
1.0000
50
40.4210
51
133.1504
0
LINE
8
PARAMETRIX
10
-13.6009
20
15.9692
11
-12.9680
21
15.2260
0
ARC
8
PARAMETRIX
10
-13.7293
20
14.5776
40
1.0000
50
246.4210
51
40.4210
0
LINE
8
PARAMETRIX
10
-14.1293
20
13.6611
11
-15.0458
21
14.0611
0
ARC
8
PARAMETRIX
10
-15.5658
20
12.8697
40
1.3000
50
66.4210
51
246.4210
0
LINE
8
PARAMETRIX
10
-16.0858
20
11.6782
11
-15.1693
21
11.2782
0
ARC
8
PARAMETRIX
10
-15.3693
20
10.8199
40
0.5000
50
246.4210
51
66.4210
0
LINE
8
PARAMETRIX
10
-15.5693
20
10.3617
11
-16.4859
21
10.7617
0
ARC
8
PARAMETRIX
10
-17.0059
20
9.5702
40
1.3000
50
66.4210
51
246.4210
0
LINE
8
PARAMETRIX
10
-17.5259
20
8.3788
11
-16.6094
21
7.9787
0
ARC
8
PARAMETRIX
10
-16.8094
20
7.5205
40
0.5000
50
246.4210
51
66.4210
0
LINE
8
PARAMETRIX
10
-17.0094
20
7.0622
11
-17.9259
21
7.4622
0
ARC
8
PARAMETRIX
10
-18.4459
20
6.2708
40
1.3000
50
66.4210
51
246.4210
0
LINE
8
PARAMETRIX
10
-18.9659
20
5.0793
11
-16.4914
21
3.9993
0
ARC
8
PARAMETRIX
10
-16.6914
20
3.5410
40
0.5000
50
246.4210
51
66.4210
0
LINE
8
PARAMETRIX
10
-16.8914
20
3.0828
11
-17.2114
21
2.3496
0
ARC
8
PARAMETRIX
10
-16.6914
20
3.5410
40
1.3000
50
246.4210
51
66.4210
0
LINE
8
PARAMETRIX
10
-16.1713
20
4.7325
11
-18.6459
21
5.8125
0
ARC
8
PARAMETRIX
10
-18.4459
20
6.2708
40
0.5000
50
66.4210
51
246.4210
0
LINE
8
PARAMETRIX
10
-18.2459
20
6.7290
11
-17.3294
21
6.3290
0
ARC
8
PARAMETRIX
10
-16.8094
20
7.5205
40
1.3000
50
246.4210
51
66.4210
0
LINE
8
PARAMETRIX
10
-16.2894
20
8.7120
11
-17.2059
21
9.1120
0
ARC
8
PARAMETRIX
10
-17.0059
20
9.5702
40
0.5000
50
66.4210
51
246.4210
0
LINE
8
PARAMETRIX
10
-16.8059
20
10.0285
11
-15.8894
21
9.6285
0
ARC
8
PARAMETRIX
10
-15.3693
20
10.8199
40
1.3000
50
246.4210
51
66.4210
0
LINE
8
PARAMETRIX
10
-14.8493
20
12.0114
11
-15.7658
21
12.4114
0
ARC
8
PARAMETRIX
10
-15.5658
20
12.8697
40
0.5000
50
66.4210
51
246.4210
0
LINE
8
PARAMETRIX
10
-15.3658
20
13.3279
11
-14.4493
21
12.9279
0
ARC
8
PARAMETRIX
10
-13.7293
20
14.5776
40
1.8000
50
246.4210
51
309.3877
0
ARC
8
PARAMETRIX
10
-11.9525
20
12.4136
40
1.0000
50
125.2105
51
129.3877
0
LINE
8
PARAMETRIX
10
-12.5291
20
13.2306
11
-8.2671
21
16.2383
0
ARC
8
PARAMETRIX
10
-7.6905
20
15.4213
40
1.0000
50
121.0333
51
125.2105
0
ARC
8
PARAMETRIX
10
-9.1340
20
17.8205
40
1.8000
50
301.0333
51
4.0000
0
LINE
8
PARAMETRIX
10
-7.3384
20
17.9461
11
-7.4081
21
18.9436
0
ARC
8
PARAMETRIX
10
-6.9093
20
18.9785
40
0.5000
50
4.0000
51
184.0000
0
LINE
8
PARAMETRIX
10
-6.4106
20
19.0134
11
-6.3408
21
18.0158
0
ARC
8
PARAMETRIX
10
-5.0440
20
18.1065
40
1.3000
50
184.0000
51
4.0000
0
LINE
8
PARAMETRIX
10
-3.7471
20
18.1972
11
-3.8169
21
19.1948
0
ARC
8
PARAMETRIX
10
-3.3181
20
19.2296
40
0.5000
50
4.0000
51
184.0000
0
LINE
8
PARAMETRIX
10
-2.8193
20
19.2645
11
-2.7496
21
18.2669
0
ARC
8
PARAMETRIX
10
-1.4527
20
18.3576
40
1.3000
50
184.0000
51
4.0000
0
LINE
8
PARAMETRIX
10
-0.1559
20
18.4483
11
-0.2257
21
19.4459
0
ARC
8
PARAMETRIX
10
0.2731
20
19.4808
40
0.5000
50
4.0000
51
184.0000
0
LINE
8
PARAMETRIX
10
0.7719
20
19.5156
11
0.9603
21
16.8222
0
ARC
8
PARAMETRIX
10
2.2571
20
16.9129
40
1.3000
50
184.0000
51
4.0000
0
LINE
8
PARAMETRIX
10
3.5539
20
17.0036
11
2.7559
21
16.9478
0
ARC
8
PARAMETRIX
10
2.2571
20
16.9129
40
0.5000
50
184.0000
51
4.0000
0
LINE
8
PARAMETRIX
10
1.7583
20
16.8780
11
1.5700
21
19.5714
0
ARC
8
PARAMETRIX
10
0.2731
20
19.4808
40
1.3000
50
4.0000
51
184.0000
0
LINE
8
PARAMETRIX
10
-1.0237
20
19.3901
11
-0.9539
21
18.3925
0
ARC
8
PARAMETRIX
10
-1.4527
20
18.3576
40
0.5000
50
184.0000
51
4.0000
0
LINE
8
PARAMETRIX
10
-1.9515
20
18.3228
11
-2.0213
21
19.3203
0
ARC
8
PARAMETRIX
10
-3.3181
20
19.2296
40
1.3000
50
4.0000
51
184.0000
0
LINE
8
PARAMETRIX
10
-4.6149
20
19.1390
11
-4.5452
21
18.1414
0
ARC
8
PARAMETRIX
10
-5.0440
20
18.1065
40
0.5000
50
184.0000
51
4.0000
0
LINE
8
PARAMETRIX
10
-5.5427
20
18.0716
11
-5.6125
21
19.0692
0
ARC
8
PARAMETRIX
10
-6.9093
20
18.9785
40
1.3000
50
4.0000
51
184.0000
0
LINE
8
PARAMETRIX
10
-8.2062
20
18.8878
11
-8.1364
21
17.8903
0
ARC
8
PARAMETRIX
10
-9.1340
20
17.8205
40
1.0000
50
210.0000
51
4.0000
0
LINE
8
PARAMETRIX
10
-10.0000
20
17.3205
11
-10.4881
21
18.1659
0
ARC
8
PARAMETRIX
10
-9.6221
20
18.6659
40
1.0000
50
117.2706
51
210.0000
0
ARC
8
PARAMETRIX
10
0.0000
20
-0.0000
40
22.0000
50
13.1504
51
117.2706
0
ARC
8
PARAMETRIX
10
20.4493
20
4.7777
40
1.0000
50
280.4210
51
13.1504
0
LINE
8
PARAMETRIX
10
20.6302
20
3.7942
11
19.6701
21
3.6176
0
ARC
8
PARAMETRIX
10
19.4892
20
4.6011
40
1.0000
50
126.4210
51
280.4210
0
LINE
8
PARAMETRIX
10
18.8955
20
5.4058
11
19.7002
21
5.9995
0
ARC
8
PARAMETRIX
10
18.9284
20
7.0456
40
1.3000
50
306.4210
51
126.4210
0
LINE
8
PARAMETRIX
10
18.1565
20
8.0916
11
17.3519
21
7.4979
0
ARC
8
PARAMETRIX
10
17.0550
20
7.9003
40
0.5000
50
126.4210
51
306.4210
0
LINE
8
PARAMETRIX
10
16.7581
20
8.3026
11
17.5628
21
8.8963
0
ARC
8
PARAMETRIX
10
16.7910
20
9.9424
40
1.3000
50
306.4210
51
126.4210
0
LINE
8
PARAMETRIX
10
16.0192
20
10.9885
11
15.2145
21
10.3948
0
ARC
8
PARAMETRIX
10
14.9176
20
10.7971
40
0.5000
50
126.4210
51
306.4210
0
LINE
8
PARAMETRIX
10
14.6208
20
11.1994
11
15.4254
21
11.7932
0
ARC
8
PARAMETRIX
10
14.6536
20
12.8392
40
1.3000
50
306.4210
51
126.4210
0
LINE
8
PARAMETRIX
10
13.8818
20
13.8853
11
11.7092
21
12.2823
0
ARC
8
PARAMETRIX
10
11.4123
20
12.6846
40
0.5000
50
126.4210
51
306.4210
0
LINE
8
PARAMETRIX
10
11.1155
20
13.0870
11
10.6405
21
13.7307
0
ARC
8
PARAMETRIX
10
11.4123
20
12.6846
40
1.3000
50
126.4210
51
306.4210
0
LINE
8
PARAMETRIX
10
12.1841
20
11.6385
11
14.3568
21
13.2416
0
ARC
8
PARAMETRIX
10
14.6536
20
12.8392
40
0.5000
50
306.4210
51
126.4210
0
LINE
8
PARAMETRIX
10
14.9505
20
12.4369
11
14.1458
21
11.8432
0
ARC
8
PARAMETRIX
10
14.9176
20
10.7971
40
1.3000
50
126.4210
51
306.4210
0
LINE
8
PARAMETRIX
10
15.6895
20
9.7510
11
16.4941
21
10.3447
0
ARC
8
PARAMETRIX
10
16.7910
20
9.9424
40
0.5000
50
306.4210
51
126.4210
0
LINE
8
PARAMETRIX
10
17.0878
20
9.5401
11
16.2832
21
8.9464
0
ARC
8
PARAMETRIX
10
17.0550
20
7.9003
40
1.3000
50
126.4210
51
306.4210
0
LINE
8
PARAMETRIX
10
17.8268
20
6.8542
11
18.6315
21
7.4479
0
ARC
8
PARAMETRIX
10
18.9284
20
7.0456
40
0.5000
50
306.4210
51
126.4210
0
LINE
8
PARAMETRIX
10
19.2252
20
6.6432
11
18.4205
21
6.0495
0
ARC
8
PARAMETRIX
10
19.4892
20
4.6011
40
1.8000
50
126.4210
51
189.3877
0
ARC
8
PARAMETRIX
10
16.7267
20
4.1444
40
1.0000
50
5.2105
51
9.3877
0
LINE
8
PARAMETRIX
10
17.7226
20
4.2352
11
18.1963
21
-0.9597
0
ARC
8
PARAMETRIX
10
17.2005
20
-1.0505
40
1.0000
50
1.0333
51
5.2105
0
ARC
8
PARAMETRIX
10
20.0000
20
-1.0000
40
1.8000
50
181.0333
51
244.0000
0
LINE
8
PARAMETRIX
10
19.2109
20
-2.6178
11
20.1097
21
-3.0562
0
ARC
8
PARAMETRIX
10
19.8905
20
-3.5056
40
0.5000
50
244.0000
51
64.0000
0
LINE
8
PARAMETRIX
10
19.6714
20
-3.9550
11
18.7726
21
-3.5166
0
ARC
8
PARAMETRIX
10
18.2027
20
-4.6851
40
1.3000
50
64.0000
51
244.0000
0
LINE
8
PARAMETRIX
10
17.6328
20
-5.8535
11
18.5316
21
-6.2919
0
ARC
8
PARAMETRIX
10
18.3124
20
-6.7413
40
0.5000
50
244.0000
51
64.0000
0
LINE
8
PARAMETRIX
10
18.0932
20
-7.1907
11
17.1944
21
-6.7523
0
ARC
8
PARAMETRIX
10
16.6245
20
-7.9207
40
1.3000
50
64.0000
51
244.0000
0
LINE
8
PARAMETRIX
10
16.0547
20
-9.0891
11
16.9535
21
-9.5275
0
ARC
8
PARAMETRIX
10
16.7343
20
-9.9769
40
0.5000
50
244.0000
51
64.0000
0
LINE
8
PARAMETRIX
10
16.5151
20
-10.4263
11
14.0883
21
-9.2427
0
ARC
8
PARAMETRIX
10
13.5185
20
-10.4111
40
1.3000
50
64.0000
51
244.0000
0
LINE
8
PARAMETRIX
10
12.9486
20
-11.5796
11
13.2993
21
-10.8605
0
ARC
8
PARAMETRIX
10
13.5185
20
-10.4111
40
0.5000
50
64.0000
51
244.0000
0
LINE
8
PARAMETRIX
10
13.7376
20
-9.9617
11
16.1644
21
-11.1453
0
ARC
8
PARAMETRIX
10
16.7343
20
-9.9769
40
1.3000
50
244.0000
51
64.0000
0
LINE
8
PARAMETRIX
10
17.3042
20
-8.8085
11
16.4054
21
-8.3701
0
ARC
8
PARAMETRIX
10
16.6245
20
-7.9207
40
0.5000
50
64.0000
51
244.0000
0
LINE
8
PARAMETRIX
10
16.8437
20
-7.4713
11
17.7425
21
-7.9097
0
ARC
8
PARAMETRIX
10
18.3124
20
-6.7413
40
1.3000
50
244.0000
51
64.0000
0
LINE
8
PARAMETRIX
10
18.8823
20
-5.5728
11
17.9835
21
-5.1345
0
ARC
8
PARAMETRIX
10
18.2027
20
-4.6851
40
0.5000
50
64.0000
51
244.0000
0
LINE
8
PARAMETRIX
10
18.4219
20
-4.2357
11
19.3207
21
-4.6740
0
ARC
8
PARAMETRIX
10
19.8905
20
-3.5056
40
1.3000
50
244.0000
51
64.0000
0
LINE
8
PARAMETRIX
10
20.4604
20
-2.3372
11
19.5616
21
-1.8988
0
ARC
8
PARAMETRIX
10
20.0000
20
-1.0000
40
1.0000
50
90.0000
51
244.0000
0
LINE
8
PARAMETRIX
10
20.0000
20
0.0000
11
20.9762
21
0.0000
0
ARC
8
PARAMETRIX
10
20.9762
20
-1.0000
40
1.0000
50
357.2706
51
90.0000
0
ENDSEC
0
EOF
