<svg width="74" height="65" viewBox="-33 -28 74 65" xmlns="http://www.w3.org/2000/svg"><path d="M 25.6324 2.4754 L 27.5537 1.9218 A 2.0000 2.0000 0 0 0 27.5537 -1.9218 L 25.6324 -2.4754 A 3.0000 3.0000 0 0 1 23.5227 -4.7628 A 24.0000 24.0000 0 0 0 15.8860 -17.9898 A 3.0000 3.0000 0 0 1 14.9600 -20.9606 L 15.4412 -22.9013 A 2.0000 2.0000 0 0 0 12.1125 -24.8231 L 10.6724 -23.4360 A 3.0000 3.0000 0 0 1 7.6366 -22.7526 A 24.0000 24.0000 0 0 0 -7.6366 -22.7526 A 3.0000 3.0000 0 0 1 -10.6724 -23.4360 L -12.1125 -24.8231 A 2.0000 2.0000 0 0 0 -15.4412 -22.9013 L -14.9600 -20.9606 A 3.0000 3.0000 0 0 1 -15.8860 -17.9898 A 24.0000 24.0000 0 0 0 -23.5227 -4.7628 A 3.0000 3.0000 0 0 1 -25.6324 -2.4754 L -27.5537 -1.9218 A 2.0000 2.0000 0 0 0 -27.5537 1.9218 L -25.6324 2.4754 A 3.0000 3.0000 0 0 1 -23.5227 4.7628 A 24.0000 24.0000 0 0 0 -15.8860 17.9898 A 3.0000 3.0000 0 0 1 -14.9600 20.9606 L -15.4412 22.9013 A 2.0000 2.0000 0 0 0 -12.1125 24.8231 L -10.6724 23.4360 A 3.0000 3.0000 0 0 1 -7.6366 22.7526 A 24.0000 24.0000 0 0 0 7.6366 22.7526 A 3.0000 3.0000 0 0 1 10.6724 23.4360 L 12.1125 24.8231 A 2.0000 2.0000 0 0 0 15.4412 22.9013 L 14.9600 20.9606 A 3.0000 3.0000 0 0 1 15.8860 17.9898 A 24.0000 24.0000 0 0 0 23.5227 4.7628 A 3.0000 3.0000 0 0 1 25.6324 2.4754 Z" stroke="green" stroke-width="1" fill="none" /><circle cx="27.0000" cy="0.0000" r="1.0000" stroke="green" stroke-width="1" fill="none" /><circle cx="13.5000" cy="-23.3827" r="1.0000" stroke="green" stroke-width="1" fill="none" /><circle cx="-13.5000" cy="-23.3827" r="1.0000" stroke="green" stroke-width="1" fill="none" /><circle cx="-27.0000" cy="0.0000" r="1.0000" stroke="green" stroke-width="1" fill="none" /><circle cx="-13.5000" cy="23.3827" r="1.0000" stroke="green" stroke-width="1" fill="none" /><circle cx="13.5000" cy="23.3827" r="1.0000" stroke="green" stroke-width="1" fill="none" /><path d="M 21.9750 1.0476 A 22.0000 22.0000 0 0 1 -6.3769 21.0555 A 1.0000 1.0000 0 0 1 -7.0292 19.7633 L -6.7021 18.8436 A 1.0000 1.0000 0 0 1 -4.7662 19.0669 L -4.6544 20.0606 A 1.3000 1.3000 0 1 0 -2.0707 19.7698 L -2.1825 18.7761 A 0.5000 0.5000 0 0 1 -1.1888 18.6643 L -1.0770 19.6580 A 1.3000 1.3000 0 1 0 1.5067 19.3672 L 1.3949 18.3735 A 0.5000 0.5000 0 0 1 2.3886 18.2617 L 2.5005 19.2554 A 1.3000 1.3000 0 1 0 5.0841 18.9646 L 4.7822 16.2816 A 0.5000 0.5000 0 1 1 5.7759 16.1697 L 6.5709 16.0803 A 1.3000 1.3000 0 0 0 3.9872 16.3710 L 4.2892 19.0541 A 0.5000 0.5000 0 0 1 3.2954 19.1659 L 3.1836 18.1722 A 1.3000 1.3000 0 1 0 0.5999 18.4630 L 0.7117 19.4567 A 0.5000 0.5000 0 0 1 -0.2820 19.5685 L -0.3938 18.5748 A 1.3000 1.3000 0 0 0 -2.9775 18.8656 L -2.8657 19.8593 A 0.5000 0.5000 0 0 1 -3.8594 19.9711 L -3.9712 18.9774 A 1.8000 1.8000 0 0 0 -5.1263 17.4939 A 1.0000 1.0000 0 0 1 -5.1935 17.4658 L -9.9293 15.2786 A 1.0000 1.0000 0 0 1 -9.9943 15.2457 A 1.8000 1.8000 0 0 0 -11.8726 15.3282 L -12.7016 15.8874 A 0.5000 0.5000 0 0 1 -13.2608 15.0584 L -12.4318 14.4992 A 1.3000 1.3000 0 0 0 -13.8857 12.3437 L -14.7147 12.9029 A 0.5000 0.5000 0 1 1 -15.2739 12.0739 L -14.4449 11.5147 A 1.3000 1.3000 0 0 0 -15.8988 9.3592 L -16.7278 9.9184 A 0.5000 0.5000 0 1 1 -17.2870 9.0893 L -15.0486 7.5795 A 1.3000 1.3000 0 1 0 -16.5025 5.4240 L -16.0551 6.0872 A 0.5000 0.5000 0 1 1 -15.4959 6.9163 L -17.7343 8.4261 A 1.3000 1.3000 0 0 0 -16.2804 10.5816 L -15.4514 10.0224 A 0.5000 0.5000 0 1 1 -14.8922 10.8514 L -15.7213 11.4106 A 1.3000 1.3000 0 1 0 -14.2674 13.5661 L -13.4383 13.0069 A 0.5000 0.5000 0 0 1 -12.8791 13.8360 L -13.7082 14.3952 A 1.3000 1.3000 0 0 0 -12.2543 16.5507 L -11.4252 15.9915 A 1.0000 1.0000 0 0 1 -10.0000 17.3205 L -10.4881 18.1659 A 1.0000 1.0000 0 0 1 -11.8948 18.5071 A 22.0000 22.0000 0 0 1 -15.0461 -16.0503 A 1.0000 1.0000 0 0 1 -13.6009 -15.9692 L -12.9680 -15.2260 A 1.0000 1.0000 0 0 1 -14.1293 -13.6611 L -15.0458 -14.0611 A 1.3000 1.3000 0 0 0 -16.0858 -11.6782 L -15.1693 -11.2782 A 0.5000 0.5000 0 1 1 -15.5693 -10.3617 L -16.4859 -10.7617 A 1.3000 1.3000 0 1 0 -17.5259 -8.3788 L -16.6094 -7.9787 A 0.5000 0.5000 0 1 1 -17.0094 -7.0622 L -17.9259 -7.4622 A 1.3000 1.3000 0 0 0 -18.9659 -5.0793 L -16.4914 -3.9993 A 0.5000 0.5000 0 0 1 -16.8914 -3.0828 L -17.2114 -2.3496 A 1.3000 1.3000 0 0 0 -16.1713 -4.7325 L -18.6459 -5.8125 A 0.5000 0.5000 0 1 1 -18.2459 -6.7290 L -17.3294 -6.3290 A 1.3000 1.3000 0 1 0 -16.2894 -8.7120 L -17.2059 -9.1120 A 0.5000 0.5000 0 1 1 -16.8059 -10.0285 L -15.8894 -9.6285 A 1.3000 1.3000 0 1 0 -14.8493 -12.0114 L -15.7658 -12.4114 A 0.5000 0.5000 0 0 1 -15.3658 -13.3279 L -14.4493 -12.9279 A 1.8000 1.8000 0 0 0 -12.5871 -13.1864 A 1.0000 1.0000 0 0 1 -12.5291 -13.2306 L -8.2671 -16.2383 A 1.0000 1.0000 0 0 1 -8.2060 -16.2781 A 1.8000 1.8000 0 0 0 -7.3384 -17.9461 L -7.4081 -18.9436 A 0.5000 0.5000 0 0 1 -6.4106 -19.0134 L -6.3408 -18.0158 A 1.3000 1.3000 0 1 0 -3.7471 -18.1972 L -3.8169 -19.1948 A 0.5000 0.5000 0 1 1 -2.8193 -19.2645 L -2.7496 -18.2669 A 1.3000 1.3000 0 0 0 -0.1559 -18.4483 L -0.2257 -19.4459 A 0.5000 0.5000 0 0 1 0.7719 -19.5156 L 0.9603 -16.8222 A 1.3000 1.3000 0 0 0 3.5539 -17.0036 L 2.7559 -16.9478 A 0.5000 0.5000 0 1 1 1.7583 -16.8780 L 1.5700 -19.5714 A 1.3000 1.3000 0 0 0 -1.0237 -19.3901 L -0.9539 -18.3925 A 0.5000 0.5000 0 0 1 -1.9515 -18.3228 L -2.0213 -19.3203 A 1.3000 1.3000 0 1 0 -4.6149 -19.1390 L -4.5452 -18.1414 A 0.5000 0.5000 0 0 1 -5.5427 -18.0716 L -5.6125 -19.0692 A 1.3000 1.3000 0 1 0 -8.2062 -18.8878 L -8.1364 -17.8903 A 1.0000 1.0000 0 0 1 -10.0000 -17.3205 L -10.4881 -18.1659 A 1.0000 1.0000 0 0 1 -10.0803 -19.5548 A 22.0000 22.0000 0 0 1 21.4231 -5.0052 A 1.0000 1.0000 0 0 1 20.6302 -3.7942 L 19.6701 -3.6176 A 1.0000 1.0000 0 0 1 18.8955 -5.4058 L 19.7002 -5.9995 A 1.3000 1.3000 0 1 0 18.1565 -8.0916 L 17.3519 -7.4979 A 0.5000 0.5000 0 0 1 16.7581 -8.3026 L 17.5628 -8.8963 A 1.3000 1.3000 0 0 0 16.0192 -10.9885 L 15.2145 -10.3948 A 0.5000 0.5000 0 0 1 14.6208 -11.1994 L 15.4254 -11.7932 A 1.3000 1.3000 0 0 0 13.8818 -13.8853 L 11.7092 -12.2823 A 0.5000 0.5000 0 1 1 11.1155 -13.0870 L 10.6405 -13.7307 A 1.3000 1.3000 0 0 0 12.1841 -11.6385 L 14.3568 -13.2416 A 0.5000 0.5000 0 0 1 14.9505 -12.4369 L 14.1458 -11.8432 A 1.3000 1.3000 0 0 0 15.6895 -9.7510 L 16.4941 -10.3447 A 0.5000 0.5000 0 0 1 17.0878 -9.5401 L 16.2832 -8.9464 A 1.3000 1.3000 0 0 0 17.8268 -6.8542 L 18.6315 -7.4479 A 0.5000 0.5000 0 1 1 19.2252 -6.6432 L 18.4205 -6.0495 A 1.8000 1.8000 0 0 0 17.7133 -4.3075 A 1.0000 1.0000 0 0 1 17.7226 -4.2352 L 18.1963 0.9597 A 1.0000 1.0000 0 0 1 18.2003 1.0325 A 1.8000 1.8000 0 0 0 19.2109 2.6178 L 20.1097 3.0562 A 0.5000 0.5000 0 0 1 19.6714 3.9550 L 18.7726 3.5166 A 1.3000 1.3000 0 1 0 17.6328 5.8535 L 18.5316 6.2919 A 0.5000 0.5000 0 0 1 18.0932 7.1907 L 17.1944 6.7523 A 1.3000 1.3000 0 0 0 16.0547 9.0891 L 16.9535 9.5275 A 0.5000 0.5000 0 0 1 16.5151 10.4263 L 14.0883 9.2427 A 1.3000 1.3000 0 0 0 12.9486 11.5796 L 13.2993 10.8605 A 0.5000 0.5000 0 1 1 13.7376 9.9617 L 16.1644 11.1453 A 1.3000 1.3000 0 1 0 17.3042 8.8085 L 16.4054 8.3701 A 0.5000 0.5000 0 0 1 16.8437 7.4713 L 17.7425 7.9097 A 1.3000 1.3000 0 0 0 18.8823 5.5728 L 17.9835 5.1345 A 0.5000 0.5000 0 0 1 18.4219 4.2357 L 19.3207 4.6740 A 1.3000 1.3000 0 0 0 20.4604 2.3372 L 19.5616 1.8988 A 1.0000 1.0000 0 0 1 20.0000 0.0000 L 20.9762 0.0000 A 1.0000 1.0000 0 0 1 21.9750 1.0476 Z" stroke="green" stroke-width="1" fill="none" /></svg>