0
SECTION
2
ENTITIES
0
LINE
8
PARAMETRIX
10
23.0000
20
40.0000
11
-23.0000
21
40.0000
0
ARC
8
PARAMETRIX
10
-23.0000
20
38.0000
40
2.0000
50
90.0000
51
180.0000
0
LINE
8
PARAMETRIX
10
-25.0000
20
38.0000
11
-25.0000
21
-38.0000
0
ARC
8
PARAMETRIX
10
-23.0000
20
-38.0000
40
2.0000
50
180.0000
51
270.0000
0
LINE
8
PARAMETRIX
10
-23.0000
20
-40.0000
11
23.0000
21
-40.0000
0
ARC
8
PARAMETRIX
10
23.0000
20
-38.0000
40
2.0000
50
270.0000
51
0.0000
0
LINE
8
PARAMETRIX
10
25.0000
20
-38.0000
11
25.0000
21
38.0000
0
ARC
8
PARAMETRIX
10
23.0000
20
38.0000
40
2.0000
50
0.0000
51
90.0000
0
LINE
8
PARAMETRIX
10
14.0000
20
35.0000
11
-14.0000
21
35.0000
0
ARC
8
PARAMETRIX
10
-14.0000
20
29.0000
40
6.0000
50
90.0000
51
180.0000
0
LINE
8
PARAMETRIX
10
-20.0000
20
29.0000
11
-20.0000
21
-29.0000
0
ARC
8
PARAMETRIX
10
-14.0000
20
-29.0000
40
6.0000
50
180.0000
51
270.0000
0
LINE
8
PARAMETRIX
10
-14.0000
20
-35.0000
11
14.0000
21
-35.0000
0
ARC
8
PARAMETRIX
10
14.0000
20
-29.0000
40
6.0000
50
270.0000
51
0.0000
0
LINE
8
PARAMETRIX
10
20.0000
20
-29.0000
11
20.0000
21
29.0000
0
ARC
8
PARAMETRIX
10
14.0000
20
29.0000
40
6.0000
50
0.0000
51
90.0000
0
CIRCLE
8
PARAMETRIX
10
23.0000
20
-30.0000
40
1.0000
0
CIRCLE
8
PARAMETRIX
10
-23.0000
20
-30.0000
40
1.0000
0
CIRCLE
8
PARAMETRIX
10
23.0000
20
-20.0000
40
1.0000
0
CIRCLE
8
PARAMETRIX
10
-23.0000
20
-20.0000
40
1.0000
0
CIRCLE
8
PARAMETRIX
10
23.0000
20
-10.0000
40
1.0000
0
CIRCLE
8
PARAMETRIX
10
-23.0000
20
-10.0000
40
1.0000
0
CIRCLE
8
PARAMETRIX
10
23.0000
20
0.0000
40
1.0000
0
CIRCLE
8
PARAMETRIX
10
-23.0000
20
0.0000
40
1.0000
0
CIRCLE
8
PARAMETRIX
10
23.0000
20
10.0000
40
1.0000
0
CIRCLE
8
PARAMETRIX
10
-23.0000
20
10.0000
40
1.0000
0
CIRCLE
8
PARAMETRIX
10
23.0000
20
20.0000
40
1.0000
0
CIRCLE
8
PARAMETRIX
10
-23.0000
20
20.0000
40
1.0000
0
CIRCLE
8
PARAMETRIX
10
23.0000
20
30.0000
40
1.0000
0
CIRCLE
8
PARAMETRIX
10
-23.0000
20
30.0000
40
1.0000
0
CIRCLE
8
PARAMETRIX
10
-15.0000
20
38.0000
40
1.0000
0
CIRCLE
8
PARAMETRIX
10
-15.0000
20
-38.0000
40
1.0000
0
CIRCLE
8
PARAMETRIX
10
-5.0000
20
38.0000
40
1.0000
0
CIRCLE
8
PARAMETRIX
10
-5.0000
20
-38.0000
40
1.0000
0
CIRCLE
8
PARAMETRIX
10
5.0000
20
38.0000
40
1.0000
0
CIRCLE
8
PARAMETRIX
10
5.0000
20
-38.0000
40
1.0000
0
CIRCLE
8
PARAMETRIX
10
15.0000
20
38.0000
40
1.0000
0
CIRCLE
8
PARAMETRIX
10
15.0000
20
-38.0000
40
1.0000
0
ENDSEC
0
EOF
