<svg width="65" height="98" viewBox="-28 -45 65 98" xmlns="http://www.w3.org/2000/svg"><path d="M 23.0000 -40.0000 L -23.0000 -40.0000 A 2.0000 2.0000 0 0 0 -25.0000 -38.0000 L -25.0000 38.0000 A 2.0000 2.0000 0 0 0 -23.0000 40.0000 L 23.0000 40.0000 A 2.0000 2.0000 0 0 0 25.0000 38.0000 L 25.0000 -38.0000 A 2.0000 2.0000 0 0 0 23.0000 -40.0000 Z" stroke="green" stroke-width="1" fill="none" /><path d="M 14.0000 -35.0000 L -14.0000 -35.0000 A 6.0000 6.0000 0 0 0 -20.0000 -29.0000 L -20.0000 29.0000 A 6.0000 6.0000 0 0 0 -14.0000 35.0000 L 14.0000 35.0000 A 6.0000 6.0000 0 0 0 20.0000 29.0000 L 20.0000 -29.0000 A 6.0000 6.0000 0 0 0 14.0000 -35.0000 Z" stroke="green" stroke-width="1" fill="none" /><circle cx="23.0000" cy="30.0000" r="1.0000" stroke="green" stroke-width="1" fill="none" /><circle cx="-23.0000" cy="30.0000" r="1.0000" stroke="green" stroke-width="1" fill="none" /><circle cx="23.0000" cy="20.0000" r="1.0000" stroke="green" stroke-width="1" fill="none" /><circle cx="-23.0000" cy="20.0000" r="1.0000" stroke="green" stroke-width="1" fill="none" /><circle cx="23.0000" cy="10.0000" r="1.0000" stroke="green" stroke-width="1" fill="none" /><circle cx="-23.0000" cy="10.0000" r="1.0000" stroke="green" stroke-width="1" fill="none" /><circle cx="23.0000" cy="0.0000" r="1.0000" stroke="green" stroke-width="1" fill="none" /><circle cx="-23.0000" cy="0.0000" r="1.0000" stroke="green" stroke-width="1" fill="none" /><circle cx="23.0000" cy="-10.0000" r="1.0000" stroke="green" stroke-width="1" fill="none" /><circle cx="-23.0000" cy="-10.0000" r="1.0000" stroke="green" stroke-width="1" fill="none" /><circle cx="23.0000" cy="-20.0000" r="1.0000" stroke="green" stroke-width="1" fill="none" /><circle cx="-23.0000" cy="-20.0000" r="1.0000" stroke="green" stroke-width="1" fill="none" /><circle cx="23.0000" cy="-30.0000" r="1.0000" stroke="green" stroke-width="1" fill="none" /><circle cx="-23.0000" cy="-30.0000" r="1.0000" stroke="green" stroke-width="1" fill="none" /><circle cx="-15.0000" cy="-38.0000" r="1.0000" stroke="green" stroke-width="1" fill="none" /><circle cx="-15.0000" cy="38.0000" r="1.0000" stroke="green" stroke-width="1" fill="none" /><circle cx="-5.0000" cy="-38.0000" r="1.0000" stroke="green" stroke-width="1" fill="none" /><circle cx="-5.0000" cy="38.0000" r="1.0000" stroke="green" stroke-width="1" fill="none" /><circle cx="5.0000" cy="-38.0000" r="1.0000" stroke="green" stroke-width="1" fill="none" /><circle cx="5.0000" cy="38.0000" r="1.0000" stroke="green" stroke-width="1" fill="none" /><circle cx="15.0000" cy="-38.0000" r="1.0000" stroke="green" stroke-width="1" fill="none" /><circle cx="15.0000" cy="38.0000" r="1.0000" stroke="green" stroke-width="1" fill="none" /></svg>