<svg width="43" height="54" viewBox="-17 -23 43 54" xmlns="http://www.w3.org/2000/svg"><path d="M 13.0000 -20.0000 L -13.0000 -20.0000 A 2.0000 2.0000 0 0 0 -15.0000 -18.0000 L -15.0000 18.0000 A 2.0000 2.0000 0 0 0 -13.0000 20.0000 L 13.0000 20.0000 A 2.0000 2.0000 0 0 0 15.0000 18.0000 L 15.0000 -18.0000 A 2.0000 2.0000 0 0 0 13.0000 -20.0000 Z" stroke="green" stroke-width="1" fill="none" /><circle cx="12.0000" cy="6.6667" r="1.5000" stroke="green" stroke-width="1" fill="none" /><circle cx="-12.0000" cy="6.6667" r="1.5000" stroke="green" stroke-width="1" fill="none" /><circle cx="12.0000" cy="-6.6667" r="1.5000" stroke="green" stroke-width="1" fill="none" /><circle cx="-12.0000" cy="-6.6667" r="1.5000" stroke="green" stroke-width="1" fill="none" /><circle cx="-5.0000" cy="-17.0000" r="1.5000" stroke="green" stroke-width="1" fill="none" /><circle cx="-5.0000" cy="17.0000" r="1.5000" stroke="green" stroke-width="1" fill="none" /><circle cx="5.0000" cy="-17.0000" r="1.5000" stroke="green" stroke-width="1" fill="none" /><circle cx="5.0000" cy="17.0000" r="1.5000" stroke="green" stroke-width="1" fill="none" /></svg>