<svg width="35" height="51" viewBox="-2 -15 35 51" xmlns="http://www.w3.org/2000/svg"><path d="M 0.0000 1.5000 L 2.4835 1.7724 A 1.4000 1.4000 0 0 0 3.8402 1.2574 L 8.7655 -5.0467 A 0.5000 0.5000 0 0 1 9.5535 -4.4310 L 4.6282 1.8731 A 1.4000 1.4000 0 1 0 6.8346 3.5969 L 11.7599 -2.7072 A 0.5000 0.5000 0 1 1 12.5479 -2.0915 L 7.2532 4.6854 A 1.4000 1.4000 0 0 0 9.4596 6.4093 L 8.7504 5.8552 A 0.5000 0.5000 0 1 1 7.9624 5.2395 L 13.2571 -1.5374 A 1.4000 1.4000 0 0 0 11.0507 -3.2613 L 6.1254 3.0428 A 0.5000 0.5000 0 0 1 5.3374 2.4272 L 10.2627 -3.8769 A 1.4000 1.4000 0 0 0 8.0562 -5.6008 L 3.1310 0.7033 A 0.5000 0.5000 0 0 1 2.2452 0.3050 L 3.1309 -4.5058 A 5.0000 5.0000 0 0 1 10.2839 -8.0728 A 23.0000 23.0000 0 0 1 22.9585 13.8803 A 5.0000 5.0000 0 0 1 16.2929 18.2915 L 11.6838 16.6531 A 0.5000 0.5000 0 0 1 11.7817 15.6869 L 19.7038 14.5735 A 1.4000 1.4000 0 0 0 19.3142 11.8007 L 11.3920 12.9141 A 0.5000 0.5000 0 0 1 11.2528 11.9238 L 19.1750 10.8105 A 1.4000 1.4000 0 0 0 18.7853 8.0377 L 10.2690 9.2346 A 0.5000 0.5000 0 0 1 10.1298 8.2443 L 10.0046 7.3531 A 1.4000 1.4000 0 0 0 10.3943 10.1258 L 18.9106 8.9289 A 0.5000 0.5000 0 0 1 19.0497 9.9192 L 11.1276 11.0326 A 1.4000 1.4000 0 0 0 11.5173 13.8053 L 19.4394 12.6920 A 0.5000 0.5000 0 0 1 19.5786 13.6822 L 11.6564 14.7956 A 1.4000 1.4000 0 0 0 10.5321 15.7131 L 9.5263 18.0000 L 21.6506 25.0000 A 25.0000 25.0000 0 0 0 0.0000 -12.5000 L 0.0000 1.5000 Z" stroke="green" stroke-width="1" fill="none" /></svg>