0
SECTION
2
ENTITIES
0
LINE
8
PARAMETRIX
10
0.0000
20
11.0000
11
2.4835
21
10.7276
0
ARC
8
PARAMETRIX
10
2.7369
20
12.1045
40
1.4000
50
259.5682
51
322.0000
0
LINE
8
PARAMETRIX
10
3.8402
20
11.2426
11
8.7655
21
17.5467
0
ARC
8
PARAMETRIX
10
9.1595
20
17.2388
40
0.5000
50
322.0000
51
142.0000
0
LINE
8
PARAMETRIX
10
9.5535
20
16.9310
11
4.6282
21
10.6269
0
ARC
8
PARAMETRIX
10
5.7314
20
9.7650
40
1.4000
50
142.0000
51
322.0000
0
LINE
8
PARAMETRIX
10
6.8346
20
8.9031
11
11.7599
21
15.2072
0
ARC
8
PARAMETRIX
10
12.1539
20
14.8993
40
0.5000
50
322.0000
51
142.0000
0
LINE
8
PARAMETRIX
10
12.5479
20
14.5915
11
7.2532
21
7.8146
0
ARC
8
PARAMETRIX
10
8.3564
20
6.9527
40
1.4000
50
142.0000
51
322.0000
0
LINE
8
PARAMETRIX
10
9.4596
20
6.0907
11
8.7504
21
6.6448
0
ARC
8
PARAMETRIX
10
8.3564
20
6.9527
40
0.5000
50
142.0000
51
322.0000
0
LINE
8
PARAMETRIX
10
7.9624
20
7.2605
11
13.2571
21
14.0374
0
ARC
8
PARAMETRIX
10
12.1539
20
14.8993
40
1.4000
50
322.0000
51
142.0000
0
LINE
8
PARAMETRIX
10
11.0507
20
15.7613
11
6.1254
21
9.4572
0
ARC
8
PARAMETRIX
10
5.7314
20
9.7650
40
0.5000
50
142.0000
51
322.0000
0
LINE
8
PARAMETRIX
10
5.3374
20
10.0728
11
10.2627
21
16.3769
0
ARC
8
PARAMETRIX
10
9.1595
20
17.2388
40
1.4000
50
322.0000
51
142.0000
0
LINE
8
PARAMETRIX
10
8.0562
20
18.1008
11
3.1310
21
11.7967
0
ARC
8
PARAMETRIX
10
2.7369
20
12.1045
40
0.5000
50
169.5682
51
322.0000
0
LINE
8
PARAMETRIX
10
2.2452
20
12.1950
11
3.1309
21
17.0058
0
ARC
8
PARAMETRIX
10
8.0483
20
16.1005
40
5.0000
50
63.4406
51
169.5682
0
ARC
8
PARAMETRIX
10
-0.0000
20
0.0000
40
23.0000
50
356.5594
51
63.4406
0
ARC
8
PARAMETRIX
10
17.9676
20
-1.0802
40
5.0000
50
250.4318
51
356.5594
0
LINE
8
PARAMETRIX
10
16.2929
20
-5.7915
11
11.6838
21
-4.1531
0
ARC
8
PARAMETRIX
10
11.8513
20
-3.6820
40
0.5000
50
98.0000
51
250.4318
0
LINE
8
PARAMETRIX
10
11.7817
20
-3.1869
11
19.7038
21
-2.0735
0
ARC
8
PARAMETRIX
10
19.5090
20
-0.6871
40
1.4000
50
278.0000
51
98.0000
0
LINE
8
PARAMETRIX
10
19.3142
20
0.6993
11
11.3920
21
-0.4141
0
ARC
8
PARAMETRIX
10
11.3224
20
0.0810
40
0.5000
50
98.0000
51
278.0000
0
LINE
8
PARAMETRIX
10
11.2528
20
0.5762
11
19.1750
21
1.6895
0
ARC
8
PARAMETRIX
10
18.9801
20
3.0759
40
1.4000
50
278.0000
51
98.0000
0
LINE
8
PARAMETRIX
10
18.7853
20
4.4623
11
10.2690
21
3.2654
0
ARC
8
PARAMETRIX
10
10.1994
20
3.7605
40
0.5000
50
98.0000
51
278.0000
0
LINE
8
PARAMETRIX
10
10.1298
20
4.2557
11
10.0046
21
5.1469
0
ARC
8
PARAMETRIX
10
10.1994
20
3.7605
40
1.4000
50
98.0000
51
278.0000
0
LINE
8
PARAMETRIX
10
10.3943
20
2.3742
11
18.9106
21
3.5711
0
ARC
8
PARAMETRIX
10
18.9801
20
3.0759
40
0.5000
50
278.0000
51
98.0000
0
LINE
8
PARAMETRIX
10
19.0497
20
2.5808
11
11.1276
21
1.4674
0
ARC
8
PARAMETRIX
10
11.3224
20
0.0810
40
1.4000
50
98.0000
51
278.0000
0
LINE
8
PARAMETRIX
10
11.5173
20
-1.3053
11
19.4394
21
-0.1920
0
ARC
8
PARAMETRIX
10
19.5090
20
-0.6871
40
0.5000
50
278.0000
51
98.0000
0
LINE
8
PARAMETRIX
10
19.5786
20
-1.1822
11
11.6564
21
-2.2956
0
ARC
8
PARAMETRIX
10
11.8513
20
-3.6820
40
1.4000
50
98.0000
51
160.4318
0
LINE
8
PARAMETRIX
10
10.5321
20
-3.2131
11
9.5263
21
-5.5000
0
LINE
8
PARAMETRIX
10
9.5263
20
-5.5000
11
21.6506
21
-12.5000
0
ARC
8
PARAMETRIX
10
0.0000
20
-0.0000
40
25.0000
50
330.0000
51
90.0000
0
LINE
8
PARAMETRIX
10
0.0000
20
25.0000
11
0.0000
21
11.0000
0
ENDSEC
0
EOF
