<svg width="94" height="94" viewBox="-43 -43 94 94" xmlns="http://www.w3.org/2000/svg"><circle cx="0.0000" cy="0.0000" r="37.9731" stroke="green" stroke-width="1" fill="none" /><path d="M 33.9776 3.6000 L 26.5660 1.9523 A 2.0000 2.0000 0 0 1 26.5660 -1.9523 L 33.9776 -3.6000 A 2.0000 2.0000 0 0 0 35.5167 -5.8789 A 36.0000 36.0000 0 0 0 22.8497 -27.8189 A 2.0000 2.0000 0 0 0 20.1065 -27.6255 L 14.9738 -22.0307 A 2.0000 2.0000 0 0 1 11.5922 -23.9830 L 13.8711 -31.2254 A 2.0000 2.0000 0 0 0 12.6671 -33.6979 A 36.0000 36.0000 0 0 0 -12.6671 -33.6979 A 2.0000 2.0000 0 0 0 -13.8711 -31.2254 L -11.5922 -23.9830 A 2.0000 2.0000 0 0 1 -14.9738 -22.0307 L -20.1065 -27.6255 A 2.0000 2.0000 0 0 0 -22.8497 -27.8189 A 36.0000 36.0000 0 0 0 -35.5167 -5.8789 A 2.0000 2.0000 0 0 0 -33.9776 -3.6000 L -26.5660 -1.9523 A 2.0000 2.0000 0 0 1 -26.5660 1.9523 L -33.9776 3.6000 A 2.0000 2.0000 0 0 0 -35.5167 5.8789 A 36.0000 36.0000 0 0 0 -22.8497 27.8189 A 2.0000 2.0000 0 0 0 -20.1065 27.6255 L -14.9738 22.0307 A 2.0000 2.0000 0 0 1 -11.5922 23.9830 L -13.8711 31.2254 A 2.0000 2.0000 0 0 0 -12.6671 33.6979 A 36.0000 36.0000 0 0 0 12.6671 33.6979 A 2.0000 2.0000 0 0 0 13.8711 31.2254 L 11.5922 23.9830 A 2.0000 2.0000 0 0 1 14.9738 22.0307 L 20.1065 27.6255 A 2.0000 2.0000 0 0 0 22.8497 27.8189 A 36.0000 36.0000 0 0 0 35.5167 5.8789 A 2.0000 2.0000 0 0 0 33.9776 3.6000 Z" stroke="green" stroke-width="1" fill="none" /><circle cx="27.0000" cy="0.0000" r="1.0000" stroke="green" stroke-width="1" fill="none" /><circle cx="13.5000" cy="-23.3827" r="1.0000" stroke="green" stroke-width="1" fill="none" /><circle cx="-13.5000" cy="-23.3827" r="1.0000" stroke="green" stroke-width="1" fill="none" /><circle cx="-27.0000" cy="-0.0000" r="1.0000" stroke="green" stroke-width="1" fill="none" /><circle cx="-13.5000" cy="23.3827" r="1.0000" stroke="green" stroke-width="1" fill="none" /><circle cx="13.5000" cy="23.3827" r="1.0000" stroke="green" stroke-width="1" fill="none" /></svg>