0
SECTION
2
ENTITIES
0
CIRCLE
8
PARAMETRIX
10
0.0000
20
0.0000
40
37.9731
0
LINE
8
PARAMETRIX
10
33.9776
20
-3.6000
11
26.5660
21
-1.9523
0
ARC
8
PARAMETRIX
10
27.0000
20
0.0000
40
2.0000
50
102.5332
51
257.4668
0
LINE
8
PARAMETRIX
10
26.5660
20
1.9523
11
33.9776
21
3.6000
0
ARC
8
PARAMETRIX
10
33.5436
20
5.5523
40
2.0000
50
282.5332
51
9.3987
0
ARC
8
PARAMETRIX
10
-0.0000
20
-0.0000
40
36.0000
50
9.3987
51
50.6013
0
ARC
8
PARAMETRIX
10
21.5802
20
26.2734
40
2.0000
50
50.6013
51
137.4668
0
LINE
8
PARAMETRIX
10
20.1065
20
27.6255
11
14.9738
21
22.0307
0
ARC
8
PARAMETRIX
10
13.5000
20
23.3827
40
2.0000
50
162.5332
51
317.4668
0
LINE
8
PARAMETRIX
10
11.5922
20
23.9830
11
13.8711
21
31.2254
0
ARC
8
PARAMETRIX
10
11.9634
20
31.8257
40
2.0000
50
342.5332
51
69.3987
0
ARC
8
PARAMETRIX
10
0.0000
20
-0.0000
40
36.0000
50
69.3987
51
110.6013
0
ARC
8
PARAMETRIX
10
-11.9634
20
31.8257
40
2.0000
50
110.6013
51
197.4668
0
LINE
8
PARAMETRIX
10
-13.8711
20
31.2254
11
-11.5922
21
23.9830
0
ARC
8
PARAMETRIX
10
-13.5000
20
23.3827
40
2.0000
50
222.5332
51
17.4668
0
LINE
8
PARAMETRIX
10
-14.9738
20
22.0307
11
-20.1065
21
27.6255
0
ARC
8
PARAMETRIX
10
-21.5802
20
26.2734
40
2.0000
50
42.5332
51
129.3987
0
ARC
8
PARAMETRIX
10
0.0000
20
-0.0000
40
36.0000
50
129.3987
51
170.6013
0
ARC
8
PARAMETRIX
10
-33.5436
20
5.5523
40
2.0000
50
170.6013
51
257.4668
0
LINE
8
PARAMETRIX
10
-33.9776
20
3.6000
11
-26.5660
21
1.9523
0
ARC
8
PARAMETRIX
10
-27.0000
20
0.0000
40
2.0000
50
282.5332
51
77.4668
0
LINE
8
PARAMETRIX
10
-26.5660
20
-1.9523
11
-33.9776
21
-3.6000
0
ARC
8
PARAMETRIX
10
-33.5436
20
-5.5523
40
2.0000
50
102.5332
51
189.3987
0
ARC
8
PARAMETRIX
10
0.0000
20
0.0000
40
36.0000
50
189.3987
51
230.6013
0
ARC
8
PARAMETRIX
10
-21.5802
20
-26.2734
40
2.0000
50
230.6013
51
317.4668
0
LINE
8
PARAMETRIX
10
-20.1065
20
-27.6255
11
-14.9738
21
-22.0307
0
ARC
8
PARAMETRIX
10
-13.5000
20
-23.3827
40
2.0000
50
342.5332
51
137.4668
0
LINE
8
PARAMETRIX
10
-11.5922
20
-23.9830
11
-13.8711
21
-31.2254
0
ARC
8
PARAMETRIX
10
-11.9634
20
-31.8257
40
2.0000
50
162.5332
51
249.3987
0
ARC
8
PARAMETRIX
10
0.0000
20
0.0000
40
36.0000
50
249.3987
51
290.6013
0
ARC
8
PARAMETRIX
10
11.9634
20
-31.8257
40
2.0000
50
290.6013
51
17.4668
0
LINE
8
PARAMETRIX
10
13.8711
20
-31.2254
11
11.5922
21
-23.9830
0
ARC
8
PARAMETRIX
10
13.5000
20
-23.3827
40
2.0000
50
42.5332
51
197.4668
0
LINE
8
PARAMETRIX
10
14.9738
20
-22.0307
11
20.1065
21
-27.6255
0
ARC
8
PARAMETRIX
10
21.5802
20
-26.2734
40
2.0000
50
222.5332
51
309.3987
0
ARC
8
PARAMETRIX
10
-0.0000
20
0.0000
40
36.0000
50
309.3987
51
350.6013
0
ARC
8
PARAMETRIX
10
33.5436
20
-5.5523
40
2.0000
50
350.6013
51
77.4668
0
CIRCLE
8
PARAMETRIX
10
27.0000
20
0.0000
40
1.0000
0
CIRCLE
8
PARAMETRIX
10
13.5000
20
23.3827
40
1.0000
0
CIRCLE
8
PARAMETRIX
10
-13.5000
20
23.3827
40
1.0000
0
CIRCLE
8
PARAMETRIX
10
-27.0000
20
0.0000
40
1.0000
0
CIRCLE
8
PARAMETRIX
10
-13.5000
20
-23.3827
40
1.0000
0
CIRCLE
8
PARAMETRIX
10
13.5000
20
-23.3827
40
1.0000
0
ENDSEC
0
EOF
