0
SECTION
2
ENTITIES
0
CIRCLE
8
PARAMETRIX
10
0.0000
20
0.0000
40
32.9731
0
LINE
8
PARAMETRIX
10
29.3974
20
-3.3593
11
26.1390
21
-1.8052
0
ARC
8
PARAMETRIX
10
27.0000
20
-0.0000
40
2.0000
50
115.4985
51
244.5015
0
LINE
8
PARAMETRIX
10
26.1390
20
1.8052
11
29.3974
21
3.3593
0
ARC
8
PARAMETRIX
10
28.5364
20
5.1645
40
2.0000
50
295.4985
51
10.2582
0
ARC
8
PARAMETRIX
10
0.0000
20
0.0000
40
31.0000
50
10.2582
51
49.7418
0
ARC
8
PARAMETRIX
10
18.7408
20
22.1311
40
2.0000
50
49.7418
51
124.5015
0
LINE
8
PARAMETRIX
10
17.6079
20
23.7793
11
14.6329
21
21.7345
0
ARC
8
PARAMETRIX
10
13.5000
20
23.3827
40
2.0000
50
175.4985
51
304.5015
0
LINE
8
PARAMETRIX
10
11.5062
20
23.5397
11
11.7895
21
27.1385
0
ARC
8
PARAMETRIX
10
9.7957
20
27.2955
40
2.0000
50
355.4985
51
70.2582
0
ARC
8
PARAMETRIX
10
0.0000
20
0.0000
40
31.0000
50
70.2582
51
109.7418
0
ARC
8
PARAMETRIX
10
-9.7957
20
27.2955
40
2.0000
50
109.7418
51
184.5015
0
LINE
8
PARAMETRIX
10
-11.7895
20
27.1385
11
-11.5062
21
23.5397
0
ARC
8
PARAMETRIX
10
-13.5000
20
23.3827
40
2.0000
50
235.4985
51
4.5015
0
LINE
8
PARAMETRIX
10
-14.6329
20
21.7345
11
-17.6079
21
23.7793
0
ARC
8
PARAMETRIX
10
-18.7408
20
22.1311
40
2.0000
50
55.4985
51
130.2582
0
ARC
8
PARAMETRIX
10
-0.0000
20
0.0000
40
31.0000
50
130.2582
51
169.7418
0
ARC
8
PARAMETRIX
10
-28.5364
20
5.1645
40
2.0000
50
169.7418
51
244.5015
0
LINE
8
PARAMETRIX
10
-29.3974
20
3.3593
11
-26.1390
21
1.8052
0
ARC
8
PARAMETRIX
10
-27.0000
20
0.0000
40
2.0000
50
295.4985
51
64.5015
0
LINE
8
PARAMETRIX
10
-26.1390
20
-1.8052
11
-29.3974
21
-3.3593
0
ARC
8
PARAMETRIX
10
-28.5364
20
-5.1645
40
2.0000
50
115.4985
51
190.2582
0
ARC
8
PARAMETRIX
10
-0.0000
20
-0.0000
40
31.0000
50
190.2582
51
229.7418
0
ARC
8
PARAMETRIX
10
-18.7408
20
-22.1311
40
2.0000
50
229.7418
51
304.5015
0
LINE
8
PARAMETRIX
10
-17.6079
20
-23.7793
11
-14.6329
21
-21.7345
0
ARC
8
PARAMETRIX
10
-13.5000
20
-23.3827
40
2.0000
50
355.4985
51
124.5015
0
LINE
8
PARAMETRIX
10
-11.5062
20
-23.5397
11
-11.7895
21
-27.1385
0
ARC
8
PARAMETRIX
10
-9.7957
20
-27.2955
40
2.0000
50
175.4985
51
250.2582
0
ARC
8
PARAMETRIX
10
0.0000
20
-0.0000
40
31.0000
50
250.2582
51
289.7418
0
ARC
8
PARAMETRIX
10
9.7957
20
-27.2955
40
2.0000
50
289.7418
51
4.5015
0
LINE
8
PARAMETRIX
10
11.7895
20
-27.1385
11
11.5062
21
-23.5397
0
ARC
8
PARAMETRIX
10
13.5000
20
-23.3827
40
2.0000
50
55.4985
51
184.5015
0
LINE
8
PARAMETRIX
10
14.6329
20
-21.7345
11
17.6079
21
-23.7793
0
ARC
8
PARAMETRIX
10
18.7408
20
-22.1311
40
2.0000
50
235.4985
51
310.2582
0
ARC
8
PARAMETRIX
10
0.0000
20
-0.0000
40
31.0000
50
310.2582
51
349.7418
0
ARC
8
PARAMETRIX
10
28.5364
20
-5.1645
40
2.0000
50
349.7418
51
64.5015
0
CIRCLE
8
PARAMETRIX
10
27.0000
20
0.0000
40
1.0000
0
CIRCLE
8
PARAMETRIX
10
13.5000
20
23.3827
40
1.0000
0
CIRCLE
8
PARAMETRIX
10
-13.5000
20
23.3827
40
1.0000
0
CIRCLE
8
PARAMETRIX
10
-27.0000
20
0.0000
40
1.0000
0
CIRCLE
8
PARAMETRIX
10
-13.5000
20
-23.3827
40
1.0000
0
CIRCLE
8
PARAMETRIX
10
13.5000
20
-23.3827
40
1.0000
0
ENDSEC
0
EOF
