<svg width="83" height="83" viewBox="-37 -37 83 83" xmlns="http://www.w3.org/2000/svg"><circle cx="0.0000" cy="0.0000" r="32.9731" stroke="green" stroke-width="1" fill="none" /><path d="M 29.3974 3.3593 L 26.1390 1.8052 A 2.0000 2.0000 0 0 1 26.1390 -1.8052 L 29.3974 -3.3593 A 2.0000 2.0000 0 0 0 30.5045 -5.5206 A 31.0000 31.0000 0 0 0 20.0332 -23.6573 A 2.0000 2.0000 0 0 0 17.6079 -23.7793 L 14.6329 -21.7345 A 2.0000 2.0000 0 0 1 11.5062 -23.5397 L 11.7895 -27.1385 A 2.0000 2.0000 0 0 0 10.4712 -29.1780 A 31.0000 31.0000 0 0 0 -10.4712 -29.1780 A 2.0000 2.0000 0 0 0 -11.7895 -27.1385 L -11.5062 -23.5397 A 2.0000 2.0000 0 0 1 -14.6329 -21.7345 L -17.6079 -23.7793 A 2.0000 2.0000 0 0 0 -20.0332 -23.6573 A 31.0000 31.0000 0 0 0 -30.5045 -5.5206 A 2.0000 2.0000 0 0 0 -29.3974 -3.3593 L -26.1390 -1.8052 A 2.0000 2.0000 0 0 1 -26.1390 1.8052 L -29.3974 3.3593 A 2.0000 2.0000 0 0 0 -30.5045 5.5206 A 31.0000 31.0000 0 0 0 -20.0332 23.6573 A 2.0000 2.0000 0 0 0 -17.6079 23.7793 L -14.6329 21.7345 A 2.0000 2.0000 0 0 1 -11.5062 23.5397 L -11.7895 27.1385 A 2.0000 2.0000 0 0 0 -10.4712 29.1780 A 31.0000 31.0000 0 0 0 10.4712 29.1780 A 2.0000 2.0000 0 0 0 11.7895 27.1385 L 11.5062 23.5397 A 2.0000 2.0000 0 0 1 14.6329 21.7345 L 17.6079 23.7793 A 2.0000 2.0000 0 0 0 20.0332 23.6573 A 31.0000 31.0000 0 0 0 30.5045 5.5206 A 2.0000 2.0000 0 0 0 29.3974 3.3593 Z" stroke="green" stroke-width="1" fill="none" /><circle cx="27.0000" cy="0.0000" r="1.0000" stroke="green" stroke-width="1" fill="none" /><circle cx="13.5000" cy="-23.3827" r="1.0000" stroke="green" stroke-width="1" fill="none" /><circle cx="-13.5000" cy="-23.3827" r="1.0000" stroke="green" stroke-width="1" fill="none" /><circle cx="-27.0000" cy="-0.0000" r="1.0000" stroke="green" stroke-width="1" fill="none" /><circle cx="-13.5000" cy="23.3827" r="1.0000" stroke="green" stroke-width="1" fill="none" /><circle cx="13.5000" cy="23.3827" r="1.0000" stroke="green" stroke-width="1" fill="none" /></svg>