<svg width="107" height="107" viewBox="-49 -49 107 107" xmlns="http://www.w3.org/2000/svg"><circle cx="0.0000" cy="0.0000" r="44.0000" stroke="green" stroke-width="1" fill="none" /><circle cx="0.0000" cy="0.0000" r="38.0000" stroke="green" stroke-width="1" fill="none" /><circle cx="40.0000" cy="0.0000" r="1.0000" stroke="green" stroke-width="1" fill="none" /><circle cx="39.2314" cy="-7.8036" r="1.0000" stroke="green" stroke-width="1" fill="none" /><circle cx="36.9552" cy="-15.3073" r="1.0000" stroke="green" stroke-width="1" fill="none" /><circle cx="33.2588" cy="-22.2228" r="1.0000" stroke="green" stroke-width="1" fill="none" /><circle cx="28.2843" cy="-28.2843" r="1.0000" stroke="green" stroke-width="1" fill="none" /><circle cx="22.2228" cy="-33.2588" r="1.0000" stroke="green" stroke-width="1" fill="none" /><circle cx="15.3073" cy="-36.9552" r="1.0000" stroke="green" stroke-width="1" fill="none" /><circle cx="7.8036" cy="-39.2314" r="1.0000" stroke="green" stroke-width="1" fill="none" /><circle cx="0.0000" cy="-40.0000" r="1.0000" stroke="green" stroke-width="1" fill="none" /><circle cx="-7.8036" cy="-39.2314" r="1.0000" stroke="green" stroke-width="1" fill="none" /><circle cx="-15.3073" cy="-36.9552" r="1.0000" stroke="green" stroke-width="1" fill="none" /><circle cx="-22.2228" cy="-33.2588" r="1.0000" stroke="green" stroke-width="1" fill="none" /><circle cx="-28.2843" cy="-28.2843" r="1.0000" stroke="green" stroke-width="1" fill="none" /><circle cx="-33.2588" cy="-22.2228" r="1.0000" stroke="green" stroke-width="1" fill="none" /><circle cx="-36.9552" cy="-15.3073" r="1.0000" stroke="green" stroke-width="1" fill="none" /><circle cx="-39.2314" cy="-7.8036" r="1.0000" stroke="green" stroke-width="1" fill="none" /><circle cx="-40.0000" cy="-0.0000" r="1.0000" stroke="green" stroke-width="1" fill="none" /><circle cx="-39.2314" cy="7.8036" r="1.0000" stroke="green" stroke-width="1" fill="none" /><circle cx="-36.9552" cy="15.3073" r="1.0000" stroke="green" stroke-width="1" fill="none" /><circle cx="-33.2588" cy="22.2228" r="1.0000" stroke="green" stroke-width="1" fill="none" /><circle cx="-28.2843" cy="28.2843" r="1.0000" stroke="green" stroke-width="1" fill="none" /><circle cx="-22.2228" cy="33.2588" r="1.0000" stroke="green" stroke-width="1" fill="none" /><circle cx="-15.3073" cy="36.9552" r="1.0000" stroke="green" stroke-width="1" fill="none" /><circle cx="-7.8036" cy="39.2314" r="1.0000" stroke="green" stroke-width="1" fill="none" /><circle cx="-0.0000" cy="40.0000" r="1.0000" stroke="green" stroke-width="1" fill="none" /><circle cx="7.8036" cy="39.2314" r="1.0000" stroke="green" stroke-width="1" fill="none" /><circle cx="15.3073" cy="36.9552" r="1.0000" stroke="green" stroke-width="1" fill="none" /><circle cx="22.2228" cy="33.2588" r="1.0000" stroke="green" stroke-width="1" fill="none" /><circle cx="28.2843" cy="28.2843" r="1.0000" stroke="green" stroke-width="1" fill="none" /><circle cx="33.2588" cy="22.2228" r="1.0000" stroke="green" stroke-width="1" fill="none" /><circle cx="36.9552" cy="15.3073" r="1.0000" stroke="green" stroke-width="1" fill="none" /><circle cx="39.2314" cy="7.8036" r="1.0000" stroke="green" stroke-width="1" fill="none" /></svg>