0
SECTION
2
ENTITIES
0
LINE
8
PARAMETRIX
10
44.0000
20
0.0000
11
44.0000
21
80.0000
0
LINE
8
PARAMETRIX
10
44.0000
20
80.0000
11
35.0000
21
300.0000
0
LINE
8
PARAMETRIX
10
35.0000
20
300.0000
11
33.0017
21
299.9183
0
LINE
8
PARAMETRIX
10
33.0017
20
299.9183
11
42.0000
21
79.9591
0
LINE
8
PARAMETRIX
10
42.0000
20
79.9591
11
42.0000
21
0.0000
0
LINE
8
PARAMETRIX
10
42.0000
20
0.0000
11
44.0000
21
0.0000
0
CIRCLE
8
PARAMETRIX
10
-44.0000
20
356.0000
40
4.0000
0
CIRCLE
8
PARAMETRIX
10
-44.0000
20
356.0000
40
2.0000
0
CIRCLE
8
PARAMETRIX
10
156.0000
20
495.0000
40
4.0000
0
CIRCLE
8
PARAMETRIX
10
156.0000
20
495.0000
40
2.0000
0
CIRCLE
8
PARAMETRIX
10
0.0000
20
516.0000
40
10.0000
0
CIRCLE
8
PARAMETRIX
10
0.0000
20
516.0000
40
5.0000
0
LINE
8
PARAMETRIX
10
-160.0000
20
523.0000
11
-152.0000
21
523.0000
0
LINE
8
PARAMETRIX
10
-152.0000
20
523.0000
11
-152.0000
21
533.0000
0
LINE
8
PARAMETRIX
10
-152.0000
20
533.0000
11
-160.0000
21
533.0000
0
LINE
8
PARAMETRIX
10
-160.0000
20
533.0000
11
-160.0000
21
523.0000
0
LINE
8
PARAMETRIX
10
-157.0000
20
526.0000
11
-155.0000
21
526.0000
0
LINE
8
PARAMETRIX
10
-155.0000
20
526.0000
11
-155.0000
21
530.0000
0
LINE
8
PARAMETRIX
10
-155.0000
20
530.0000
11
-157.0000
21
530.0000
0
LINE
8
PARAMETRIX
10
-157.0000
20
530.0000
11
-157.0000
21
526.0000
0
LINE
8
PARAMETRIX
10
-58.0000
20
523.0000
11
-50.0000
21
523.0000
0
LINE
8
PARAMETRIX
10
-50.0000
20
523.0000
11
-50.0000
21
533.0000
0
LINE
8
PARAMETRIX
10
-50.0000
20
533.0000
11
-58.0000
21
533.0000
0
LINE
8
PARAMETRIX
10
-58.0000
20
533.0000
11
-58.0000
21
523.0000
0
LINE
8
PARAMETRIX
10
-55.0000
20
526.0000
11
-53.0000
21
526.0000
0
LINE
8
PARAMETRIX
10
-53.0000
20
526.0000
11
-53.0000
21
530.0000
0
LINE
8
PARAMETRIX
10
-53.0000
20
530.0000
11
-55.0000
21
530.0000
0
LINE
8
PARAMETRIX
10
-55.0000
20
530.0000
11
-55.0000
21
526.0000
0
LINE
8
PARAMETRIX
10
50.0000
20
523.0000
11
58.0000
21
523.0000
0
LINE
8
PARAMETRIX
10
58.0000
20
523.0000
11
58.0000
21
533.0000
0
LINE
8
PARAMETRIX
10
58.0000
20
533.0000
11
50.0000
21
533.0000
0
LINE
8
PARAMETRIX
10
50.0000
20
533.0000
11
50.0000
21
523.0000
0
LINE
8
PARAMETRIX
10
53.0000
20
526.0000
11
55.0000
21
526.0000
0
LINE
8
PARAMETRIX
10
55.0000
20
526.0000
11
55.0000
21
530.0000
0
LINE
8
PARAMETRIX
10
55.0000
20
530.0000
11
53.0000
21
530.0000
0
LINE
8
PARAMETRIX
10
53.0000
20
530.0000
11
53.0000
21
526.0000
0
LINE
8
PARAMETRIX
10
152.0000
20
523.0000
11
160.0000
21
523.0000
0
LINE
8
PARAMETRIX
10
160.0000
20
523.0000
11
160.0000
21
533.0000
0
LINE
8
PARAMETRIX
10
160.0000
20
533.0000
11
152.0000
21
533.0000
0
LINE
8
PARAMETRIX
10
152.0000
20
533.0000
11
152.0000
21
523.0000
0
LINE
8
PARAMETRIX
10
155.0000
20
526.0000
11
157.0000
21
526.0000
0
LINE
8
PARAMETRIX
10
157.0000
20
526.0000
11
157.0000
21
530.0000
0
LINE
8
PARAMETRIX
10
157.0000
20
530.0000
11
155.0000
21
530.0000
0
LINE
8
PARAMETRIX
10
155.0000
20
530.0000
11
155.0000
21
526.0000
0
ENDSEC
0
EOF
