<svg width="239" height="142" viewBox="-60 -67 239 142" xmlns="http://www.w3.org/2000/svg"><circle cx="0.0000" cy="0.0000" r="44.0000" stroke="green" stroke-width="1" fill="none" /><circle cx="0.0000" cy="0.0000" r="38.0000" stroke="green" stroke-width="1" fill="none" /><circle cx="40.2969" cy="0.0000" r="0.2969" stroke="green" stroke-width="1" fill="none" /><circle cx="39.5226" cy="-7.8615" r="0.2969" stroke="green" stroke-width="1" fill="none" /><circle cx="37.2295" cy="-15.4209" r="0.2969" stroke="green" stroke-width="1" fill="none" /><circle cx="33.5056" cy="-22.3877" r="0.2969" stroke="green" stroke-width="1" fill="none" /><circle cx="28.4942" cy="-28.4942" r="0.2969" stroke="green" stroke-width="1" fill="none" /><circle cx="22.3877" cy="-33.5056" r="0.2969" stroke="green" stroke-width="1" fill="none" /><circle cx="15.4209" cy="-37.2295" r="0.2969" stroke="green" stroke-width="1" fill="none" /><circle cx="7.8615" cy="-39.5226" r="0.2969" stroke="green" stroke-width="1" fill="none" /><circle cx="0.0000" cy="-40.2969" r="0.2969" stroke="green" stroke-width="1" fill="none" /><circle cx="-7.8615" cy="-39.5226" r="0.2969" stroke="green" stroke-width="1" fill="none" /><circle cx="-15.4209" cy="-37.2295" r="0.2969" stroke="green" stroke-width="1" fill="none" /><circle cx="-22.3877" cy="-33.5056" r="0.2969" stroke="green" stroke-width="1" fill="none" /><circle cx="-28.4942" cy="-28.4942" r="0.2969" stroke="green" stroke-width="1" fill="none" /><circle cx="-33.5056" cy="-22.3877" r="0.2969" stroke="green" stroke-width="1" fill="none" /><circle cx="-37.2295" cy="-15.4209" r="0.2969" stroke="green" stroke-width="1" fill="none" /><circle cx="-39.5226" cy="-7.8615" r="0.2969" stroke="green" stroke-width="1" fill="none" /><circle cx="-40.2969" cy="-0.0000" r="0.2969" stroke="green" stroke-width="1" fill="none" /><circle cx="-39.5226" cy="7.8615" r="0.2969" stroke="green" stroke-width="1" fill="none" /><circle cx="-37.2295" cy="15.4209" r="0.2969" stroke="green" stroke-width="1" fill="none" /><circle cx="-33.5056" cy="22.3877" r="0.2969" stroke="green" stroke-width="1" fill="none" /><circle cx="-28.4942" cy="28.4942" r="0.2969" stroke="green" stroke-width="1" fill="none" /><circle cx="-22.3877" cy="33.5056" r="0.2969" stroke="green" stroke-width="1" fill="none" /><circle cx="-15.4209" cy="37.2295" r="0.2969" stroke="green" stroke-width="1" fill="none" /><circle cx="-7.8615" cy="39.5226" r="0.2969" stroke="green" stroke-width="1" fill="none" /><circle cx="-0.0000" cy="40.2969" r="0.2969" stroke="green" stroke-width="1" fill="none" /><circle cx="7.8615" cy="39.5226" r="0.2969" stroke="green" stroke-width="1" fill="none" /><circle cx="15.4209" cy="37.2295" r="0.2969" stroke="green" stroke-width="1" fill="none" /><circle cx="22.3877" cy="33.5056" r="0.2969" stroke="green" stroke-width="1" fill="none" /><circle cx="28.4942" cy="28.4942" r="0.2969" stroke="green" stroke-width="1" fill="none" /><circle cx="33.5056" cy="22.3877" r="0.2969" stroke="green" stroke-width="1" fill="none" /><circle cx="37.2295" cy="15.4209" r="0.2969" stroke="green" stroke-width="1" fill="none" /><circle cx="39.5226" cy="7.8615" r="0.2969" stroke="green" stroke-width="1" fill="none" /><path d="M -40.0000 60.0000 L -40.0000 -60.0000 L -48.0000 -60.0000 L -48.0000 60.0000 L -40.0000 60.0000 Z" stroke="green" stroke-width="1" fill="none" /><path d="M -42.0000 60.0000 L -42.0000 -60.0000 L -46.0000 -60.0000 L -46.0000 60.0000 L -42.0000 60.0000 Z" stroke="green" stroke-width="1" fill="none" /><path d="M 160.0000 60.0000 L 160.0000 -60.0000 L 152.0000 -60.0000 L 152.0000 60.0000 L 160.0000 60.0000 Z" stroke="green" stroke-width="1" fill="none" /><path d="M 158.0000 60.0000 L 158.0000 -60.0000 L 154.0000 -60.0000 L 154.0000 60.0000 L 158.0000 60.0000 Z" stroke="green" stroke-width="1" fill="none" /><path d="M 0.0000 60.0000 L 156.0000 60.0000 L 156.0000 52.0000 L 0.0000 52.0000 L 0.0000 60.0000 Z" stroke="green" stroke-width="1" fill="none" /><path d="M 0.0000 58.0000 L 156.0000 58.0000 L 156.0000 54.0000 L 0.0000 54.0000 L 0.0000 58.0000 Z" stroke="green" stroke-width="1" fill="none" /><path d="M 0.0000 -52.0000 L 156.0000 -52.0000 L 156.0000 -60.0000 L 0.0000 -60.0000 L 0.0000 -52.0000 Z" stroke="green" stroke-width="1" fill="none" /><path d="M 0.0000 -54.0000 L 156.0000 -54.0000 L 156.0000 -58.0000 L 0.0000 -58.0000 L 0.0000 -54.0000 Z" stroke="green" stroke-width="1" fill="none" /><path d="M 0.0000 48.0000 L 156.0000 48.0000 L 156.0000 40.0000 L 0.0000 40.0000 L 0.0000 48.0000 Z" stroke="green" stroke-width="1" fill="none" /><path d="M 0.0000 46.0000 L 156.0000 46.0000 L 156.0000 42.0000 L 0.0000 42.0000 L 0.0000 46.0000 Z" stroke="green" stroke-width="1" fill="none" /><path d="M 0.0000 -40.0000 L 156.0000 -40.0000 L 156.0000 -48.0000 L 0.0000 -48.0000 L 0.0000 -40.0000 Z" stroke="green" stroke-width="1" fill="none" /><path d="M 0.0000 -42.0000 L 156.0000 -42.0000 L 156.0000 -46.0000 L 0.0000 -46.0000 L 0.0000 -42.0000 Z" stroke="green" stroke-width="1" fill="none" /></svg>