<svg width="384" height="607" viewBox="-189 -30 384 607" xmlns="http://www.w3.org/2000/svg"><path d="M 44.0000 543.0000 L 44.0000 463.0000 L 35.0000 243.0000 L 33.0017 243.0817 L 42.0000 463.0409 L 42.0000 543.0000 L 44.0000 543.0000 Z" stroke="green" stroke-width="1" fill="none" /><circle cx="-56.0000" cy="48.0000" r="4.0000" stroke="green" stroke-width="1" fill="none" /><circle cx="-56.0000" cy="48.0000" r="2.0000" stroke="green" stroke-width="1" fill="none" /><circle cx="56.0000" cy="48.0000" r="4.0000" stroke="green" stroke-width="1" fill="none" /><circle cx="56.0000" cy="48.0000" r="2.0000" stroke="green" stroke-width="1" fill="none" /><path d="M -170.0000 10.0000 L -162.0000 10.0000 L -162.0000 0.0000 L -170.0000 0.0000 L -170.0000 10.0000 Z" stroke="green" stroke-width="1" fill="none" /><path d="M -167.0000 7.0000 L -165.0000 7.0000 L -165.0000 3.0000 L -167.0000 3.0000 L -167.0000 7.0000 Z" stroke="green" stroke-width="1" fill="none" /><path d="M 162.0000 10.0000 L 170.0000 10.0000 L 170.0000 0.0000 L 162.0000 0.0000 L 162.0000 10.0000 Z" stroke="green" stroke-width="1" fill="none" /><path d="M 165.0000 7.0000 L 167.0000 7.0000 L 167.0000 3.0000 L 165.0000 3.0000 L 165.0000 7.0000 Z" stroke="green" stroke-width="1" fill="none" /><path d="M -156.0000 10.0000 L -148.0000 10.0000 L -148.0000 0.0000 L -156.0000 0.0000 L -156.0000 10.0000 Z" stroke="green" stroke-width="1" fill="none" /><path d="M -153.0000 7.0000 L -151.0000 7.0000 L -151.0000 3.0000 L -153.0000 3.0000 L -153.0000 7.0000 Z" stroke="green" stroke-width="1" fill="none" /><path d="M -134.0000 10.0000 L -126.0000 10.0000 L -126.0000 0.0000 L -134.0000 0.0000 L -134.0000 10.0000 Z" stroke="green" stroke-width="1" fill="none" /><path d="M -131.0000 7.0000 L -129.0000 7.0000 L -129.0000 3.0000 L -131.0000 3.0000 L -131.0000 7.0000 Z" stroke="green" stroke-width="1" fill="none" /><path d="M -82.0000 10.0000 L -74.0000 10.0000 L -74.0000 0.0000 L -82.0000 0.0000 L -82.0000 10.0000 Z" stroke="green" stroke-width="1" fill="none" /><path d="M -79.0000 7.0000 L -77.0000 7.0000 L -77.0000 3.0000 L -79.0000 3.0000 L -79.0000 7.0000 Z" stroke="green" stroke-width="1" fill="none" /><path d="M -60.0000 10.0000 L -52.0000 10.0000 L -52.0000 0.0000 L -60.0000 0.0000 L -60.0000 10.0000 Z" stroke="green" stroke-width="1" fill="none" /><path d="M -57.0000 7.0000 L -55.0000 7.0000 L -55.0000 3.0000 L -57.0000 3.0000 L -57.0000 7.0000 Z" stroke="green" stroke-width="1" fill="none" /><path d="M 52.0000 10.0000 L 60.0000 10.0000 L 60.0000 0.0000 L 52.0000 0.0000 L 52.0000 10.0000 Z" stroke="green" stroke-width="1" fill="none" /><path d="M 55.0000 7.0000 L 57.0000 7.0000 L 57.0000 3.0000 L 55.0000 3.0000 L 55.0000 7.0000 Z" stroke="green" stroke-width="1" fill="none" /><path d="M 74.0000 10.0000 L 82.0000 10.0000 L 82.0000 0.0000 L 74.0000 0.0000 L 74.0000 10.0000 Z" stroke="green" stroke-width="1" fill="none" /><path d="M 77.0000 7.0000 L 79.0000 7.0000 L 79.0000 3.0000 L 77.0000 3.0000 L 77.0000 7.0000 Z" stroke="green" stroke-width="1" fill="none" /><path d="M 126.0000 10.0000 L 134.0000 10.0000 L 134.0000 0.0000 L 126.0000 0.0000 L 126.0000 10.0000 Z" stroke="green" stroke-width="1" fill="none" /><path d="M 129.0000 7.0000 L 131.0000 7.0000 L 131.0000 3.0000 L 129.0000 3.0000 L 129.0000 7.0000 Z" stroke="green" stroke-width="1" fill="none" /><path d="M 148.0000 10.0000 L 156.0000 10.0000 L 156.0000 0.0000 L 148.0000 0.0000 L 148.0000 10.0000 Z" stroke="green" stroke-width="1" fill="none" /><path d="M 151.0000 7.0000 L 153.0000 7.0000 L 153.0000 3.0000 L 151.0000 3.0000 L 151.0000 7.0000 Z" stroke="green" stroke-width="1" fill="none" /></svg>