<svg width="362" height="596" viewBox="-178 -30 362 596" xmlns="http://www.w3.org/2000/svg"><path d="M 44.0000 533.0000 L 44.0000 453.0000 L 35.0000 233.0000 L 33.0017 233.0817 L 42.0000 453.0409 L 42.0000 533.0000 L 44.0000 533.0000 Z" stroke="green" stroke-width="1" fill="none" /><circle cx="-44.0000" cy="177.0000" r="4.0000" stroke="green" stroke-width="1" fill="none" /><circle cx="-44.0000" cy="177.0000" r="2.0000" stroke="green" stroke-width="1" fill="none" /><circle cx="156.0000" cy="38.0000" r="4.0000" stroke="green" stroke-width="1" fill="none" /><circle cx="156.0000" cy="38.0000" r="2.0000" stroke="green" stroke-width="1" fill="none" /><circle cx="0.0000" cy="17.0000" r="10.0000" stroke="green" stroke-width="1" fill="none" /><circle cx="0.0000" cy="17.0000" r="5.0000" stroke="green" stroke-width="1" fill="none" /><path d="M -160.0000 10.0000 L -152.0000 10.0000 L -152.0000 0.0000 L -160.0000 0.0000 L -160.0000 10.0000 Z" stroke="green" stroke-width="1" fill="none" /><path d="M -157.0000 7.0000 L -155.0000 7.0000 L -155.0000 3.0000 L -157.0000 3.0000 L -157.0000 7.0000 Z" stroke="green" stroke-width="1" fill="none" /><path d="M -58.0000 10.0000 L -50.0000 10.0000 L -50.0000 0.0000 L -58.0000 0.0000 L -58.0000 10.0000 Z" stroke="green" stroke-width="1" fill="none" /><path d="M -55.0000 7.0000 L -53.0000 7.0000 L -53.0000 3.0000 L -55.0000 3.0000 L -55.0000 7.0000 Z" stroke="green" stroke-width="1" fill="none" /><path d="M 50.0000 10.0000 L 58.0000 10.0000 L 58.0000 0.0000 L 50.0000 0.0000 L 50.0000 10.0000 Z" stroke="green" stroke-width="1" fill="none" /><path d="M 53.0000 7.0000 L 55.0000 7.0000 L 55.0000 3.0000 L 53.0000 3.0000 L 53.0000 7.0000 Z" stroke="green" stroke-width="1" fill="none" /><path d="M 152.0000 10.0000 L 160.0000 10.0000 L 160.0000 0.0000 L 152.0000 0.0000 L 152.0000 10.0000 Z" stroke="green" stroke-width="1" fill="none" /><path d="M 155.0000 7.0000 L 157.0000 7.0000 L 157.0000 3.0000 L 155.0000 3.0000 L 155.0000 7.0000 Z" stroke="green" stroke-width="1" fill="none" /></svg>