0
SECTION
2
ENTITIES
0
CIRCLE
8
PARAMETRIX
10
0.0000
20
0.0000
40
44.0000
0
CIRCLE
8
PARAMETRIX
10
0.0000
20
0.0000
40
38.0000
0
CIRCLE
8
PARAMETRIX
10
40.2969
20
0.0000
40
0.2969
0
CIRCLE
8
PARAMETRIX
10
39.5226
20
7.8615
40
0.2969
0
CIRCLE
8
PARAMETRIX
10
37.2295
20
15.4209
40
0.2969
0
CIRCLE
8
PARAMETRIX
10
33.5056
20
22.3877
40
0.2969
0
CIRCLE
8
PARAMETRIX
10
28.4942
20
28.4942
40
0.2969
0
CIRCLE
8
PARAMETRIX
10
22.3877
20
33.5056
40
0.2969
0
CIRCLE
8
PARAMETRIX
10
15.4209
20
37.2295
40
0.2969
0
CIRCLE
8
PARAMETRIX
10
7.8615
20
39.5226
40
0.2969
0
CIRCLE
8
PARAMETRIX
10
0.0000
20
40.2969
40
0.2969
0
CIRCLE
8
PARAMETRIX
10
-7.8615
20
39.5226
40
0.2969
0
CIRCLE
8
PARAMETRIX
10
-15.4209
20
37.2295
40
0.2969
0
CIRCLE
8
PARAMETRIX
10
-22.3877
20
33.5056
40
0.2969
0
CIRCLE
8
PARAMETRIX
10
-28.4942
20
28.4942
40
0.2969
0
CIRCLE
8
PARAMETRIX
10
-33.5056
20
22.3877
40
0.2969
0
CIRCLE
8
PARAMETRIX
10
-37.2295
20
15.4209
40
0.2969
0
CIRCLE
8
PARAMETRIX
10
-39.5226
20
7.8615
40
0.2969
0
CIRCLE
8
PARAMETRIX
10
-40.2969
20
0.0000
40
0.2969
0
CIRCLE
8
PARAMETRIX
10
-39.5226
20
-7.8615
40
0.2969
0
CIRCLE
8
PARAMETRIX
10
-37.2295
20
-15.4209
40
0.2969
0
CIRCLE
8
PARAMETRIX
10
-33.5056
20
-22.3877
40
0.2969
0
CIRCLE
8
PARAMETRIX
10
-28.4942
20
-28.4942
40
0.2969
0
CIRCLE
8
PARAMETRIX
10
-22.3877
20
-33.5056
40
0.2969
0
CIRCLE
8
PARAMETRIX
10
-15.4209
20
-37.2295
40
0.2969
0
CIRCLE
8
PARAMETRIX
10
-7.8615
20
-39.5226
40
0.2969
0
CIRCLE
8
PARAMETRIX
10
-0.0000
20
-40.2969
40
0.2969
0
CIRCLE
8
PARAMETRIX
10
7.8615
20
-39.5226
40
0.2969
0
CIRCLE
8
PARAMETRIX
10
15.4209
20
-37.2295
40
0.2969
0
CIRCLE
8
PARAMETRIX
10
22.3877
20
-33.5056
40
0.2969
0
CIRCLE
8
PARAMETRIX
10
28.4942
20
-28.4942
40
0.2969
0
CIRCLE
8
PARAMETRIX
10
33.5056
20
-22.3877
40
0.2969
0
CIRCLE
8
PARAMETRIX
10
37.2295
20
-15.4209
40
0.2969
0
CIRCLE
8
PARAMETRIX
10
39.5226
20
-7.8615
40
0.2969
0
LINE
8
PARAMETRIX
10
-40.0000
20
-60.0000
11
-40.0000
21
60.0000
0
LINE
8
PARAMETRIX
10
-40.0000
20
60.0000
11
-48.0000
21
60.0000
0
LINE
8
PARAMETRIX
10
-48.0000
20
60.0000
11
-48.0000
21
-60.0000
0
LINE
8
PARAMETRIX
10
-48.0000
20
-60.0000
11
-40.0000
21
-60.0000
0
LINE
8
PARAMETRIX
10
-42.0000
20
-60.0000
11
-42.0000
21
60.0000
0
LINE
8
PARAMETRIX
10
-42.0000
20
60.0000
11
-46.0000
21
60.0000
0
LINE
8
PARAMETRIX
10
-46.0000
20
60.0000
11
-46.0000
21
-60.0000
0
LINE
8
PARAMETRIX
10
-46.0000
20
-60.0000
11
-42.0000
21
-60.0000
0
LINE
8
PARAMETRIX
10
160.0000
20
-60.0000
11
160.0000
21
60.0000
0
LINE
8
PARAMETRIX
10
160.0000
20
60.0000
11
152.0000
21
60.0000
0
LINE
8
PARAMETRIX
10
152.0000
20
60.0000
11
152.0000
21
-60.0000
0
LINE
8
PARAMETRIX
10
152.0000
20
-60.0000
11
160.0000
21
-60.0000
0
LINE
8
PARAMETRIX
10
158.0000
20
-60.0000
11
158.0000
21
60.0000
0
LINE
8
PARAMETRIX
10
158.0000
20
60.0000
11
154.0000
21
60.0000
0
LINE
8
PARAMETRIX
10
154.0000
20
60.0000
11
154.0000
21
-60.0000
0
LINE
8
PARAMETRIX
10
154.0000
20
-60.0000
11
158.0000
21
-60.0000
0
LINE
8
PARAMETRIX
10
0.0000
20
-60.0000
11
156.0000
21
-60.0000
0
LINE
8
PARAMETRIX
10
156.0000
20
-60.0000
11
156.0000
21
-52.0000
0
LINE
8
PARAMETRIX
10
156.0000
20
-52.0000
11
0.0000
21
-52.0000
0
LINE
8
PARAMETRIX
10
0.0000
20
-52.0000
11
0.0000
21
-60.0000
0
LINE
8
PARAMETRIX
10
0.0000
20
-58.0000
11
156.0000
21
-58.0000
0
LINE
8
PARAMETRIX
10
156.0000
20
-58.0000
11
156.0000
21
-54.0000
0
LINE
8
PARAMETRIX
10
156.0000
20
-54.0000
11
0.0000
21
-54.0000
0
LINE
8
PARAMETRIX
10
0.0000
20
-54.0000
11
0.0000
21
-58.0000
0
LINE
8
PARAMETRIX
10
0.0000
20
52.0000
11
156.0000
21
52.0000
0
LINE
8
PARAMETRIX
10
156.0000
20
52.0000
11
156.0000
21
60.0000
0
LINE
8
PARAMETRIX
10
156.0000
20
60.0000
11
0.0000
21
60.0000
0
LINE
8
PARAMETRIX
10
0.0000
20
60.0000
11
0.0000
21
52.0000
0
LINE
8
PARAMETRIX
10
0.0000
20
54.0000
11
156.0000
21
54.0000
0
LINE
8
PARAMETRIX
10
156.0000
20
54.0000
11
156.0000
21
58.0000
0
LINE
8
PARAMETRIX
10
156.0000
20
58.0000
11
0.0000
21
58.0000
0
LINE
8
PARAMETRIX
10
0.0000
20
58.0000
11
0.0000
21
54.0000
0
LINE
8
PARAMETRIX
10
0.0000
20
-48.0000
11
156.0000
21
-48.0000
0
LINE
8
PARAMETRIX
10
156.0000
20
-48.0000
11
156.0000
21
-40.0000
0
LINE
8
PARAMETRIX
10
156.0000
20
-40.0000
11
0.0000
21
-40.0000
0
LINE
8
PARAMETRIX
10
0.0000
20
-40.0000
11
0.0000
21
-48.0000
0
LINE
8
PARAMETRIX
10
0.0000
20
-46.0000
11
156.0000
21
-46.0000
0
LINE
8
PARAMETRIX
10
156.0000
20
-46.0000
11
156.0000
21
-42.0000
0
LINE
8
PARAMETRIX
10
156.0000
20
-42.0000
11
0.0000
21
-42.0000
0
LINE
8
PARAMETRIX
10
0.0000
20
-42.0000
11
0.0000
21
-46.0000
0
LINE
8
PARAMETRIX
10
0.0000
20
40.0000
11
156.0000
21
40.0000
0
LINE
8
PARAMETRIX
10
156.0000
20
40.0000
11
156.0000
21
48.0000
0
LINE
8
PARAMETRIX
10
156.0000
20
48.0000
11
0.0000
21
48.0000
0
LINE
8
PARAMETRIX
10
0.0000
20
48.0000
11
0.0000
21
40.0000
0
LINE
8
PARAMETRIX
10
0.0000
20
42.0000
11
156.0000
21
42.0000
0
LINE
8
PARAMETRIX
10
156.0000
20
42.0000
11
156.0000
21
46.0000
0
LINE
8
PARAMETRIX
10
156.0000
20
46.0000
11
0.0000
21
46.0000
0
LINE
8
PARAMETRIX
10
0.0000
20
46.0000
11
0.0000
21
42.0000
0
ENDSEC
0
EOF
