0
SECTION
2
ENTITIES
0
LINE
8
PARAMETRIX
10
44.0000
20
0.0000
11
44.0000
21
80.0000
0
LINE
8
PARAMETRIX
10
44.0000
20
80.0000
11
35.0000
21
300.0000
0
LINE
8
PARAMETRIX
10
35.0000
20
300.0000
11
33.0017
21
299.9183
0
LINE
8
PARAMETRIX
10
33.0017
20
299.9183
11
42.0000
21
79.9591
0
LINE
8
PARAMETRIX
10
42.0000
20
79.9591
11
42.0000
21
0.0000
0
LINE
8
PARAMETRIX
10
42.0000
20
0.0000
11
44.0000
21
0.0000
0
CIRCLE
8
PARAMETRIX
10
-56.0000
20
495.0000
40
4.0000
0
CIRCLE
8
PARAMETRIX
10
-56.0000
20
495.0000
40
2.0000
0
CIRCLE
8
PARAMETRIX
10
56.0000
20
495.0000
40
4.0000
0
CIRCLE
8
PARAMETRIX
10
56.0000
20
495.0000
40
2.0000
0
LINE
8
PARAMETRIX
10
-170.0000
20
533.0000
11
-162.0000
21
533.0000
0
LINE
8
PARAMETRIX
10
-162.0000
20
533.0000
11
-162.0000
21
543.0000
0
LINE
8
PARAMETRIX
10
-162.0000
20
543.0000
11
-170.0000
21
543.0000
0
LINE
8
PARAMETRIX
10
-170.0000
20
543.0000
11
-170.0000
21
533.0000
0
LINE
8
PARAMETRIX
10
-167.0000
20
536.0000
11
-165.0000
21
536.0000
0
LINE
8
PARAMETRIX
10
-165.0000
20
536.0000
11
-165.0000
21
540.0000
0
LINE
8
PARAMETRIX
10
-165.0000
20
540.0000
11
-167.0000
21
540.0000
0
LINE
8
PARAMETRIX
10
-167.0000
20
540.0000
11
-167.0000
21
536.0000
0
LINE
8
PARAMETRIX
10
162.0000
20
533.0000
11
170.0000
21
533.0000
0
LINE
8
PARAMETRIX
10
170.0000
20
533.0000
11
170.0000
21
543.0000
0
LINE
8
PARAMETRIX
10
170.0000
20
543.0000
11
162.0000
21
543.0000
0
LINE
8
PARAMETRIX
10
162.0000
20
543.0000
11
162.0000
21
533.0000
0
LINE
8
PARAMETRIX
10
165.0000
20
536.0000
11
167.0000
21
536.0000
0
LINE
8
PARAMETRIX
10
167.0000
20
536.0000
11
167.0000
21
540.0000
0
LINE
8
PARAMETRIX
10
167.0000
20
540.0000
11
165.0000
21
540.0000
0
LINE
8
PARAMETRIX
10
165.0000
20
540.0000
11
165.0000
21
536.0000
0
LINE
8
PARAMETRIX
10
-156.0000
20
533.0000
11
-148.0000
21
533.0000
0
LINE
8
PARAMETRIX
10
-148.0000
20
533.0000
11
-148.0000
21
543.0000
0
LINE
8
PARAMETRIX
10
-148.0000
20
543.0000
11
-156.0000
21
543.0000
0
LINE
8
PARAMETRIX
10
-156.0000
20
543.0000
11
-156.0000
21
533.0000
0
LINE
8
PARAMETRIX
10
-153.0000
20
536.0000
11
-151.0000
21
536.0000
0
LINE
8
PARAMETRIX
10
-151.0000
20
536.0000
11
-151.0000
21
540.0000
0
LINE
8
PARAMETRIX
10
-151.0000
20
540.0000
11
-153.0000
21
540.0000
0
LINE
8
PARAMETRIX
10
-153.0000
20
540.0000
11
-153.0000
21
536.0000
0
LINE
8
PARAMETRIX
10
-134.0000
20
533.0000
11
-126.0000
21
533.0000
0
LINE
8
PARAMETRIX
10
-126.0000
20
533.0000
11
-126.0000
21
543.0000
0
LINE
8
PARAMETRIX
10
-126.0000
20
543.0000
11
-134.0000
21
543.0000
0
LINE
8
PARAMETRIX
10
-134.0000
20
543.0000
11
-134.0000
21
533.0000
0
LINE
8
PARAMETRIX
10
-131.0000
20
536.0000
11
-129.0000
21
536.0000
0
LINE
8
PARAMETRIX
10
-129.0000
20
536.0000
11
-129.0000
21
540.0000
0
LINE
8
PARAMETRIX
10
-129.0000
20
540.0000
11
-131.0000
21
540.0000
0
LINE
8
PARAMETRIX
10
-131.0000
20
540.0000
11
-131.0000
21
536.0000
0
LINE
8
PARAMETRIX
10
-82.0000
20
533.0000
11
-74.0000
21
533.0000
0
LINE
8
PARAMETRIX
10
-74.0000
20
533.0000
11
-74.0000
21
543.0000
0
LINE
8
PARAMETRIX
10
-74.0000
20
543.0000
11
-82.0000
21
543.0000
0
LINE
8
PARAMETRIX
10
-82.0000
20
543.0000
11
-82.0000
21
533.0000
0
LINE
8
PARAMETRIX
10
-79.0000
20
536.0000
11
-77.0000
21
536.0000
0
LINE
8
PARAMETRIX
10
-77.0000
20
536.0000
11
-77.0000
21
540.0000
0
LINE
8
PARAMETRIX
10
-77.0000
20
540.0000
11
-79.0000
21
540.0000
0
LINE
8
PARAMETRIX
10
-79.0000
20
540.0000
11
-79.0000
21
536.0000
0
LINE
8
PARAMETRIX
10
-60.0000
20
533.0000
11
-52.0000
21
533.0000
0
LINE
8
PARAMETRIX
10
-52.0000
20
533.0000
11
-52.0000
21
543.0000
0
LINE
8
PARAMETRIX
10
-52.0000
20
543.0000
11
-60.0000
21
543.0000
0
LINE
8
PARAMETRIX
10
-60.0000
20
543.0000
11
-60.0000
21
533.0000
0
LINE
8
PARAMETRIX
10
-57.0000
20
536.0000
11
-55.0000
21
536.0000
0
LINE
8
PARAMETRIX
10
-55.0000
20
536.0000
11
-55.0000
21
540.0000
0
LINE
8
PARAMETRIX
10
-55.0000
20
540.0000
11
-57.0000
21
540.0000
0
LINE
8
PARAMETRIX
10
-57.0000
20
540.0000
11
-57.0000
21
536.0000
0
LINE
8
PARAMETRIX
10
52.0000
20
533.0000
11
60.0000
21
533.0000
0
LINE
8
PARAMETRIX
10
60.0000
20
533.0000
11
60.0000
21
543.0000
0
LINE
8
PARAMETRIX
10
60.0000
20
543.0000
11
52.0000
21
543.0000
0
LINE
8
PARAMETRIX
10
52.0000
20
543.0000
11
52.0000
21
533.0000
0
LINE
8
PARAMETRIX
10
55.0000
20
536.0000
11
57.0000
21
536.0000
0
LINE
8
PARAMETRIX
10
57.0000
20
536.0000
11
57.0000
21
540.0000
0
LINE
8
PARAMETRIX
10
57.0000
20
540.0000
11
55.0000
21
540.0000
0
LINE
8
PARAMETRIX
10
55.0000
20
540.0000
11
55.0000
21
536.0000
0
LINE
8
PARAMETRIX
10
74.0000
20
533.0000
11
82.0000
21
533.0000
0
LINE
8
PARAMETRIX
10
82.0000
20
533.0000
11
82.0000
21
543.0000
0
LINE
8
PARAMETRIX
10
82.0000
20
543.0000
11
74.0000
21
543.0000
0
LINE
8
PARAMETRIX
10
74.0000
20
543.0000
11
74.0000
21
533.0000
0
LINE
8
PARAMETRIX
10
77.0000
20
536.0000
11
79.0000
21
536.0000
0
LINE
8
PARAMETRIX
10
79.0000
20
536.0000
11
79.0000
21
540.0000
0
LINE
8
PARAMETRIX
10
79.0000
20
540.0000
11
77.0000
21
540.0000
0
LINE
8
PARAMETRIX
10
77.0000
20
540.0000
11
77.0000
21
536.0000
0
LINE
8
PARAMETRIX
10
126.0000
20
533.0000
11
134.0000
21
533.0000
0
LINE
8
PARAMETRIX
10
134.0000
20
533.0000
11
134.0000
21
543.0000
0
LINE
8
PARAMETRIX
10
134.0000
20
543.0000
11
126.0000
21
543.0000
0
LINE
8
PARAMETRIX
10
126.0000
20
543.0000
11
126.0000
21
533.0000
0
LINE
8
PARAMETRIX
10
129.0000
20
536.0000
11
131.0000
21
536.0000
0
LINE
8
PARAMETRIX
10
131.0000
20
536.0000
11
131.0000
21
540.0000
0
LINE
8
PARAMETRIX
10
131.0000
20
540.0000
11
129.0000
21
540.0000
0
LINE
8
PARAMETRIX
10
129.0000
20
540.0000
11
129.0000
21
536.0000
0
LINE
8
PARAMETRIX
10
148.0000
20
533.0000
11
156.0000
21
533.0000
0
LINE
8
PARAMETRIX
10
156.0000
20
533.0000
11
156.0000
21
543.0000
0
LINE
8
PARAMETRIX
10
156.0000
20
543.0000
11
148.0000
21
543.0000
0
LINE
8
PARAMETRIX
10
148.0000
20
543.0000
11
148.0000
21
533.0000
0
LINE
8
PARAMETRIX
10
151.0000
20
536.0000
11
153.0000
21
536.0000
0
LINE
8
PARAMETRIX
10
153.0000
20
536.0000
11
153.0000
21
540.0000
0
LINE
8
PARAMETRIX
10
153.0000
20
540.0000
11
151.0000
21
540.0000
0
LINE
8
PARAMETRIX
10
151.0000
20
540.0000
11
151.0000
21
536.0000
0
ENDSEC
0
EOF
