<svg width="101" height="101" viewBox="-47 -47 101 101" xmlns="http://www.w3.org/2000/svg"><circle cx="0.0000" cy="0.0000" r="41.5483" stroke="green" stroke-width="1" fill="none" /><path d="M 36.5875 3.8447 L 31.3013 1.8740 A 2.0000 2.0000 0 0 1 31.3013 -1.8740 L 36.5875 -3.8447 A 4.0000 4.0000 0 0 0 39.1002 -8.4364 A 40.0000 40.0000 0 0 0 26.8562 -29.6436 A 4.0000 4.0000 0 0 0 21.6234 -29.7633 L 17.2736 -26.1708 A 2.0000 2.0000 0 0 1 14.0277 -28.0448 L 14.9641 -33.6081 A 4.0000 4.0000 0 0 0 12.2440 -38.0800 A 40.0000 40.0000 0 0 0 -12.2440 -38.0800 A 4.0000 4.0000 0 0 0 -14.9641 -33.6081 L -14.0277 -28.0448 A 2.0000 2.0000 0 0 1 -17.2736 -26.1708 L -21.6234 -29.7633 A 4.0000 4.0000 0 0 0 -26.8562 -29.6436 A 40.0000 40.0000 0 0 0 -39.1002 -8.4364 A 4.0000 4.0000 0 0 0 -36.5875 -3.8447 L -31.3013 -1.8740 A 2.0000 2.0000 0 0 1 -31.3013 1.8740 L -36.5875 3.8447 A 4.0000 4.0000 0 0 0 -39.1002 8.4364 A 40.0000 40.0000 0 0 0 -26.8562 29.6436 A 4.0000 4.0000 0 0 0 -21.6234 29.7633 L -17.2736 26.1708 A 2.0000 2.0000 0 0 1 -14.0277 28.0448 L -14.9641 33.6081 A 4.0000 4.0000 0 0 0 -12.2440 38.0800 A 40.0000 40.0000 0 0 0 12.2440 38.0800 A 4.0000 4.0000 0 0 0 14.9641 33.6081 L 14.0277 28.0448 A 2.0000 2.0000 0 0 1 17.2736 26.1708 L 21.6234 29.7633 A 4.0000 4.0000 0 0 0 26.8562 29.6436 A 40.0000 40.0000 0 0 0 39.1002 8.4364 A 4.0000 4.0000 0 0 0 36.5875 3.8447 Z" stroke="green" stroke-width="1" fill="none" /><circle cx="32.0000" cy="0.0000" r="1.0000" stroke="green" stroke-width="1" fill="none" /><circle cx="16.0000" cy="-27.7128" r="1.0000" stroke="green" stroke-width="1" fill="none" /><circle cx="-16.0000" cy="-27.7128" r="1.0000" stroke="green" stroke-width="1" fill="none" /><circle cx="-32.0000" cy="-0.0000" r="1.0000" stroke="green" stroke-width="1" fill="none" /><circle cx="-16.0000" cy="27.7128" r="1.0000" stroke="green" stroke-width="1" fill="none" /><circle cx="16.0000" cy="27.7128" r="1.0000" stroke="green" stroke-width="1" fill="none" /></svg>