0
SECTION
2
ENTITIES
0
CIRCLE
8
PARAMETRIX
10
0.0000
20
0.0000
40
41.5483
0
LINE
8
PARAMETRIX
10
36.5875
20
-3.8447
11
31.3013
21
-1.8740
0
ARC
8
PARAMETRIX
10
32.0000
20
-0.0000
40
2.0000
50
110.4460
51
249.5540
0
LINE
8
PARAMETRIX
10
31.3013
20
1.8740
11
36.5875
21
3.8447
0
ARC
8
PARAMETRIX
10
35.1902
20
7.5927
40
4.0000
50
290.4460
51
12.1757
0
ARC
8
PARAMETRIX
10
-0.0000
20
-0.0000
40
40.0000
50
12.1757
51
47.8243
0
ARC
8
PARAMETRIX
10
24.1706
20
26.6792
40
4.0000
50
47.8243
51
129.5540
0
LINE
8
PARAMETRIX
10
21.6234
20
29.7633
11
17.2736
21
26.1708
0
ARC
8
PARAMETRIX
10
16.0000
20
27.7128
40
2.0000
50
170.4460
51
309.5540
0
LINE
8
PARAMETRIX
10
14.0277
20
28.0448
11
14.9641
21
33.6081
0
ARC
8
PARAMETRIX
10
11.0196
20
34.2720
40
4.0000
50
350.4460
51
72.1757
0
ARC
8
PARAMETRIX
10
-0.0000
20
-0.0000
40
40.0000
50
72.1757
51
107.8243
0
ARC
8
PARAMETRIX
10
-11.0196
20
34.2720
40
4.0000
50
107.8243
51
189.5540
0
LINE
8
PARAMETRIX
10
-14.9641
20
33.6081
11
-14.0277
21
28.0448
0
ARC
8
PARAMETRIX
10
-16.0000
20
27.7128
40
2.0000
50
230.4460
51
9.5540
0
LINE
8
PARAMETRIX
10
-17.2736
20
26.1708
11
-21.6234
21
29.7633
0
ARC
8
PARAMETRIX
10
-24.1706
20
26.6792
40
4.0000
50
50.4460
51
132.1757
0
ARC
8
PARAMETRIX
10
0.0000
20
-0.0000
40
40.0000
50
132.1757
51
167.8243
0
ARC
8
PARAMETRIX
10
-35.1902
20
7.5927
40
4.0000
50
167.8243
51
249.5540
0
LINE
8
PARAMETRIX
10
-36.5875
20
3.8447
11
-31.3013
21
1.8740
0
ARC
8
PARAMETRIX
10
-32.0000
20
0.0000
40
2.0000
50
290.4460
51
69.5540
0
LINE
8
PARAMETRIX
10
-31.3013
20
-1.8740
11
-36.5875
21
-3.8447
0
ARC
8
PARAMETRIX
10
-35.1902
20
-7.5927
40
4.0000
50
110.4460
51
192.1757
0
ARC
8
PARAMETRIX
10
0.0000
20
0.0000
40
40.0000
50
192.1757
51
227.8243
0
ARC
8
PARAMETRIX
10
-24.1706
20
-26.6792
40
4.0000
50
227.8243
51
309.5540
0
LINE
8
PARAMETRIX
10
-21.6234
20
-29.7633
11
-17.2736
21
-26.1708
0
ARC
8
PARAMETRIX
10
-16.0000
20
-27.7128
40
2.0000
50
350.4460
51
129.5540
0
LINE
8
PARAMETRIX
10
-14.0277
20
-28.0448
11
-14.9641
21
-33.6081
0
ARC
8
PARAMETRIX
10
-11.0196
20
-34.2720
40
4.0000
50
170.4460
51
252.1757
0
ARC
8
PARAMETRIX
10
0.0000
20
0.0000
40
40.0000
50
252.1757
51
287.8243
0
ARC
8
PARAMETRIX
10
11.0196
20
-34.2720
40
4.0000
50
287.8243
51
9.5540
0
LINE
8
PARAMETRIX
10
14.9641
20
-33.6081
11
14.0277
21
-28.0448
0
ARC
8
PARAMETRIX
10
16.0000
20
-27.7128
40
2.0000
50
50.4460
51
189.5540
0
LINE
8
PARAMETRIX
10
17.2736
20
-26.1708
11
21.6234
21
-29.7633
0
ARC
8
PARAMETRIX
10
24.1706
20
-26.6792
40
4.0000
50
230.4460
51
312.1757
0
ARC
8
PARAMETRIX
10
-0.0000
20
0.0000
40
40.0000
50
312.1757
51
347.8243
0
ARC
8
PARAMETRIX
10
35.1902
20
-7.5927
40
4.0000
50
347.8243
51
69.5540
0
CIRCLE
8
PARAMETRIX
10
32.0000
20
0.0000
40
1.0000
0
CIRCLE
8
PARAMETRIX
10
16.0000
20
27.7128
40
1.0000
0
CIRCLE
8
PARAMETRIX
10
-16.0000
20
27.7128
40
1.0000
0
CIRCLE
8
PARAMETRIX
10
-32.0000
20
0.0000
40
1.0000
0
CIRCLE
8
PARAMETRIX
10
-16.0000
20
-27.7128
40
1.0000
0
CIRCLE
8
PARAMETRIX
10
16.0000
20
-27.7128
40
1.0000
0
ENDSEC
0
EOF
