<svg width="83" height="83" viewBox="-38 -38 83 83" xmlns="http://www.w3.org/2000/svg"><circle cx="0.0000" cy="0.0000" r="33.3665" stroke="green" stroke-width="1" fill="none" /><path d="M 29.4812 3.5935 L 26.0574 1.7639 A 2.0000 2.0000 0 0 1 26.0574 -1.7639 L 29.4812 -3.5935 A 4.0000 4.0000 0 0 0 31.4690 -8.1209 A 32.5000 32.5000 0 0 0 22.7674 -23.1925 A 4.0000 4.0000 0 0 0 17.8527 -23.7347 L 14.5563 -21.6844 A 2.0000 2.0000 0 0 1 11.5011 -23.4483 L 11.6285 -27.3282 A 4.0000 4.0000 0 0 0 8.7016 -31.3135 A 32.5000 32.5000 0 0 0 -8.7016 -31.3135 A 4.0000 4.0000 0 0 0 -11.6285 -27.3282 L -11.5011 -23.4483 A 2.0000 2.0000 0 0 1 -14.5563 -21.6844 L -17.8527 -23.7347 A 4.0000 4.0000 0 0 0 -22.7674 -23.1925 A 32.5000 32.5000 0 0 0 -31.4690 -8.1209 A 4.0000 4.0000 0 0 0 -29.4812 -3.5935 L -26.0574 -1.7639 A 2.0000 2.0000 0 0 1 -26.0574 1.7639 L -29.4812 3.5935 A 4.0000 4.0000 0 0 0 -31.4690 8.1209 A 32.5000 32.5000 0 0 0 -22.7674 23.1925 A 4.0000 4.0000 0 0 0 -17.8527 23.7347 L -14.5563 21.6844 A 2.0000 2.0000 0 0 1 -11.5011 23.4483 L -11.6285 27.3282 A 4.0000 4.0000 0 0 0 -8.7016 31.3135 A 32.5000 32.5000 0 0 0 8.7016 31.3135 A 4.0000 4.0000 0 0 0 11.6285 27.3282 L 11.5011 23.4483 A 2.0000 2.0000 0 0 1 14.5563 21.6844 L 17.8527 23.7347 A 4.0000 4.0000 0 0 0 22.7674 23.1925 A 32.5000 32.5000 0 0 0 31.4690 8.1209 A 4.0000 4.0000 0 0 0 29.4812 3.5935 Z" stroke="green" stroke-width="1" fill="none" /><circle cx="27.0000" cy="0.0000" r="1.0000" stroke="green" stroke-width="1" fill="none" /><circle cx="13.5000" cy="-23.3827" r="1.0000" stroke="green" stroke-width="1" fill="none" /><circle cx="-13.5000" cy="-23.3827" r="1.0000" stroke="green" stroke-width="1" fill="none" /><circle cx="-27.0000" cy="-0.0000" r="1.0000" stroke="green" stroke-width="1" fill="none" /><circle cx="-13.5000" cy="23.3827" r="1.0000" stroke="green" stroke-width="1" fill="none" /><circle cx="13.5000" cy="23.3827" r="1.0000" stroke="green" stroke-width="1" fill="none" /></svg>