0
SECTION
2
ENTITIES
0
CIRCLE
8
PARAMETRIX
10
0.0000
20
0.0000
40
39.9120
0
LINE
8
PARAMETRIX
10
34.1305
20
-4.0294
11
26.4710
21
-1.9288
0
ARC
8
PARAMETRIX
10
27.0000
20
-0.0000
40
2.0000
50
105.3363
51
254.6637
0
LINE
8
PARAMETRIX
10
26.4710
20
1.9288
11
34.1305
21
4.0294
0
ARC
8
PARAMETRIX
10
33.0726
20
7.8870
40
4.0000
50
285.3363
51
13.4130
0
ARC
8
PARAMETRIX
10
0.0000
20
-0.0000
40
38.0000
50
13.4130
51
46.5870
0
ARC
8
PARAMETRIX
10
23.3666
20
24.6982
40
4.0000
50
46.5870
51
134.6637
0
LINE
8
PARAMETRIX
10
20.5548
20
27.5432
11
14.9059
21
21.9602
0
ARC
8
PARAMETRIX
10
13.5000
20
23.3827
40
2.0000
50
165.3363
51
314.6637
0
LINE
8
PARAMETRIX
10
11.5651
20
23.8890
11
13.5757
21
31.5726
0
ARC
8
PARAMETRIX
10
9.7060
20
32.5852
40
4.0000
50
345.3363
51
73.4130
0
ARC
8
PARAMETRIX
10
-0.0000
20
-0.0000
40
38.0000
50
73.4130
51
106.5870
0
ARC
8
PARAMETRIX
10
-9.7060
20
32.5852
40
4.0000
50
106.5870
51
194.6637
0
LINE
8
PARAMETRIX
10
-13.5757
20
31.5726
11
-11.5651
21
23.8890
0
ARC
8
PARAMETRIX
10
-13.5000
20
23.3827
40
2.0000
50
225.3363
51
14.6637
0
LINE
8
PARAMETRIX
10
-14.9059
20
21.9602
11
-20.5548
21
27.5432
0
ARC
8
PARAMETRIX
10
-23.3666
20
24.6982
40
4.0000
50
45.3363
51
133.4130
0
ARC
8
PARAMETRIX
10
0.0000
20
0.0000
40
38.0000
50
133.4130
51
166.5870
0
ARC
8
PARAMETRIX
10
-33.0726
20
7.8870
40
4.0000
50
166.5870
51
254.6637
0
LINE
8
PARAMETRIX
10
-34.1305
20
4.0294
11
-26.4710
21
1.9288
0
ARC
8
PARAMETRIX
10
-27.0000
20
0.0000
40
2.0000
50
285.3363
51
74.6637
0
LINE
8
PARAMETRIX
10
-26.4710
20
-1.9288
11
-34.1305
21
-4.0294
0
ARC
8
PARAMETRIX
10
-33.0726
20
-7.8870
40
4.0000
50
105.3363
51
193.4130
0
ARC
8
PARAMETRIX
10
0.0000
20
0.0000
40
38.0000
50
193.4130
51
226.5870
0
ARC
8
PARAMETRIX
10
-23.3666
20
-24.6982
40
4.0000
50
226.5870
51
314.6637
0
LINE
8
PARAMETRIX
10
-20.5548
20
-27.5432
11
-14.9059
21
-21.9602
0
ARC
8
PARAMETRIX
10
-13.5000
20
-23.3827
40
2.0000
50
345.3363
51
134.6637
0
LINE
8
PARAMETRIX
10
-11.5651
20
-23.8890
11
-13.5757
21
-31.5726
0
ARC
8
PARAMETRIX
10
-9.7060
20
-32.5852
40
4.0000
50
165.3363
51
253.4130
0
ARC
8
PARAMETRIX
10
0.0000
20
0.0000
40
38.0000
50
253.4130
51
286.5870
0
ARC
8
PARAMETRIX
10
9.7060
20
-32.5852
40
4.0000
50
286.5870
51
14.6637
0
LINE
8
PARAMETRIX
10
13.5757
20
-31.5726
11
11.5651
21
-23.8890
0
ARC
8
PARAMETRIX
10
13.5000
20
-23.3827
40
2.0000
50
45.3363
51
194.6637
0
LINE
8
PARAMETRIX
10
14.9059
20
-21.9602
11
20.5548
21
-27.5432
0
ARC
8
PARAMETRIX
10
23.3666
20
-24.6982
40
4.0000
50
225.3363
51
313.4130
0
ARC
8
PARAMETRIX
10
0.0000
20
0.0000
40
38.0000
50
313.4130
51
346.5870
0
ARC
8
PARAMETRIX
10
33.0726
20
-7.8870
40
4.0000
50
346.5870
51
74.6637
0
CIRCLE
8
PARAMETRIX
10
27.0000
20
0.0000
40
1.0000
0
CIRCLE
8
PARAMETRIX
10
13.5000
20
23.3827
40
1.0000
0
CIRCLE
8
PARAMETRIX
10
-13.5000
20
23.3827
40
1.0000
0
CIRCLE
8
PARAMETRIX
10
-27.0000
20
0.0000
40
1.0000
0
CIRCLE
8
PARAMETRIX
10
-13.5000
20
-23.3827
40
1.0000
0
CIRCLE
8
PARAMETRIX
10
13.5000
20
-23.3827
40
1.0000
0
ENDSEC
0
EOF
