<svg width="98" height="98" viewBox="-45 -45 98 98" xmlns="http://www.w3.org/2000/svg"><circle cx="0.0000" cy="0.0000" r="39.9120" stroke="green" stroke-width="1" fill="none" /><path d="M 34.1305 4.0294 L 26.4710 1.9288 A 2.0000 2.0000 0 0 1 26.4710 -1.9288 L 34.1305 -4.0294 A 4.0000 4.0000 0 0 0 36.9635 -8.8148 A 38.0000 38.0000 0 0 0 26.1156 -27.6039 A 4.0000 4.0000 0 0 0 20.5548 -27.5432 L 14.9059 -21.9602 A 2.0000 2.0000 0 0 1 11.5651 -23.8890 L 13.5757 -31.5726 A 4.0000 4.0000 0 0 0 10.8479 -36.4187 A 38.0000 38.0000 0 0 0 -10.8479 -36.4187 A 4.0000 4.0000 0 0 0 -13.5757 -31.5726 L -11.5651 -23.8890 A 2.0000 2.0000 0 0 1 -14.9059 -21.9602 L -20.5548 -27.5432 A 4.0000 4.0000 0 0 0 -26.1156 -27.6039 A 38.0000 38.0000 0 0 0 -36.9635 -8.8148 A 4.0000 4.0000 0 0 0 -34.1305 -4.0294 L -26.4710 -1.9288 A 2.0000 2.0000 0 0 1 -26.4710 1.9288 L -34.1305 4.0294 A 4.0000 4.0000 0 0 0 -36.9635 8.8148 A 38.0000 38.0000 0 0 0 -26.1156 27.6039 A 4.0000 4.0000 0 0 0 -20.5548 27.5432 L -14.9059 21.9602 A 2.0000 2.0000 0 0 1 -11.5651 23.8890 L -13.5757 31.5726 A 4.0000 4.0000 0 0 0 -10.8479 36.4187 A 38.0000 38.0000 0 0 0 10.8479 36.4187 A 4.0000 4.0000 0 0 0 13.5757 31.5726 L 11.5651 23.8890 A 2.0000 2.0000 0 0 1 14.9059 21.9602 L 20.5548 27.5432 A 4.0000 4.0000 0 0 0 26.1156 27.6039 A 38.0000 38.0000 0 0 0 36.9635 8.8148 A 4.0000 4.0000 0 0 0 34.1305 4.0294 Z" stroke="green" stroke-width="1" fill="none" /><circle cx="27.0000" cy="0.0000" r="1.0000" stroke="green" stroke-width="1" fill="none" /><circle cx="13.5000" cy="-23.3827" r="1.0000" stroke="green" stroke-width="1" fill="none" /><circle cx="-13.5000" cy="-23.3827" r="1.0000" stroke="green" stroke-width="1" fill="none" /><circle cx="-27.0000" cy="-0.0000" r="1.0000" stroke="green" stroke-width="1" fill="none" /><circle cx="-13.5000" cy="23.3827" r="1.0000" stroke="green" stroke-width="1" fill="none" /><circle cx="13.5000" cy="23.3827" r="1.0000" stroke="green" stroke-width="1" fill="none" /></svg>