0
SECTION
2
ENTITIES
0
CIRCLE
8
PARAMETRIX
10
0.0000
20
0.0000
40
33.3665
0
LINE
8
PARAMETRIX
10
29.4812
20
-3.5935
11
26.0574
21
-1.7639
0
ARC
8
PARAMETRIX
10
27.0000
20
0.0000
40
2.0000
50
118.1193
51
241.8807
0
LINE
8
PARAMETRIX
10
26.0574
20
1.7639
11
29.4812
21
3.5935
0
ARC
8
PARAMETRIX
10
27.5959
20
7.1214
40
4.0000
50
298.1193
51
14.4701
0
ARC
8
PARAMETRIX
10
0.0000
20
0.0000
40
32.5000
50
14.4701
51
45.5299
0
ARC
8
PARAMETRIX
10
19.9653
20
20.3381
40
4.0000
50
45.5299
51
121.8807
0
LINE
8
PARAMETRIX
10
17.8527
20
23.7347
11
14.5563
21
21.6844
0
ARC
8
PARAMETRIX
10
13.5000
20
23.3827
40
2.0000
50
178.1193
51
301.8807
0
LINE
8
PARAMETRIX
10
11.5011
20
23.4483
11
11.6285
21
27.3282
0
ARC
8
PARAMETRIX
10
7.6306
20
27.4595
40
4.0000
50
358.1193
51
74.4701
0
ARC
8
PARAMETRIX
10
-0.0000
20
0.0000
40
32.5000
50
74.4701
51
105.5299
0
ARC
8
PARAMETRIX
10
-7.6306
20
27.4595
40
4.0000
50
105.5299
51
181.8807
0
LINE
8
PARAMETRIX
10
-11.6285
20
27.3282
11
-11.5011
21
23.4483
0
ARC
8
PARAMETRIX
10
-13.5000
20
23.3827
40
2.0000
50
238.1193
51
1.8807
0
LINE
8
PARAMETRIX
10
-14.5563
20
21.6844
11
-17.8527
21
23.7347
0
ARC
8
PARAMETRIX
10
-19.9653
20
20.3381
40
4.0000
50
58.1193
51
134.4701
0
ARC
8
PARAMETRIX
10
-0.0000
20
0.0000
40
32.5000
50
134.4701
51
165.5299
0
ARC
8
PARAMETRIX
10
-27.5959
20
7.1214
40
4.0000
50
165.5299
51
241.8807
0
LINE
8
PARAMETRIX
10
-29.4812
20
3.5935
11
-26.0574
21
1.7639
0
ARC
8
PARAMETRIX
10
-27.0000
20
0.0000
40
2.0000
50
298.1193
51
61.8807
0
LINE
8
PARAMETRIX
10
-26.0574
20
-1.7639
11
-29.4812
21
-3.5935
0
ARC
8
PARAMETRIX
10
-27.5959
20
-7.1214
40
4.0000
50
118.1193
51
194.4701
0
ARC
8
PARAMETRIX
10
-0.0000
20
-0.0000
40
32.5000
50
194.4701
51
225.5299
0
ARC
8
PARAMETRIX
10
-19.9653
20
-20.3381
40
4.0000
50
225.5299
51
301.8807
0
LINE
8
PARAMETRIX
10
-17.8527
20
-23.7347
11
-14.5563
21
-21.6844
0
ARC
8
PARAMETRIX
10
-13.5000
20
-23.3827
40
2.0000
50
358.1193
51
121.8807
0
LINE
8
PARAMETRIX
10
-11.5011
20
-23.4483
11
-11.6285
21
-27.3282
0
ARC
8
PARAMETRIX
10
-7.6306
20
-27.4595
40
4.0000
50
178.1193
51
254.4701
0
ARC
8
PARAMETRIX
10
0.0000
20
-0.0000
40
32.5000
50
254.4701
51
285.5299
0
ARC
8
PARAMETRIX
10
7.6306
20
-27.4595
40
4.0000
50
285.5299
51
1.8807
0
LINE
8
PARAMETRIX
10
11.6285
20
-27.3282
11
11.5011
21
-23.4483
0
ARC
8
PARAMETRIX
10
13.5000
20
-23.3827
40
2.0000
50
58.1193
51
181.8807
0
LINE
8
PARAMETRIX
10
14.5563
20
-21.6844
11
17.8527
21
-23.7347
0
ARC
8
PARAMETRIX
10
19.9653
20
-20.3381
40
4.0000
50
238.1193
51
314.4701
0
ARC
8
PARAMETRIX
10
0.0000
20
-0.0000
40
32.5000
50
314.4701
51
345.5299
0
ARC
8
PARAMETRIX
10
27.5959
20
-7.1214
40
4.0000
50
345.5299
51
61.8807
0
CIRCLE
8
PARAMETRIX
10
27.0000
20
0.0000
40
1.0000
0
CIRCLE
8
PARAMETRIX
10
13.5000
20
23.3827
40
1.0000
0
CIRCLE
8
PARAMETRIX
10
-13.5000
20
23.3827
40
1.0000
0
CIRCLE
8
PARAMETRIX
10
-27.0000
20
0.0000
40
1.0000
0
CIRCLE
8
PARAMETRIX
10
-13.5000
20
-23.3827
40
1.0000
0
CIRCLE
8
PARAMETRIX
10
13.5000
20
-23.3827
40
1.0000
0
ENDSEC
0
EOF
