0
SECTION
2
ENTITIES
0
LINE
8
PARAMETRIX
10
27.9800
20
-3.3068
11
32.5796
21
-1.9142
0
ARC
8
PARAMETRIX
10
32.0000
20
-0.0000
40
2.0000
50
286.8448
51
73.1552
0
LINE
8
PARAMETRIX
10
32.5796
20
1.9142
11
27.9800
21
3.3068
0
ARC
8
PARAMETRIX
10
29.1391
20
7.1352
40
4.0000
50
193.7590
51
253.1552
0
ARC
8
PARAMETRIX
10
-0.0000
20
0.0000
40
26.0000
50
13.7590
51
46.2410
0
ARC
8
PARAMETRIX
10
20.7488
20
21.6677
40
4.0000
50
166.8448
51
226.2410
0
LINE
8
PARAMETRIX
10
16.8538
20
22.5780
11
17.9475
21
27.2576
0
ARC
8
PARAMETRIX
10
16.0000
20
27.7128
40
2.0000
50
346.8448
51
133.1552
0
LINE
8
PARAMETRIX
10
14.6320
20
29.1718
11
11.1262
21
25.8848
0
ARC
8
PARAMETRIX
10
8.3903
20
28.8028
40
4.0000
50
253.7590
51
313.1552
0
ARC
8
PARAMETRIX
10
0.0000
20
-0.0000
40
26.0000
50
73.7590
51
106.2410
0
ARC
8
PARAMETRIX
10
-8.3903
20
28.8028
40
4.0000
50
226.8448
51
286.2410
0
LINE
8
PARAMETRIX
10
-11.1262
20
25.8848
11
-14.6320
21
29.1718
0
ARC
8
PARAMETRIX
10
-16.0000
20
27.7128
40
2.0000
50
46.8448
51
193.1552
0
LINE
8
PARAMETRIX
10
-17.9475
20
27.2576
11
-16.8538
21
22.5780
0
ARC
8
PARAMETRIX
10
-20.7488
20
21.6677
40
4.0000
50
313.7590
51
13.1552
0
ARC
8
PARAMETRIX
10
0.0000
20
-0.0000
40
26.0000
50
133.7590
51
166.2410
0
ARC
8
PARAMETRIX
10
-29.1391
20
7.1352
40
4.0000
50
286.8448
51
346.2410
0
LINE
8
PARAMETRIX
10
-27.9800
20
3.3068
11
-32.5796
21
1.9142
0
ARC
8
PARAMETRIX
10
-32.0000
20
0.0000
40
2.0000
50
106.8448
51
253.1552
0
LINE
8
PARAMETRIX
10
-32.5796
20
-1.9142
11
-27.9800
21
-3.3068
0
ARC
8
PARAMETRIX
10
-29.1391
20
-7.1352
40
4.0000
50
13.7590
51
73.1552
0
ARC
8
PARAMETRIX
10
0.0000
20
-0.0000
40
26.0000
50
193.7590
51
226.2410
0
ARC
8
PARAMETRIX
10
-20.7488
20
-21.6677
40
4.0000
50
346.8448
51
46.2410
0
LINE
8
PARAMETRIX
10
-16.8538
20
-22.5780
11
-17.9475
21
-27.2576
0
ARC
8
PARAMETRIX
10
-16.0000
20
-27.7128
40
2.0000
50
166.8448
51
313.1552
0
LINE
8
PARAMETRIX
10
-14.6320
20
-29.1718
11
-11.1262
21
-25.8848
0
ARC
8
PARAMETRIX
10
-8.3903
20
-28.8028
40
4.0000
50
73.7590
51
133.1552
0
ARC
8
PARAMETRIX
10
0.0000
20
0.0000
40
26.0000
50
253.7590
51
286.2410
0
ARC
8
PARAMETRIX
10
8.3903
20
-28.8028
40
4.0000
50
46.8448
51
106.2410
0
LINE
8
PARAMETRIX
10
11.1262
20
-25.8848
11
14.6320
21
-29.1718
0
ARC
8
PARAMETRIX
10
16.0000
20
-27.7128
40
2.0000
50
226.8448
51
13.1552
0
LINE
8
PARAMETRIX
10
17.9475
20
-27.2576
11
16.8538
21
-22.5780
0
ARC
8
PARAMETRIX
10
20.7488
20
-21.6677
40
4.0000
50
133.7590
51
193.1552
0
ARC
8
PARAMETRIX
10
0.0000
20
0.0000
40
26.0000
50
313.7590
51
346.2410
0
ARC
8
PARAMETRIX
10
29.1391
20
-7.1352
40
4.0000
50
106.8448
51
166.2410
0
CIRCLE
8
PARAMETRIX
10
0.0000
20
0.0000
40
15.0000
0
CIRCLE
8
PARAMETRIX
10
18.0000
20
0.0000
40
2.0000
0
CIRCLE
8
PARAMETRIX
10
12.7279
20
12.7279
40
2.0000
0
CIRCLE
8
PARAMETRIX
10
0.0000
20
18.0000
40
2.0000
0
CIRCLE
8
PARAMETRIX
10
-12.7279
20
12.7279
40
2.0000
0
CIRCLE
8
PARAMETRIX
10
-18.0000
20
0.0000
40
2.0000
0
CIRCLE
8
PARAMETRIX
10
-12.7279
20
-12.7279
40
2.0000
0
CIRCLE
8
PARAMETRIX
10
-0.0000
20
-18.0000
40
2.0000
0
CIRCLE
8
PARAMETRIX
10
12.7279
20
-12.7279
40
2.0000
0
CIRCLE
8
PARAMETRIX
10
32.0000
20
0.0000
40
1.0000
0
CIRCLE
8
PARAMETRIX
10
16.0000
20
27.7128
40
1.0000
0
CIRCLE
8
PARAMETRIX
10
-16.0000
20
27.7128
40
1.0000
0
CIRCLE
8
PARAMETRIX
10
-32.0000
20
0.0000
40
1.0000
0
CIRCLE
8
PARAMETRIX
10
-16.0000
20
-27.7128
40
1.0000
0
CIRCLE
8
PARAMETRIX
10
16.0000
20
-27.7128
40
1.0000
0
ENDSEC
0
EOF
