<svg width="85" height="75" viewBox="-38 -33 85 75" xmlns="http://www.w3.org/2000/svg"><path d="M 27.9800 3.3068 L 32.5796 1.9142 A 2.0000 2.0000 0 0 0 32.5796 -1.9142 L 27.9800 -3.3068 A 4.0000 4.0000 0 0 1 25.2539 -6.1838 A 26.0000 26.0000 0 0 0 17.9823 -18.7786 A 4.0000 4.0000 0 0 1 16.8538 -22.5780 L 17.9475 -27.2576 A 2.0000 2.0000 0 0 0 14.6320 -29.1718 L 11.1262 -25.8848 A 4.0000 4.0000 0 0 1 7.2716 -24.9624 A 26.0000 26.0000 0 0 0 -7.2716 -24.9624 A 4.0000 4.0000 0 0 1 -11.1262 -25.8848 L -14.6320 -29.1718 A 2.0000 2.0000 0 0 0 -17.9475 -27.2576 L -16.8538 -22.5780 A 4.0000 4.0000 0 0 1 -17.9823 -18.7786 A 26.0000 26.0000 0 0 0 -25.2539 -6.1838 A 4.0000 4.0000 0 0 1 -27.9800 -3.3068 L -32.5796 -1.9142 A 2.0000 2.0000 0 0 0 -32.5796 1.9142 L -27.9800 3.3068 A 4.0000 4.0000 0 0 1 -25.2539 6.1838 A 26.0000 26.0000 0 0 0 -17.9823 18.7786 A 4.0000 4.0000 0 0 1 -16.8538 22.5780 L -17.9475 27.2576 A 2.0000 2.0000 0 0 0 -14.6320 29.1718 L -11.1262 25.8848 A 4.0000 4.0000 0 0 1 -7.2716 24.9624 A 26.0000 26.0000 0 0 0 7.2716 24.9624 A 4.0000 4.0000 0 0 1 11.1262 25.8848 L 14.6320 29.1718 A 2.0000 2.0000 0 0 0 17.9475 27.2576 L 16.8538 22.5780 A 4.0000 4.0000 0 0 1 17.9823 18.7786 A 26.0000 26.0000 0 0 0 25.2539 6.1838 A 4.0000 4.0000 0 0 1 27.9800 3.3068 Z" stroke="green" stroke-width="1" fill="none" /><circle cx="0.0000" cy="-0.0000" r="15.0000" stroke="green" stroke-width="1" fill="none" /><circle cx="18.0000" cy="-0.0000" r="2.0000" stroke="green" stroke-width="1" fill="none" /><circle cx="12.7279" cy="-12.7279" r="2.0000" stroke="green" stroke-width="1" fill="none" /><circle cx="0.0000" cy="-18.0000" r="2.0000" stroke="green" stroke-width="1" fill="none" /><circle cx="-12.7279" cy="-12.7279" r="2.0000" stroke="green" stroke-width="1" fill="none" /><circle cx="-18.0000" cy="-0.0000" r="2.0000" stroke="green" stroke-width="1" fill="none" /><circle cx="-12.7279" cy="12.7279" r="2.0000" stroke="green" stroke-width="1" fill="none" /><circle cx="-0.0000" cy="18.0000" r="2.0000" stroke="green" stroke-width="1" fill="none" /><circle cx="12.7279" cy="12.7279" r="2.0000" stroke="green" stroke-width="1" fill="none" /><circle cx="32.0000" cy="-0.0000" r="1.0000" stroke="green" stroke-width="1" fill="none" /><circle cx="16.0000" cy="-27.7128" r="1.0000" stroke="green" stroke-width="1" fill="none" /><circle cx="-16.0000" cy="-27.7128" r="1.0000" stroke="green" stroke-width="1" fill="none" /><circle cx="-32.0000" cy="-0.0000" r="1.0000" stroke="green" stroke-width="1" fill="none" /><circle cx="-16.0000" cy="27.7128" r="1.0000" stroke="green" stroke-width="1" fill="none" /><circle cx="16.0000" cy="27.7128" r="1.0000" stroke="green" stroke-width="1" fill="none" /></svg>