0
SECTION
2
ENTITIES
0
CIRCLE
8
PARAMETRIX
10
0.0000
20
0.0000
40
10.0000
0
CIRCLE
8
PARAMETRIX
10
0.0000
20
0.0000
40
8.0000
0
LINE
8
PARAMETRIX
10
-160.0000
20
7.0000
11
-152.0000
21
7.0000
0
LINE
8
PARAMETRIX
10
-152.0000
20
7.0000
11
-152.0000
21
17.0000
0
LINE
8
PARAMETRIX
10
-152.0000
20
17.0000
11
-160.0000
21
17.0000
0
LINE
8
PARAMETRIX
10
-160.0000
20
17.0000
11
-160.0000
21
7.0000
0
LINE
8
PARAMETRIX
10
-158.0000
20
9.0000
11
-154.0000
21
9.0000
0
LINE
8
PARAMETRIX
10
-154.0000
20
9.0000
11
-154.0000
21
15.0000
0
LINE
8
PARAMETRIX
10
-154.0000
20
15.0000
11
-158.0000
21
15.0000
0
LINE
8
PARAMETRIX
10
-158.0000
20
15.0000
11
-158.0000
21
9.0000
0
LINE
8
PARAMETRIX
10
-88.0000
20
7.0000
11
-80.0000
21
7.0000
0
LINE
8
PARAMETRIX
10
-80.0000
20
7.0000
11
-80.0000
21
17.0000
0
LINE
8
PARAMETRIX
10
-80.0000
20
17.0000
11
-88.0000
21
17.0000
0
LINE
8
PARAMETRIX
10
-88.0000
20
17.0000
11
-88.0000
21
7.0000
0
LINE
8
PARAMETRIX
10
-86.0000
20
9.0000
11
-82.0000
21
9.0000
0
LINE
8
PARAMETRIX
10
-82.0000
20
9.0000
11
-82.0000
21
15.0000
0
LINE
8
PARAMETRIX
10
-82.0000
20
15.0000
11
-86.0000
21
15.0000
0
LINE
8
PARAMETRIX
10
-86.0000
20
15.0000
11
-86.0000
21
9.0000
0
LINE
8
PARAMETRIX
10
80.0000
20
7.0000
11
88.0000
21
7.0000
0
LINE
8
PARAMETRIX
10
88.0000
20
7.0000
11
88.0000
21
17.0000
0
LINE
8
PARAMETRIX
10
88.0000
20
17.0000
11
80.0000
21
17.0000
0
LINE
8
PARAMETRIX
10
80.0000
20
17.0000
11
80.0000
21
7.0000
0
LINE
8
PARAMETRIX
10
82.0000
20
9.0000
11
86.0000
21
9.0000
0
LINE
8
PARAMETRIX
10
86.0000
20
9.0000
11
86.0000
21
15.0000
0
LINE
8
PARAMETRIX
10
86.0000
20
15.0000
11
82.0000
21
15.0000
0
LINE
8
PARAMETRIX
10
82.0000
20
15.0000
11
82.0000
21
9.0000
0
LINE
8
PARAMETRIX
10
152.0000
20
7.0000
11
160.0000
21
7.0000
0
LINE
8
PARAMETRIX
10
160.0000
20
7.0000
11
160.0000
21
17.0000
0
LINE
8
PARAMETRIX
10
160.0000
20
17.0000
11
152.0000
21
17.0000
0
LINE
8
PARAMETRIX
10
152.0000
20
17.0000
11
152.0000
21
7.0000
0
LINE
8
PARAMETRIX
10
154.0000
20
9.0000
11
158.0000
21
9.0000
0
LINE
8
PARAMETRIX
10
158.0000
20
9.0000
11
158.0000
21
15.0000
0
LINE
8
PARAMETRIX
10
158.0000
20
15.0000
11
154.0000
21
15.0000
0
LINE
8
PARAMETRIX
10
154.0000
20
15.0000
11
154.0000
21
9.0000
0
ENDSEC
0
EOF
