0
SECTION
2
ENTITIES
0
LINE
8
PARAMETRIX
10
-170.0000
20
17.0000
11
-162.0000
21
17.0000
0
LINE
8
PARAMETRIX
10
-162.0000
20
17.0000
11
-162.0000
21
27.0000
0
LINE
8
PARAMETRIX
10
-162.0000
20
27.0000
11
-170.0000
21
27.0000
0
LINE
8
PARAMETRIX
10
-170.0000
20
27.0000
11
-170.0000
21
17.0000
0
LINE
8
PARAMETRIX
10
-168.0000
20
19.0000
11
-164.0000
21
19.0000
0
LINE
8
PARAMETRIX
10
-164.0000
20
19.0000
11
-164.0000
21
25.0000
0
LINE
8
PARAMETRIX
10
-164.0000
20
25.0000
11
-168.0000
21
25.0000
0
LINE
8
PARAMETRIX
10
-168.0000
20
25.0000
11
-168.0000
21
19.0000
0
LINE
8
PARAMETRIX
10
162.0000
20
17.0000
11
170.0000
21
17.0000
0
LINE
8
PARAMETRIX
10
170.0000
20
17.0000
11
170.0000
21
27.0000
0
LINE
8
PARAMETRIX
10
170.0000
20
27.0000
11
162.0000
21
27.0000
0
LINE
8
PARAMETRIX
10
162.0000
20
27.0000
11
162.0000
21
17.0000
0
LINE
8
PARAMETRIX
10
164.0000
20
19.0000
11
168.0000
21
19.0000
0
LINE
8
PARAMETRIX
10
168.0000
20
19.0000
11
168.0000
21
25.0000
0
LINE
8
PARAMETRIX
10
168.0000
20
25.0000
11
164.0000
21
25.0000
0
LINE
8
PARAMETRIX
10
164.0000
20
25.0000
11
164.0000
21
19.0000
0
LINE
8
PARAMETRIX
10
-156.0000
20
17.0000
11
-148.0000
21
17.0000
0
LINE
8
PARAMETRIX
10
-148.0000
20
17.0000
11
-148.0000
21
27.0000
0
LINE
8
PARAMETRIX
10
-148.0000
20
27.0000
11
-156.0000
21
27.0000
0
LINE
8
PARAMETRIX
10
-156.0000
20
27.0000
11
-156.0000
21
17.0000
0
LINE
8
PARAMETRIX
10
-154.0000
20
19.0000
11
-150.0000
21
19.0000
0
LINE
8
PARAMETRIX
10
-150.0000
20
19.0000
11
-150.0000
21
25.0000
0
LINE
8
PARAMETRIX
10
-150.0000
20
25.0000
11
-154.0000
21
25.0000
0
LINE
8
PARAMETRIX
10
-154.0000
20
25.0000
11
-154.0000
21
19.0000
0
LINE
8
PARAMETRIX
10
-134.0000
20
17.0000
11
-126.0000
21
17.0000
0
LINE
8
PARAMETRIX
10
-126.0000
20
17.0000
11
-126.0000
21
27.0000
0
LINE
8
PARAMETRIX
10
-126.0000
20
27.0000
11
-134.0000
21
27.0000
0
LINE
8
PARAMETRIX
10
-134.0000
20
27.0000
11
-134.0000
21
17.0000
0
LINE
8
PARAMETRIX
10
-132.0000
20
19.0000
11
-128.0000
21
19.0000
0
LINE
8
PARAMETRIX
10
-128.0000
20
19.0000
11
-128.0000
21
25.0000
0
LINE
8
PARAMETRIX
10
-128.0000
20
25.0000
11
-132.0000
21
25.0000
0
LINE
8
PARAMETRIX
10
-132.0000
20
25.0000
11
-132.0000
21
19.0000
0
LINE
8
PARAMETRIX
10
-82.0000
20
17.0000
11
-74.0000
21
17.0000
0
LINE
8
PARAMETRIX
10
-74.0000
20
17.0000
11
-74.0000
21
27.0000
0
LINE
8
PARAMETRIX
10
-74.0000
20
27.0000
11
-82.0000
21
27.0000
0
LINE
8
PARAMETRIX
10
-82.0000
20
27.0000
11
-82.0000
21
17.0000
0
LINE
8
PARAMETRIX
10
-80.0000
20
19.0000
11
-76.0000
21
19.0000
0
LINE
8
PARAMETRIX
10
-76.0000
20
19.0000
11
-76.0000
21
25.0000
0
LINE
8
PARAMETRIX
10
-76.0000
20
25.0000
11
-80.0000
21
25.0000
0
LINE
8
PARAMETRIX
10
-80.0000
20
25.0000
11
-80.0000
21
19.0000
0
LINE
8
PARAMETRIX
10
-60.0000
20
17.0000
11
-52.0000
21
17.0000
0
LINE
8
PARAMETRIX
10
-52.0000
20
17.0000
11
-52.0000
21
27.0000
0
LINE
8
PARAMETRIX
10
-52.0000
20
27.0000
11
-60.0000
21
27.0000
0
LINE
8
PARAMETRIX
10
-60.0000
20
27.0000
11
-60.0000
21
17.0000
0
LINE
8
PARAMETRIX
10
-58.0000
20
19.0000
11
-54.0000
21
19.0000
0
LINE
8
PARAMETRIX
10
-54.0000
20
19.0000
11
-54.0000
21
25.0000
0
LINE
8
PARAMETRIX
10
-54.0000
20
25.0000
11
-58.0000
21
25.0000
0
LINE
8
PARAMETRIX
10
-58.0000
20
25.0000
11
-58.0000
21
19.0000
0
LINE
8
PARAMETRIX
10
52.0000
20
17.0000
11
60.0000
21
17.0000
0
LINE
8
PARAMETRIX
10
60.0000
20
17.0000
11
60.0000
21
27.0000
0
LINE
8
PARAMETRIX
10
60.0000
20
27.0000
11
52.0000
21
27.0000
0
LINE
8
PARAMETRIX
10
52.0000
20
27.0000
11
52.0000
21
17.0000
0
LINE
8
PARAMETRIX
10
54.0000
20
19.0000
11
58.0000
21
19.0000
0
LINE
8
PARAMETRIX
10
58.0000
20
19.0000
11
58.0000
21
25.0000
0
LINE
8
PARAMETRIX
10
58.0000
20
25.0000
11
54.0000
21
25.0000
0
LINE
8
PARAMETRIX
10
54.0000
20
25.0000
11
54.0000
21
19.0000
0
LINE
8
PARAMETRIX
10
74.0000
20
17.0000
11
82.0000
21
17.0000
0
LINE
8
PARAMETRIX
10
82.0000
20
17.0000
11
82.0000
21
27.0000
0
LINE
8
PARAMETRIX
10
82.0000
20
27.0000
11
74.0000
21
27.0000
0
LINE
8
PARAMETRIX
10
74.0000
20
27.0000
11
74.0000
21
17.0000
0
LINE
8
PARAMETRIX
10
76.0000
20
19.0000
11
80.0000
21
19.0000
0
LINE
8
PARAMETRIX
10
80.0000
20
19.0000
11
80.0000
21
25.0000
0
LINE
8
PARAMETRIX
10
80.0000
20
25.0000
11
76.0000
21
25.0000
0
LINE
8
PARAMETRIX
10
76.0000
20
25.0000
11
76.0000
21
19.0000
0
LINE
8
PARAMETRIX
10
126.0000
20
17.0000
11
134.0000
21
17.0000
0
LINE
8
PARAMETRIX
10
134.0000
20
17.0000
11
134.0000
21
27.0000
0
LINE
8
PARAMETRIX
10
134.0000
20
27.0000
11
126.0000
21
27.0000
0
LINE
8
PARAMETRIX
10
126.0000
20
27.0000
11
126.0000
21
17.0000
0
LINE
8
PARAMETRIX
10
128.0000
20
19.0000
11
132.0000
21
19.0000
0
LINE
8
PARAMETRIX
10
132.0000
20
19.0000
11
132.0000
21
25.0000
0
LINE
8
PARAMETRIX
10
132.0000
20
25.0000
11
128.0000
21
25.0000
0
LINE
8
PARAMETRIX
10
128.0000
20
25.0000
11
128.0000
21
19.0000
0
LINE
8
PARAMETRIX
10
148.0000
20
17.0000
11
156.0000
21
17.0000
0
LINE
8
PARAMETRIX
10
156.0000
20
17.0000
11
156.0000
21
27.0000
0
LINE
8
PARAMETRIX
10
156.0000
20
27.0000
11
148.0000
21
27.0000
0
LINE
8
PARAMETRIX
10
148.0000
20
27.0000
11
148.0000
21
17.0000
0
LINE
8
PARAMETRIX
10
150.0000
20
19.0000
11
154.0000
21
19.0000
0
LINE
8
PARAMETRIX
10
154.0000
20
19.0000
11
154.0000
21
25.0000
0
LINE
8
PARAMETRIX
10
154.0000
20
25.0000
11
150.0000
21
25.0000
0
LINE
8
PARAMETRIX
10
150.0000
20
25.0000
11
150.0000
21
19.0000
0
ENDSEC
0
EOF
