<svg width="384" height="21" viewBox="-189 16 384 21" xmlns="http://www.w3.org/2000/svg"><path d="M -170.0000 27.0000 L -162.0000 27.0000 L -162.0000 17.0000 L -170.0000 17.0000 L -170.0000 27.0000 Z" stroke="green" stroke-width="1" fill="none" /><path d="M -168.0000 25.0000 L -164.0000 25.0000 L -164.0000 19.0000 L -168.0000 19.0000 L -168.0000 25.0000 Z" stroke="green" stroke-width="1" fill="none" /><path d="M 162.0000 27.0000 L 170.0000 27.0000 L 170.0000 17.0000 L 162.0000 17.0000 L 162.0000 27.0000 Z" stroke="green" stroke-width="1" fill="none" /><path d="M 164.0000 25.0000 L 168.0000 25.0000 L 168.0000 19.0000 L 164.0000 19.0000 L 164.0000 25.0000 Z" stroke="green" stroke-width="1" fill="none" /><path d="M -156.0000 27.0000 L -148.0000 27.0000 L -148.0000 17.0000 L -156.0000 17.0000 L -156.0000 27.0000 Z" stroke="green" stroke-width="1" fill="none" /><path d="M -154.0000 25.0000 L -150.0000 25.0000 L -150.0000 19.0000 L -154.0000 19.0000 L -154.0000 25.0000 Z" stroke="green" stroke-width="1" fill="none" /><path d="M -134.0000 27.0000 L -126.0000 27.0000 L -126.0000 17.0000 L -134.0000 17.0000 L -134.0000 27.0000 Z" stroke="green" stroke-width="1" fill="none" /><path d="M -132.0000 25.0000 L -128.0000 25.0000 L -128.0000 19.0000 L -132.0000 19.0000 L -132.0000 25.0000 Z" stroke="green" stroke-width="1" fill="none" /><path d="M -82.0000 27.0000 L -74.0000 27.0000 L -74.0000 17.0000 L -82.0000 17.0000 L -82.0000 27.0000 Z" stroke="green" stroke-width="1" fill="none" /><path d="M -80.0000 25.0000 L -76.0000 25.0000 L -76.0000 19.0000 L -80.0000 19.0000 L -80.0000 25.0000 Z" stroke="green" stroke-width="1" fill="none" /><path d="M -60.0000 27.0000 L -52.0000 27.0000 L -52.0000 17.0000 L -60.0000 17.0000 L -60.0000 27.0000 Z" stroke="green" stroke-width="1" fill="none" /><path d="M -58.0000 25.0000 L -54.0000 25.0000 L -54.0000 19.0000 L -58.0000 19.0000 L -58.0000 25.0000 Z" stroke="green" stroke-width="1" fill="none" /><path d="M 52.0000 27.0000 L 60.0000 27.0000 L 60.0000 17.0000 L 52.0000 17.0000 L 52.0000 27.0000 Z" stroke="green" stroke-width="1" fill="none" /><path d="M 54.0000 25.0000 L 58.0000 25.0000 L 58.0000 19.0000 L 54.0000 19.0000 L 54.0000 25.0000 Z" stroke="green" stroke-width="1" fill="none" /><path d="M 74.0000 27.0000 L 82.0000 27.0000 L 82.0000 17.0000 L 74.0000 17.0000 L 74.0000 27.0000 Z" stroke="green" stroke-width="1" fill="none" /><path d="M 76.0000 25.0000 L 80.0000 25.0000 L 80.0000 19.0000 L 76.0000 19.0000 L 76.0000 25.0000 Z" stroke="green" stroke-width="1" fill="none" /><path d="M 126.0000 27.0000 L 134.0000 27.0000 L 134.0000 17.0000 L 126.0000 17.0000 L 126.0000 27.0000 Z" stroke="green" stroke-width="1" fill="none" /><path d="M 128.0000 25.0000 L 132.0000 25.0000 L 132.0000 19.0000 L 128.0000 19.0000 L 128.0000 25.0000 Z" stroke="green" stroke-width="1" fill="none" /><path d="M 148.0000 27.0000 L 156.0000 27.0000 L 156.0000 17.0000 L 148.0000 17.0000 L 148.0000 27.0000 Z" stroke="green" stroke-width="1" fill="none" /><path d="M 150.0000 25.0000 L 154.0000 25.0000 L 154.0000 19.0000 L 150.0000 19.0000 L 150.0000 25.0000 Z" stroke="green" stroke-width="1" fill="none" /></svg>