<svg width="362" height="40" viewBox="-178 -12 362 40" xmlns="http://www.w3.org/2000/svg"><circle cx="0.0000" cy="7.0000" r="10.0000" stroke="green" stroke-width="1" fill="none" /><circle cx="0.0000" cy="7.0000" r="8.0000" stroke="green" stroke-width="1" fill="none" /><path d="M -160.0000 0.0000 L -152.0000 0.0000 L -152.0000 -10.0000 L -160.0000 -10.0000 L -160.0000 0.0000 Z" stroke="green" stroke-width="1" fill="none" /><path d="M -158.0000 -2.0000 L -154.0000 -2.0000 L -154.0000 -8.0000 L -158.0000 -8.0000 L -158.0000 -2.0000 Z" stroke="green" stroke-width="1" fill="none" /><path d="M -88.0000 0.0000 L -80.0000 0.0000 L -80.0000 -10.0000 L -88.0000 -10.0000 L -88.0000 0.0000 Z" stroke="green" stroke-width="1" fill="none" /><path d="M -86.0000 -2.0000 L -82.0000 -2.0000 L -82.0000 -8.0000 L -86.0000 -8.0000 L -86.0000 -2.0000 Z" stroke="green" stroke-width="1" fill="none" /><path d="M 80.0000 0.0000 L 88.0000 0.0000 L 88.0000 -10.0000 L 80.0000 -10.0000 L 80.0000 0.0000 Z" stroke="green" stroke-width="1" fill="none" /><path d="M 82.0000 -2.0000 L 86.0000 -2.0000 L 86.0000 -8.0000 L 82.0000 -8.0000 L 82.0000 -2.0000 Z" stroke="green" stroke-width="1" fill="none" /><path d="M 152.0000 0.0000 L 160.0000 0.0000 L 160.0000 -10.0000 L 152.0000 -10.0000 L 152.0000 0.0000 Z" stroke="green" stroke-width="1" fill="none" /><path d="M 154.0000 -2.0000 L 158.0000 -2.0000 L 158.0000 -8.0000 L 154.0000 -8.0000 L 154.0000 -2.0000 Z" stroke="green" stroke-width="1" fill="none" /></svg>