0
SECTION
2
ENTITIES
0
LINE
8
PARAMETRIX
10
-170.0000
20
-160.0000
11
-162.0000
21
-160.0000
0
LINE
8
PARAMETRIX
10
-162.0000
20
-160.0000
11
-162.0000
21
160.0000
0
LINE
8
PARAMETRIX
10
-162.0000
20
160.0000
11
-170.0000
21
160.0000
0
LINE
8
PARAMETRIX
10
-170.0000
20
160.0000
11
-170.0000
21
-160.0000
0
LINE
8
PARAMETRIX
10
162.0000
20
-160.0000
11
170.0000
21
-160.0000
0
LINE
8
PARAMETRIX
10
170.0000
20
-160.0000
11
170.0000
21
160.0000
0
LINE
8
PARAMETRIX
10
170.0000
20
160.0000
11
162.0000
21
160.0000
0
LINE
8
PARAMETRIX
10
162.0000
20
160.0000
11
162.0000
21
-160.0000
0
LINE
8
PARAMETRIX
10
-156.0000
20
-160.0000
11
-148.0000
21
-160.0000
0
LINE
8
PARAMETRIX
10
-148.0000
20
-160.0000
11
-148.0000
21
160.0000
0
LINE
8
PARAMETRIX
10
-148.0000
20
160.0000
11
-156.0000
21
160.0000
0
LINE
8
PARAMETRIX
10
-156.0000
20
160.0000
11
-156.0000
21
-160.0000
0
LINE
8
PARAMETRIX
10
-134.0000
20
-160.0000
11
-126.0000
21
-160.0000
0
LINE
8
PARAMETRIX
10
-126.0000
20
-160.0000
11
-126.0000
21
160.0000
0
LINE
8
PARAMETRIX
10
-126.0000
20
160.0000
11
-134.0000
21
160.0000
0
LINE
8
PARAMETRIX
10
-134.0000
20
160.0000
11
-134.0000
21
-160.0000
0
LINE
8
PARAMETRIX
10
-82.0000
20
-160.0000
11
-74.0000
21
-160.0000
0
LINE
8
PARAMETRIX
10
-74.0000
20
-160.0000
11
-74.0000
21
160.0000
0
LINE
8
PARAMETRIX
10
-74.0000
20
160.0000
11
-82.0000
21
160.0000
0
LINE
8
PARAMETRIX
10
-82.0000
20
160.0000
11
-82.0000
21
-160.0000
0
LINE
8
PARAMETRIX
10
-60.0000
20
-160.0000
11
-52.0000
21
-160.0000
0
LINE
8
PARAMETRIX
10
-52.0000
20
-160.0000
11
-52.0000
21
160.0000
0
LINE
8
PARAMETRIX
10
-52.0000
20
160.0000
11
-60.0000
21
160.0000
0
LINE
8
PARAMETRIX
10
-60.0000
20
160.0000
11
-60.0000
21
-160.0000
0
LINE
8
PARAMETRIX
10
52.0000
20
-160.0000
11
60.0000
21
-160.0000
0
LINE
8
PARAMETRIX
10
60.0000
20
-160.0000
11
60.0000
21
160.0000
0
LINE
8
PARAMETRIX
10
60.0000
20
160.0000
11
52.0000
21
160.0000
0
LINE
8
PARAMETRIX
10
52.0000
20
160.0000
11
52.0000
21
-160.0000
0
LINE
8
PARAMETRIX
10
74.0000
20
-160.0000
11
82.0000
21
-160.0000
0
LINE
8
PARAMETRIX
10
82.0000
20
-160.0000
11
82.0000
21
160.0000
0
LINE
8
PARAMETRIX
10
82.0000
20
160.0000
11
74.0000
21
160.0000
0
LINE
8
PARAMETRIX
10
74.0000
20
160.0000
11
74.0000
21
-160.0000
0
LINE
8
PARAMETRIX
10
126.0000
20
-160.0000
11
134.0000
21
-160.0000
0
LINE
8
PARAMETRIX
10
134.0000
20
-160.0000
11
134.0000
21
160.0000
0
LINE
8
PARAMETRIX
10
134.0000
20
160.0000
11
126.0000
21
160.0000
0
LINE
8
PARAMETRIX
10
126.0000
20
160.0000
11
126.0000
21
-160.0000
0
LINE
8
PARAMETRIX
10
148.0000
20
-160.0000
11
156.0000
21
-160.0000
0
LINE
8
PARAMETRIX
10
156.0000
20
-160.0000
11
156.0000
21
160.0000
0
LINE
8
PARAMETRIX
10
156.0000
20
160.0000
11
148.0000
21
160.0000
0
LINE
8
PARAMETRIX
10
148.0000
20
160.0000
11
148.0000
21
-160.0000
0
LINE
8
PARAMETRIX
10
-170.0000
20
-160.0000
11
170.0000
21
-160.0000
0
LINE
8
PARAMETRIX
10
170.0000
20
-160.0000
11
170.0000
21
-152.0000
0
LINE
8
PARAMETRIX
10
170.0000
20
-152.0000
11
-170.0000
21
-152.0000
0
LINE
8
PARAMETRIX
10
-170.0000
20
-152.0000
11
-170.0000
21
-160.0000
0
LINE
8
PARAMETRIX
10
-170.0000
20
-88.0000
11
170.0000
21
-88.0000
0
LINE
8
PARAMETRIX
10
170.0000
20
-88.0000
11
170.0000
21
-80.0000
0
LINE
8
PARAMETRIX
10
170.0000
20
-80.0000
11
-170.0000
21
-80.0000
0
LINE
8
PARAMETRIX
10
-170.0000
20
-80.0000
11
-170.0000
21
-88.0000
0
LINE
8
PARAMETRIX
10
-170.0000
20
80.0000
11
170.0000
21
80.0000
0
LINE
8
PARAMETRIX
10
170.0000
20
80.0000
11
170.0000
21
88.0000
0
LINE
8
PARAMETRIX
10
170.0000
20
88.0000
11
-170.0000
21
88.0000
0
LINE
8
PARAMETRIX
10
-170.0000
20
88.0000
11
-170.0000
21
80.0000
0
LINE
8
PARAMETRIX
10
-170.0000
20
152.0000
11
170.0000
21
152.0000
0
LINE
8
PARAMETRIX
10
170.0000
20
152.0000
11
170.0000
21
160.0000
0
LINE
8
PARAMETRIX
10
170.0000
20
160.0000
11
-170.0000
21
160.0000
0
LINE
8
PARAMETRIX
10
-170.0000
20
160.0000
11
-170.0000
21
152.0000
0
LINE
8
PARAMETRIX
10
-170.0000
20
-10.0000
11
170.0000
21
-10.0000
0
LINE
8
PARAMETRIX
10
170.0000
20
-10.0000
11
170.0000
21
10.0000
0
LINE
8
PARAMETRIX
10
170.0000
20
10.0000
11
-170.0000
21
10.0000
0
LINE
8
PARAMETRIX
10
-170.0000
20
10.0000
11
-170.0000
21
-10.0000
0
ENDSEC
0
EOF
