<svg width="384" height="362" viewBox="-189 -178 384 362" xmlns="http://www.w3.org/2000/svg"><path d="M -170.0000 160.0000 L -162.0000 160.0000 L -162.0000 -160.0000 L -170.0000 -160.0000 L -170.0000 160.0000 Z" stroke="green" stroke-width="1" fill="none" /><path d="M 162.0000 160.0000 L 170.0000 160.0000 L 170.0000 -160.0000 L 162.0000 -160.0000 L 162.0000 160.0000 Z" stroke="green" stroke-width="1" fill="none" /><path d="M -156.0000 160.0000 L -148.0000 160.0000 L -148.0000 -160.0000 L -156.0000 -160.0000 L -156.0000 160.0000 Z" stroke="green" stroke-width="1" fill="none" /><path d="M -134.0000 160.0000 L -126.0000 160.0000 L -126.0000 -160.0000 L -134.0000 -160.0000 L -134.0000 160.0000 Z" stroke="green" stroke-width="1" fill="none" /><path d="M -82.0000 160.0000 L -74.0000 160.0000 L -74.0000 -160.0000 L -82.0000 -160.0000 L -82.0000 160.0000 Z" stroke="green" stroke-width="1" fill="none" /><path d="M -60.0000 160.0000 L -52.0000 160.0000 L -52.0000 -160.0000 L -60.0000 -160.0000 L -60.0000 160.0000 Z" stroke="green" stroke-width="1" fill="none" /><path d="M 52.0000 160.0000 L 60.0000 160.0000 L 60.0000 -160.0000 L 52.0000 -160.0000 L 52.0000 160.0000 Z" stroke="green" stroke-width="1" fill="none" /><path d="M 74.0000 160.0000 L 82.0000 160.0000 L 82.0000 -160.0000 L 74.0000 -160.0000 L 74.0000 160.0000 Z" stroke="green" stroke-width="1" fill="none" /><path d="M 126.0000 160.0000 L 134.0000 160.0000 L 134.0000 -160.0000 L 126.0000 -160.0000 L 126.0000 160.0000 Z" stroke="green" stroke-width="1" fill="none" /><path d="M 148.0000 160.0000 L 156.0000 160.0000 L 156.0000 -160.0000 L 148.0000 -160.0000 L 148.0000 160.0000 Z" stroke="green" stroke-width="1" fill="none" /><path d="M -170.0000 160.0000 L 170.0000 160.0000 L 170.0000 152.0000 L -170.0000 152.0000 L -170.0000 160.0000 Z" stroke="green" stroke-width="1" fill="none" /><path d="M -170.0000 88.0000 L 170.0000 88.0000 L 170.0000 80.0000 L -170.0000 80.0000 L -170.0000 88.0000 Z" stroke="green" stroke-width="1" fill="none" /><path d="M -170.0000 -80.0000 L 170.0000 -80.0000 L 170.0000 -88.0000 L -170.0000 -88.0000 L -170.0000 -80.0000 Z" stroke="green" stroke-width="1" fill="none" /><path d="M -170.0000 -152.0000 L 170.0000 -152.0000 L 170.0000 -160.0000 L -170.0000 -160.0000 L -170.0000 -152.0000 Z" stroke="green" stroke-width="1" fill="none" /><path d="M -170.0000 10.0000 L 170.0000 10.0000 L 170.0000 -10.0000 L -170.0000 -10.0000 L -170.0000 10.0000 Z" stroke="green" stroke-width="1" fill="none" /></svg>