0
SECTION
2
ENTITIES
0
LINE
8
PARAMETRIX
10
-204.0000
20
-181.0000
11
-124.0000
21
-181.0000
0
LINE
8
PARAMETRIX
10
-124.0000
20
-181.0000
11
-124.0000
21
-131.0000
0
LINE
8
PARAMETRIX
10
-124.0000
20
-131.0000
11
-204.0000
21
-131.0000
0
LINE
8
PARAMETRIX
10
-204.0000
20
-131.0000
11
-204.0000
21
-181.0000
0
LINE
8
PARAMETRIX
10
-204.0000
20
-129.0000
11
-124.0000
21
-129.0000
0
LINE
8
PARAMETRIX
10
-124.0000
20
-129.0000
11
-124.0000
21
-79.0000
0
LINE
8
PARAMETRIX
10
-124.0000
20
-79.0000
11
-204.0000
21
-79.0000
0
LINE
8
PARAMETRIX
10
-204.0000
20
-79.0000
11
-204.0000
21
-129.0000
0
LINE
8
PARAMETRIX
10
-204.0000
20
-77.0000
11
-124.0000
21
-77.0000
0
LINE
8
PARAMETRIX
10
-124.0000
20
-77.0000
11
-124.0000
21
-27.0000
0
LINE
8
PARAMETRIX
10
-124.0000
20
-27.0000
11
-204.0000
21
-27.0000
0
LINE
8
PARAMETRIX
10
-204.0000
20
-27.0000
11
-204.0000
21
-77.0000
0
LINE
8
PARAMETRIX
10
-204.0000
20
-25.0000
11
-124.0000
21
-25.0000
0
LINE
8
PARAMETRIX
10
-124.0000
20
-25.0000
11
-124.0000
21
25.0000
0
LINE
8
PARAMETRIX
10
-124.0000
20
25.0000
11
-204.0000
21
25.0000
0
LINE
8
PARAMETRIX
10
-204.0000
20
25.0000
11
-204.0000
21
-25.0000
0
LINE
8
PARAMETRIX
10
-204.0000
20
27.0000
11
-124.0000
21
27.0000
0
LINE
8
PARAMETRIX
10
-124.0000
20
27.0000
11
-124.0000
21
77.0000
0
LINE
8
PARAMETRIX
10
-124.0000
20
77.0000
11
-204.0000
21
77.0000
0
LINE
8
PARAMETRIX
10
-204.0000
20
77.0000
11
-204.0000
21
27.0000
0
LINE
8
PARAMETRIX
10
-204.0000
20
79.0000
11
-124.0000
21
79.0000
0
LINE
8
PARAMETRIX
10
-124.0000
20
79.0000
11
-124.0000
21
129.0000
0
LINE
8
PARAMETRIX
10
-124.0000
20
129.0000
11
-204.0000
21
129.0000
0
LINE
8
PARAMETRIX
10
-204.0000
20
129.0000
11
-204.0000
21
79.0000
0
LINE
8
PARAMETRIX
10
-204.0000
20
131.0000
11
-124.0000
21
131.0000
0
LINE
8
PARAMETRIX
10
-124.0000
20
131.0000
11
-124.0000
21
181.0000
0
LINE
8
PARAMETRIX
10
-124.0000
20
181.0000
11
-204.0000
21
181.0000
0
LINE
8
PARAMETRIX
10
-204.0000
20
181.0000
11
-204.0000
21
131.0000
0
LINE
8
PARAMETRIX
10
-122.0000
20
-181.0000
11
-42.0000
21
-181.0000
0
LINE
8
PARAMETRIX
10
-42.0000
20
-181.0000
11
-42.0000
21
-131.0000
0
LINE
8
PARAMETRIX
10
-42.0000
20
-131.0000
11
-122.0000
21
-131.0000
0
LINE
8
PARAMETRIX
10
-122.0000
20
-131.0000
11
-122.0000
21
-181.0000
0
LINE
8
PARAMETRIX
10
-122.0000
20
-129.0000
11
-42.0000
21
-129.0000
0
LINE
8
PARAMETRIX
10
-42.0000
20
-129.0000
11
-42.0000
21
-79.0000
0
LINE
8
PARAMETRIX
10
-42.0000
20
-79.0000
11
-122.0000
21
-79.0000
0
LINE
8
PARAMETRIX
10
-122.0000
20
-79.0000
11
-122.0000
21
-129.0000
0
LINE
8
PARAMETRIX
10
-122.0000
20
-77.0000
11
-42.0000
21
-77.0000
0
LINE
8
PARAMETRIX
10
-42.0000
20
-77.0000
11
-42.0000
21
-27.0000
0
LINE
8
PARAMETRIX
10
-42.0000
20
-27.0000
11
-122.0000
21
-27.0000
0
LINE
8
PARAMETRIX
10
-122.0000
20
-27.0000
11
-122.0000
21
-77.0000
0
LINE
8
PARAMETRIX
10
-122.0000
20
-25.0000
11
-42.0000
21
-25.0000
0
LINE
8
PARAMETRIX
10
-42.0000
20
-25.0000
11
-42.0000
21
25.0000
0
LINE
8
PARAMETRIX
10
-42.0000
20
25.0000
11
-122.0000
21
25.0000
0
LINE
8
PARAMETRIX
10
-122.0000
20
25.0000
11
-122.0000
21
-25.0000
0
LINE
8
PARAMETRIX
10
-122.0000
20
27.0000
11
-42.0000
21
27.0000
0
LINE
8
PARAMETRIX
10
-42.0000
20
27.0000
11
-42.0000
21
77.0000
0
LINE
8
PARAMETRIX
10
-42.0000
20
77.0000
11
-122.0000
21
77.0000
0
LINE
8
PARAMETRIX
10
-122.0000
20
77.0000
11
-122.0000
21
27.0000
0
LINE
8
PARAMETRIX
10
-122.0000
20
79.0000
11
-42.0000
21
79.0000
0
LINE
8
PARAMETRIX
10
-42.0000
20
79.0000
11
-42.0000
21
129.0000
0
LINE
8
PARAMETRIX
10
-42.0000
20
129.0000
11
-122.0000
21
129.0000
0
LINE
8
PARAMETRIX
10
-122.0000
20
129.0000
11
-122.0000
21
79.0000
0
LINE
8
PARAMETRIX
10
-122.0000
20
131.0000
11
-42.0000
21
131.0000
0
LINE
8
PARAMETRIX
10
-42.0000
20
131.0000
11
-42.0000
21
181.0000
0
LINE
8
PARAMETRIX
10
-42.0000
20
181.0000
11
-122.0000
21
181.0000
0
LINE
8
PARAMETRIX
10
-122.0000
20
181.0000
11
-122.0000
21
131.0000
0
LINE
8
PARAMETRIX
10
-40.0000
20
-181.0000
11
40.0000
21
-181.0000
0
LINE
8
PARAMETRIX
10
40.0000
20
-181.0000
11
40.0000
21
-131.0000
0
LINE
8
PARAMETRIX
10
40.0000
20
-131.0000
11
-40.0000
21
-131.0000
0
LINE
8
PARAMETRIX
10
-40.0000
20
-131.0000
11
-40.0000
21
-181.0000
0
LINE
8
PARAMETRIX
10
-40.0000
20
-129.0000
11
40.0000
21
-129.0000
0
LINE
8
PARAMETRIX
10
40.0000
20
-129.0000
11
40.0000
21
-79.0000
0
LINE
8
PARAMETRIX
10
40.0000
20
-79.0000
11
-40.0000
21
-79.0000
0
LINE
8
PARAMETRIX
10
-40.0000
20
-79.0000
11
-40.0000
21
-129.0000
0
LINE
8
PARAMETRIX
10
-40.0000
20
-77.0000
11
40.0000
21
-77.0000
0
LINE
8
PARAMETRIX
10
40.0000
20
-77.0000
11
40.0000
21
-27.0000
0
LINE
8
PARAMETRIX
10
40.0000
20
-27.0000
11
-40.0000
21
-27.0000
0
LINE
8
PARAMETRIX
10
-40.0000
20
-27.0000
11
-40.0000
21
-77.0000
0
LINE
8
PARAMETRIX
10
-40.0000
20
-25.0000
11
40.0000
21
-25.0000
0
LINE
8
PARAMETRIX
10
40.0000
20
-25.0000
11
40.0000
21
25.0000
0
LINE
8
PARAMETRIX
10
40.0000
20
25.0000
11
-40.0000
21
25.0000
0
LINE
8
PARAMETRIX
10
-40.0000
20
25.0000
11
-40.0000
21
-25.0000
0
LINE
8
PARAMETRIX
10
-40.0000
20
27.0000
11
40.0000
21
27.0000
0
LINE
8
PARAMETRIX
10
40.0000
20
27.0000
11
40.0000
21
77.0000
0
LINE
8
PARAMETRIX
10
40.0000
20
77.0000
11
-40.0000
21
77.0000
0
LINE
8
PARAMETRIX
10
-40.0000
20
77.0000
11
-40.0000
21
27.0000
0
LINE
8
PARAMETRIX
10
-40.0000
20
79.0000
11
40.0000
21
79.0000
0
LINE
8
PARAMETRIX
10
40.0000
20
79.0000
11
40.0000
21
129.0000
0
LINE
8
PARAMETRIX
10
40.0000
20
129.0000
11
-40.0000
21
129.0000
0
LINE
8
PARAMETRIX
10
-40.0000
20
129.0000
11
-40.0000
21
79.0000
0
LINE
8
PARAMETRIX
10
-40.0000
20
131.0000
11
40.0000
21
131.0000
0
LINE
8
PARAMETRIX
10
40.0000
20
131.0000
11
40.0000
21
181.0000
0
LINE
8
PARAMETRIX
10
40.0000
20
181.0000
11
-40.0000
21
181.0000
0
LINE
8
PARAMETRIX
10
-40.0000
20
181.0000
11
-40.0000
21
131.0000
0
LINE
8
PARAMETRIX
10
42.0000
20
-181.0000
11
122.0000
21
-181.0000
0
LINE
8
PARAMETRIX
10
122.0000
20
-181.0000
11
122.0000
21
-131.0000
0
LINE
8
PARAMETRIX
10
122.0000
20
-131.0000
11
42.0000
21
-131.0000
0
LINE
8
PARAMETRIX
10
42.0000
20
-131.0000
11
42.0000
21
-181.0000
0
LINE
8
PARAMETRIX
10
42.0000
20
-129.0000
11
122.0000
21
-129.0000
0
LINE
8
PARAMETRIX
10
122.0000
20
-129.0000
11
122.0000
21
-79.0000
0
LINE
8
PARAMETRIX
10
122.0000
20
-79.0000
11
42.0000
21
-79.0000
0
LINE
8
PARAMETRIX
10
42.0000
20
-79.0000
11
42.0000
21
-129.0000
0
LINE
8
PARAMETRIX
10
42.0000
20
-77.0000
11
122.0000
21
-77.0000
0
LINE
8
PARAMETRIX
10
122.0000
20
-77.0000
11
122.0000
21
-27.0000
0
LINE
8
PARAMETRIX
10
122.0000
20
-27.0000
11
42.0000
21
-27.0000
0
LINE
8
PARAMETRIX
10
42.0000
20
-27.0000
11
42.0000
21
-77.0000
0
LINE
8
PARAMETRIX
10
42.0000
20
-25.0000
11
122.0000
21
-25.0000
0
LINE
8
PARAMETRIX
10
122.0000
20
-25.0000
11
122.0000
21
25.0000
0
LINE
8
PARAMETRIX
10
122.0000
20
25.0000
11
42.0000
21
25.0000
0
LINE
8
PARAMETRIX
10
42.0000
20
25.0000
11
42.0000
21
-25.0000
0
LINE
8
PARAMETRIX
10
42.0000
20
27.0000
11
122.0000
21
27.0000
0
LINE
8
PARAMETRIX
10
122.0000
20
27.0000
11
122.0000
21
77.0000
0
LINE
8
PARAMETRIX
10
122.0000
20
77.0000
11
42.0000
21
77.0000
0
LINE
8
PARAMETRIX
10
42.0000
20
77.0000
11
42.0000
21
27.0000
0
LINE
8
PARAMETRIX
10
42.0000
20
79.0000
11
122.0000
21
79.0000
0
LINE
8
PARAMETRIX
10
122.0000
20
79.0000
11
122.0000
21
129.0000
0
LINE
8
PARAMETRIX
10
122.0000
20
129.0000
11
42.0000
21
129.0000
0
LINE
8
PARAMETRIX
10
42.0000
20
129.0000
11
42.0000
21
79.0000
0
LINE
8
PARAMETRIX
10
42.0000
20
131.0000
11
122.0000
21
131.0000
0
LINE
8
PARAMETRIX
10
122.0000
20
131.0000
11
122.0000
21
181.0000
0
LINE
8
PARAMETRIX
10
122.0000
20
181.0000
11
42.0000
21
181.0000
0
LINE
8
PARAMETRIX
10
42.0000
20
181.0000
11
42.0000
21
131.0000
0
LINE
8
PARAMETRIX
10
124.0000
20
-181.0000
11
204.0000
21
-181.0000
0
LINE
8
PARAMETRIX
10
204.0000
20
-181.0000
11
204.0000
21
-131.0000
0
LINE
8
PARAMETRIX
10
204.0000
20
-131.0000
11
124.0000
21
-131.0000
0
LINE
8
PARAMETRIX
10
124.0000
20
-131.0000
11
124.0000
21
-181.0000
0
LINE
8
PARAMETRIX
10
124.0000
20
-129.0000
11
204.0000
21
-129.0000
0
LINE
8
PARAMETRIX
10
204.0000
20
-129.0000
11
204.0000
21
-79.0000
0
LINE
8
PARAMETRIX
10
204.0000
20
-79.0000
11
124.0000
21
-79.0000
0
LINE
8
PARAMETRIX
10
124.0000
20
-79.0000
11
124.0000
21
-129.0000
0
LINE
8
PARAMETRIX
10
124.0000
20
-77.0000
11
204.0000
21
-77.0000
0
LINE
8
PARAMETRIX
10
204.0000
20
-77.0000
11
204.0000
21
-27.0000
0
LINE
8
PARAMETRIX
10
204.0000
20
-27.0000
11
124.0000
21
-27.0000
0
LINE
8
PARAMETRIX
10
124.0000
20
-27.0000
11
124.0000
21
-77.0000
0
LINE
8
PARAMETRIX
10
124.0000
20
-25.0000
11
204.0000
21
-25.0000
0
LINE
8
PARAMETRIX
10
204.0000
20
-25.0000
11
204.0000
21
25.0000
0
LINE
8
PARAMETRIX
10
204.0000
20
25.0000
11
124.0000
21
25.0000
0
LINE
8
PARAMETRIX
10
124.0000
20
25.0000
11
124.0000
21
-25.0000
0
LINE
8
PARAMETRIX
10
124.0000
20
27.0000
11
204.0000
21
27.0000
0
LINE
8
PARAMETRIX
10
204.0000
20
27.0000
11
204.0000
21
77.0000
0
LINE
8
PARAMETRIX
10
204.0000
20
77.0000
11
124.0000
21
77.0000
0
LINE
8
PARAMETRIX
10
124.0000
20
77.0000
11
124.0000
21
27.0000
0
LINE
8
PARAMETRIX
10
124.0000
20
79.0000
11
204.0000
21
79.0000
0
LINE
8
PARAMETRIX
10
204.0000
20
79.0000
11
204.0000
21
129.0000
0
LINE
8
PARAMETRIX
10
204.0000
20
129.0000
11
124.0000
21
129.0000
0
LINE
8
PARAMETRIX
10
124.0000
20
129.0000
11
124.0000
21
79.0000
0
LINE
8
PARAMETRIX
10
124.0000
20
131.0000
11
204.0000
21
131.0000
0
LINE
8
PARAMETRIX
10
204.0000
20
131.0000
11
204.0000
21
181.0000
0
LINE
8
PARAMETRIX
10
204.0000
20
181.0000
11
124.0000
21
181.0000
0
LINE
8
PARAMETRIX
10
124.0000
20
181.0000
11
124.0000
21
131.0000
0
ENDSEC
0
EOF
