<svg width="459" height="408" viewBox="-227 -201 459 408" xmlns="http://www.w3.org/2000/svg"><path d="M -204.0000 181.0000 L -124.0000 181.0000 L -124.0000 131.0000 L -204.0000 131.0000 L -204.0000 181.0000 Z" stroke="green" stroke-width="1" fill="none" /><path d="M -204.0000 129.0000 L -124.0000 129.0000 L -124.0000 79.0000 L -204.0000 79.0000 L -204.0000 129.0000 Z" stroke="green" stroke-width="1" fill="none" /><path d="M -204.0000 77.0000 L -124.0000 77.0000 L -124.0000 27.0000 L -204.0000 27.0000 L -204.0000 77.0000 Z" stroke="green" stroke-width="1" fill="none" /><path d="M -204.0000 25.0000 L -124.0000 25.0000 L -124.0000 -25.0000 L -204.0000 -25.0000 L -204.0000 25.0000 Z" stroke="green" stroke-width="1" fill="none" /><path d="M -204.0000 -27.0000 L -124.0000 -27.0000 L -124.0000 -77.0000 L -204.0000 -77.0000 L -204.0000 -27.0000 Z" stroke="green" stroke-width="1" fill="none" /><path d="M -204.0000 -79.0000 L -124.0000 -79.0000 L -124.0000 -129.0000 L -204.0000 -129.0000 L -204.0000 -79.0000 Z" stroke="green" stroke-width="1" fill="none" /><path d="M -204.0000 -131.0000 L -124.0000 -131.0000 L -124.0000 -181.0000 L -204.0000 -181.0000 L -204.0000 -131.0000 Z" stroke="green" stroke-width="1" fill="none" /><path d="M -122.0000 181.0000 L -42.0000 181.0000 L -42.0000 131.0000 L -122.0000 131.0000 L -122.0000 181.0000 Z" stroke="green" stroke-width="1" fill="none" /><path d="M -122.0000 129.0000 L -42.0000 129.0000 L -42.0000 79.0000 L -122.0000 79.0000 L -122.0000 129.0000 Z" stroke="green" stroke-width="1" fill="none" /><path d="M -122.0000 77.0000 L -42.0000 77.0000 L -42.0000 27.0000 L -122.0000 27.0000 L -122.0000 77.0000 Z" stroke="green" stroke-width="1" fill="none" /><path d="M -122.0000 25.0000 L -42.0000 25.0000 L -42.0000 -25.0000 L -122.0000 -25.0000 L -122.0000 25.0000 Z" stroke="green" stroke-width="1" fill="none" /><path d="M -122.0000 -27.0000 L -42.0000 -27.0000 L -42.0000 -77.0000 L -122.0000 -77.0000 L -122.0000 -27.0000 Z" stroke="green" stroke-width="1" fill="none" /><path d="M -122.0000 -79.0000 L -42.0000 -79.0000 L -42.0000 -129.0000 L -122.0000 -129.0000 L -122.0000 -79.0000 Z" stroke="green" stroke-width="1" fill="none" /><path d="M -122.0000 -131.0000 L -42.0000 -131.0000 L -42.0000 -181.0000 L -122.0000 -181.0000 L -122.0000 -131.0000 Z" stroke="green" stroke-width="1" fill="none" /><path d="M -40.0000 181.0000 L 40.0000 181.0000 L 40.0000 131.0000 L -40.0000 131.0000 L -40.0000 181.0000 Z" stroke="green" stroke-width="1" fill="none" /><path d="M -40.0000 129.0000 L 40.0000 129.0000 L 40.0000 79.0000 L -40.0000 79.0000 L -40.0000 129.0000 Z" stroke="green" stroke-width="1" fill="none" /><path d="M -40.0000 77.0000 L 40.0000 77.0000 L 40.0000 27.0000 L -40.0000 27.0000 L -40.0000 77.0000 Z" stroke="green" stroke-width="1" fill="none" /><path d="M -40.0000 25.0000 L 40.0000 25.0000 L 40.0000 -25.0000 L -40.0000 -25.0000 L -40.0000 25.0000 Z" stroke="green" stroke-width="1" fill="none" /><path d="M -40.0000 -27.0000 L 40.0000 -27.0000 L 40.0000 -77.0000 L -40.0000 -77.0000 L -40.0000 -27.0000 Z" stroke="green" stroke-width="1" fill="none" /><path d="M -40.0000 -79.0000 L 40.0000 -79.0000 L 40.0000 -129.0000 L -40.0000 -129.0000 L -40.0000 -79.0000 Z" stroke="green" stroke-width="1" fill="none" /><path d="M -40.0000 -131.0000 L 40.0000 -131.0000 L 40.0000 -181.0000 L -40.0000 -181.0000 L -40.0000 -131.0000 Z" stroke="green" stroke-width="1" fill="none" /><path d="M 42.0000 181.0000 L 122.0000 181.0000 L 122.0000 131.0000 L 42.0000 131.0000 L 42.0000 181.0000 Z" stroke="green" stroke-width="1" fill="none" /><path d="M 42.0000 129.0000 L 122.0000 129.0000 L 122.0000 79.0000 L 42.0000 79.0000 L 42.0000 129.0000 Z" stroke="green" stroke-width="1" fill="none" /><path d="M 42.0000 77.0000 L 122.0000 77.0000 L 122.0000 27.0000 L 42.0000 27.0000 L 42.0000 77.0000 Z" stroke="green" stroke-width="1" fill="none" /><path d="M 42.0000 25.0000 L 122.0000 25.0000 L 122.0000 -25.0000 L 42.0000 -25.0000 L 42.0000 25.0000 Z" stroke="green" stroke-width="1" fill="none" /><path d="M 42.0000 -27.0000 L 122.0000 -27.0000 L 122.0000 -77.0000 L 42.0000 -77.0000 L 42.0000 -27.0000 Z" stroke="green" stroke-width="1" fill="none" /><path d="M 42.0000 -79.0000 L 122.0000 -79.0000 L 122.0000 -129.0000 L 42.0000 -129.0000 L 42.0000 -79.0000 Z" stroke="green" stroke-width="1" fill="none" /><path d="M 42.0000 -131.0000 L 122.0000 -131.0000 L 122.0000 -181.0000 L 42.0000 -181.0000 L 42.0000 -131.0000 Z" stroke="green" stroke-width="1" fill="none" /><path d="M 124.0000 181.0000 L 204.0000 181.0000 L 204.0000 131.0000 L 124.0000 131.0000 L 124.0000 181.0000 Z" stroke="green" stroke-width="1" fill="none" /><path d="M 124.0000 129.0000 L 204.0000 129.0000 L 204.0000 79.0000 L 124.0000 79.0000 L 124.0000 129.0000 Z" stroke="green" stroke-width="1" fill="none" /><path d="M 124.0000 77.0000 L 204.0000 77.0000 L 204.0000 27.0000 L 124.0000 27.0000 L 124.0000 77.0000 Z" stroke="green" stroke-width="1" fill="none" /><path d="M 124.0000 25.0000 L 204.0000 25.0000 L 204.0000 -25.0000 L 124.0000 -25.0000 L 124.0000 25.0000 Z" stroke="green" stroke-width="1" fill="none" /><path d="M 124.0000 -27.0000 L 204.0000 -27.0000 L 204.0000 -77.0000 L 124.0000 -77.0000 L 124.0000 -27.0000 Z" stroke="green" stroke-width="1" fill="none" /><path d="M 124.0000 -79.0000 L 204.0000 -79.0000 L 204.0000 -129.0000 L 124.0000 -129.0000 L 124.0000 -79.0000 Z" stroke="green" stroke-width="1" fill="none" /><path d="M 124.0000 -131.0000 L 204.0000 -131.0000 L 204.0000 -181.0000 L 124.0000 -181.0000 L 124.0000 -131.0000 Z" stroke="green" stroke-width="1" fill="none" /></svg>