0
SECTION
2
ENTITIES
0
LINE
8
PARAMETRIX
10
20.0000
20
2.0000
11
20.0000
21
28.0000
0
ARC
8
PARAMETRIX
10
18.0000
20
28.0000
40
2.0000
50
0.0000
51
90.0000
0
LINE
8
PARAMETRIX
10
18.0000
20
30.0000
11
-18.0000
21
30.0000
0
ARC
8
PARAMETRIX
10
-18.0000
20
28.0000
40
2.0000
50
90.0000
51
180.0000
0
LINE
8
PARAMETRIX
10
-20.0000
20
28.0000
11
-20.0000
21
2.0000
0
ARC
8
PARAMETRIX
10
-18.0000
20
2.0000
40
2.0000
50
180.0000
51
270.0000
0
LINE
8
PARAMETRIX
10
-18.0000
20
0.0000
11
18.0000
21
0.0000
0
ARC
8
PARAMETRIX
10
18.0000
20
2.0000
40
2.0000
50
270.0000
51
0.0000
0
CIRCLE
8
PARAMETRIX
10
17.0000
20
10.0000
40
1.5000
0
CIRCLE
8
PARAMETRIX
10
-17.0000
20
10.0000
40
1.5000
0
CIRCLE
8
PARAMETRIX
10
17.0000
20
20.0000
40
1.5000
0
CIRCLE
8
PARAMETRIX
10
-17.0000
20
20.0000
40
1.5000
0
CIRCLE
8
PARAMETRIX
10
-6.6667
20
3.0000
40
1.5000
0
CIRCLE
8
PARAMETRIX
10
-6.6667
20
27.0000
40
1.5000
0
CIRCLE
8
PARAMETRIX
10
6.6667
20
3.0000
40
1.5000
0
CIRCLE
8
PARAMETRIX
10
6.6667
20
27.0000
40
1.5000
0
LINE
8
PARAMETRIX
10
20.0000
20
54.6667
11
20.0000
21
80.6667
0
ARC
8
PARAMETRIX
10
18.0000
20
80.6667
40
2.0000
50
0.0000
51
90.0000
0
LINE
8
PARAMETRIX
10
18.0000
20
82.6667
11
-18.0000
21
82.6667
0
ARC
8
PARAMETRIX
10
-18.0000
20
80.6667
40
2.0000
50
90.0000
51
180.0000
0
LINE
8
PARAMETRIX
10
-20.0000
20
80.6667
11
-20.0000
21
54.6667
0
ARC
8
PARAMETRIX
10
-18.0000
20
54.6667
40
2.0000
50
180.0000
51
270.0000
0
LINE
8
PARAMETRIX
10
-18.0000
20
52.6667
11
18.0000
21
52.6667
0
ARC
8
PARAMETRIX
10
18.0000
20
54.6667
40
2.0000
50
270.0000
51
0.0000
0
CIRCLE
8
PARAMETRIX
10
17.0000
20
62.6667
40
1.5000
0
CIRCLE
8
PARAMETRIX
10
-17.0000
20
62.6667
40
1.5000
0
CIRCLE
8
PARAMETRIX
10
17.0000
20
72.6667
40
1.5000
0
CIRCLE
8
PARAMETRIX
10
-17.0000
20
72.6667
40
1.5000
0
CIRCLE
8
PARAMETRIX
10
-6.6667
20
55.6667
40
1.5000
0
CIRCLE
8
PARAMETRIX
10
-6.6667
20
79.6667
40
1.5000
0
CIRCLE
8
PARAMETRIX
10
6.6667
20
55.6667
40
1.5000
0
CIRCLE
8
PARAMETRIX
10
6.6667
20
79.6667
40
1.5000
0
LINE
8
PARAMETRIX
10
20.0000
20
107.3333
11
20.0000
21
133.3333
0
ARC
8
PARAMETRIX
10
18.0000
20
133.3333
40
2.0000
50
0.0000
51
90.0000
0
LINE
8
PARAMETRIX
10
18.0000
20
135.3333
11
-18.0000
21
135.3333
0
ARC
8
PARAMETRIX
10
-18.0000
20
133.3333
40
2.0000
50
90.0000
51
180.0000
0
LINE
8
PARAMETRIX
10
-20.0000
20
133.3333
11
-20.0000
21
107.3333
0
ARC
8
PARAMETRIX
10
-18.0000
20
107.3333
40
2.0000
50
180.0000
51
270.0000
0
LINE
8
PARAMETRIX
10
-18.0000
20
105.3333
11
18.0000
21
105.3333
0
ARC
8
PARAMETRIX
10
18.0000
20
107.3333
40
2.0000
50
270.0000
51
0.0000
0
CIRCLE
8
PARAMETRIX
10
17.0000
20
115.3333
40
1.5000
0
CIRCLE
8
PARAMETRIX
10
-17.0000
20
115.3333
40
1.5000
0
CIRCLE
8
PARAMETRIX
10
17.0000
20
125.3333
40
1.5000
0
CIRCLE
8
PARAMETRIX
10
-17.0000
20
125.3333
40
1.5000
0
CIRCLE
8
PARAMETRIX
10
-6.6667
20
108.3333
40
1.5000
0
CIRCLE
8
PARAMETRIX
10
-6.6667
20
132.3333
40
1.5000
0
CIRCLE
8
PARAMETRIX
10
6.6667
20
108.3333
40
1.5000
0
CIRCLE
8
PARAMETRIX
10
6.6667
20
132.3333
40
1.5000
0
LINE
8
PARAMETRIX
10
20.0000
20
160.0000
11
20.0000
21
186.0000
0
ARC
8
PARAMETRIX
10
18.0000
20
186.0000
40
2.0000
50
0.0000
51
90.0000
0
LINE
8
PARAMETRIX
10
18.0000
20
188.0000
11
-18.0000
21
188.0000
0
ARC
8
PARAMETRIX
10
-18.0000
20
186.0000
40
2.0000
50
90.0000
51
180.0000
0
LINE
8
PARAMETRIX
10
-20.0000
20
186.0000
11
-20.0000
21
160.0000
0
ARC
8
PARAMETRIX
10
-18.0000
20
160.0000
40
2.0000
50
180.0000
51
270.0000
0
LINE
8
PARAMETRIX
10
-18.0000
20
158.0000
11
18.0000
21
158.0000
0
ARC
8
PARAMETRIX
10
18.0000
20
160.0000
40
2.0000
50
270.0000
51
0.0000
0
CIRCLE
8
PARAMETRIX
10
17.0000
20
168.0000
40
1.5000
0
CIRCLE
8
PARAMETRIX
10
-17.0000
20
168.0000
40
1.5000
0
CIRCLE
8
PARAMETRIX
10
17.0000
20
178.0000
40
1.5000
0
CIRCLE
8
PARAMETRIX
10
-17.0000
20
178.0000
40
1.5000
0
CIRCLE
8
PARAMETRIX
10
-6.6667
20
161.0000
40
1.5000
0
CIRCLE
8
PARAMETRIX
10
-6.6667
20
185.0000
40
1.5000
0
CIRCLE
8
PARAMETRIX
10
6.6667
20
161.0000
40
1.5000
0
CIRCLE
8
PARAMETRIX
10
6.6667
20
185.0000
40
1.5000
0
LINE
8
PARAMETRIX
10
20.0000
20
212.6667
11
20.0000
21
238.6667
0
ARC
8
PARAMETRIX
10
18.0000
20
238.6667
40
2.0000
50
0.0000
51
90.0000
0
LINE
8
PARAMETRIX
10
18.0000
20
240.6667
11
-18.0000
21
240.6667
0
ARC
8
PARAMETRIX
10
-18.0000
20
238.6667
40
2.0000
50
90.0000
51
180.0000
0
LINE
8
PARAMETRIX
10
-20.0000
20
238.6667
11
-20.0000
21
212.6667
0
ARC
8
PARAMETRIX
10
-18.0000
20
212.6667
40
2.0000
50
180.0000
51
270.0000
0
LINE
8
PARAMETRIX
10
-18.0000
20
210.6667
11
18.0000
21
210.6667
0
ARC
8
PARAMETRIX
10
18.0000
20
212.6667
40
2.0000
50
270.0000
51
0.0000
0
CIRCLE
8
PARAMETRIX
10
17.0000
20
220.6667
40
1.5000
0
CIRCLE
8
PARAMETRIX
10
-17.0000
20
220.6667
40
1.5000
0
CIRCLE
8
PARAMETRIX
10
17.0000
20
230.6667
40
1.5000
0
CIRCLE
8
PARAMETRIX
10
-17.0000
20
230.6667
40
1.5000
0
CIRCLE
8
PARAMETRIX
10
-6.6667
20
213.6667
40
1.5000
0
CIRCLE
8
PARAMETRIX
10
-6.6667
20
237.6667
40
1.5000
0
CIRCLE
8
PARAMETRIX
10
6.6667
20
213.6667
40
1.5000
0
CIRCLE
8
PARAMETRIX
10
6.6667
20
237.6667
40
1.5000
0
LINE
8
PARAMETRIX
10
20.0000
20
265.3333
11
20.0000
21
291.3333
0
ARC
8
PARAMETRIX
10
18.0000
20
291.3333
40
2.0000
50
0.0000
51
90.0000
0
LINE
8
PARAMETRIX
10
18.0000
20
293.3333
11
-18.0000
21
293.3333
0
ARC
8
PARAMETRIX
10
-18.0000
20
291.3333
40
2.0000
50
90.0000
51
180.0000
0
LINE
8
PARAMETRIX
10
-20.0000
20
291.3333
11
-20.0000
21
265.3333
0
ARC
8
PARAMETRIX
10
-18.0000
20
265.3333
40
2.0000
50
180.0000
51
270.0000
0
LINE
8
PARAMETRIX
10
-18.0000
20
263.3333
11
18.0000
21
263.3333
0
ARC
8
PARAMETRIX
10
18.0000
20
265.3333
40
2.0000
50
270.0000
51
0.0000
0
CIRCLE
8
PARAMETRIX
10
17.0000
20
273.3333
40
1.5000
0
CIRCLE
8
PARAMETRIX
10
-17.0000
20
273.3333
40
1.5000
0
CIRCLE
8
PARAMETRIX
10
17.0000
20
283.3333
40
1.5000
0
CIRCLE
8
PARAMETRIX
10
-17.0000
20
283.3333
40
1.5000
0
CIRCLE
8
PARAMETRIX
10
-6.6667
20
266.3333
40
1.5000
0
CIRCLE
8
PARAMETRIX
10
-6.6667
20
290.3333
40
1.5000
0
CIRCLE
8
PARAMETRIX
10
6.6667
20
266.3333
40
1.5000
0
CIRCLE
8
PARAMETRIX
10
6.6667
20
290.3333
40
1.5000
0
LINE
8
PARAMETRIX
10
20.0000
20
318.0000
11
20.0000
21
344.0000
0
ARC
8
PARAMETRIX
10
18.0000
20
344.0000
40
2.0000
50
0.0000
51
90.0000
0
LINE
8
PARAMETRIX
10
18.0000
20
346.0000
11
-18.0000
21
346.0000
0
ARC
8
PARAMETRIX
10
-18.0000
20
344.0000
40
2.0000
50
90.0000
51
180.0000
0
LINE
8
PARAMETRIX
10
-20.0000
20
344.0000
11
-20.0000
21
318.0000
0
ARC
8
PARAMETRIX
10
-18.0000
20
318.0000
40
2.0000
50
180.0000
51
270.0000
0
LINE
8
PARAMETRIX
10
-18.0000
20
316.0000
11
18.0000
21
316.0000
0
ARC
8
PARAMETRIX
10
18.0000
20
318.0000
40
2.0000
50
270.0000
51
0.0000
0
CIRCLE
8
PARAMETRIX
10
17.0000
20
326.0000
40
1.5000
0
CIRCLE
8
PARAMETRIX
10
-17.0000
20
326.0000
40
1.5000
0
CIRCLE
8
PARAMETRIX
10
17.0000
20
336.0000
40
1.5000
0
CIRCLE
8
PARAMETRIX
10
-17.0000
20
336.0000
40
1.5000
0
CIRCLE
8
PARAMETRIX
10
-6.6667
20
319.0000
40
1.5000
0
CIRCLE
8
PARAMETRIX
10
-6.6667
20
343.0000
40
1.5000
0
CIRCLE
8
PARAMETRIX
10
6.6667
20
319.0000
40
1.5000
0
CIRCLE
8
PARAMETRIX
10
6.6667
20
343.0000
40
1.5000
0
ENDSEC
0
EOF
