<svg width="54" height="43" viewBox="-23 -2 54 43" xmlns="http://www.w3.org/2000/svg"><path d="M 20.0000 28.0000 L 20.0000 2.0000 A 2.0000 2.0000 0 0 0 18.0000 0.0000 L -18.0000 0.0000 A 2.0000 2.0000 0 0 0 -20.0000 2.0000 L -20.0000 28.0000 A 2.0000 2.0000 0 0 0 -18.0000 30.0000 L 18.0000 30.0000 A 2.0000 2.0000 0 0 0 20.0000 28.0000 Z" stroke="green" stroke-width="1" fill="none" /><circle cx="17.0000" cy="20.0000" r="1.5000" stroke="green" stroke-width="1" fill="none" /><circle cx="-17.0000" cy="20.0000" r="1.5000" stroke="green" stroke-width="1" fill="none" /><circle cx="17.0000" cy="10.0000" r="1.5000" stroke="green" stroke-width="1" fill="none" /><circle cx="-17.0000" cy="10.0000" r="1.5000" stroke="green" stroke-width="1" fill="none" /><circle cx="-6.6667" cy="27.0000" r="1.5000" stroke="green" stroke-width="1" fill="none" /><circle cx="-6.6667" cy="3.0000" r="1.5000" stroke="green" stroke-width="1" fill="none" /><circle cx="6.6667" cy="27.0000" r="1.5000" stroke="green" stroke-width="1" fill="none" /><circle cx="6.6667" cy="3.0000" r="1.5000" stroke="green" stroke-width="1" fill="none" /></svg>