<svg width="54" height="391" viewBox="-23 -20 54 391" xmlns="http://www.w3.org/2000/svg"><path d="M 20.0000 344.0000 L 20.0000 318.0000 A 2.0000 2.0000 0 0 0 18.0000 316.0000 L -18.0000 316.0000 A 2.0000 2.0000 0 0 0 -20.0000 318.0000 L -20.0000 344.0000 A 2.0000 2.0000 0 0 0 -18.0000 346.0000 L 18.0000 346.0000 A 2.0000 2.0000 0 0 0 20.0000 344.0000 Z" stroke="green" stroke-width="1" fill="none" /><circle cx="17.0000" cy="336.0000" r="1.5000" stroke="green" stroke-width="1" fill="none" /><circle cx="-17.0000" cy="336.0000" r="1.5000" stroke="green" stroke-width="1" fill="none" /><circle cx="17.0000" cy="326.0000" r="1.5000" stroke="green" stroke-width="1" fill="none" /><circle cx="-17.0000" cy="326.0000" r="1.5000" stroke="green" stroke-width="1" fill="none" /><circle cx="-6.6667" cy="343.0000" r="1.5000" stroke="green" stroke-width="1" fill="none" /><circle cx="-6.6667" cy="319.0000" r="1.5000" stroke="green" stroke-width="1" fill="none" /><circle cx="6.6667" cy="343.0000" r="1.5000" stroke="green" stroke-width="1" fill="none" /><circle cx="6.6667" cy="319.0000" r="1.5000" stroke="green" stroke-width="1" fill="none" /><path d="M 20.0000 291.3333 L 20.0000 265.3333 A 2.0000 2.0000 0 0 0 18.0000 263.3333 L -18.0000 263.3333 A 2.0000 2.0000 0 0 0 -20.0000 265.3333 L -20.0000 291.3333 A 2.0000 2.0000 0 0 0 -18.0000 293.3333 L 18.0000 293.3333 A 2.0000 2.0000 0 0 0 20.0000 291.3333 Z" stroke="green" stroke-width="1" fill="none" /><circle cx="17.0000" cy="283.3333" r="1.5000" stroke="green" stroke-width="1" fill="none" /><circle cx="-17.0000" cy="283.3333" r="1.5000" stroke="green" stroke-width="1" fill="none" /><circle cx="17.0000" cy="273.3333" r="1.5000" stroke="green" stroke-width="1" fill="none" /><circle cx="-17.0000" cy="273.3333" r="1.5000" stroke="green" stroke-width="1" fill="none" /><circle cx="-6.6667" cy="290.3333" r="1.5000" stroke="green" stroke-width="1" fill="none" /><circle cx="-6.6667" cy="266.3333" r="1.5000" stroke="green" stroke-width="1" fill="none" /><circle cx="6.6667" cy="290.3333" r="1.5000" stroke="green" stroke-width="1" fill="none" /><circle cx="6.6667" cy="266.3333" r="1.5000" stroke="green" stroke-width="1" fill="none" /><path d="M 20.0000 238.6667 L 20.0000 212.6667 A 2.0000 2.0000 0 0 0 18.0000 210.6667 L -18.0000 210.6667 A 2.0000 2.0000 0 0 0 -20.0000 212.6667 L -20.0000 238.6667 A 2.0000 2.0000 0 0 0 -18.0000 240.6667 L 18.0000 240.6667 A 2.0000 2.0000 0 0 0 20.0000 238.6667 Z" stroke="green" stroke-width="1" fill="none" /><circle cx="17.0000" cy="230.6667" r="1.5000" stroke="green" stroke-width="1" fill="none" /><circle cx="-17.0000" cy="230.6667" r="1.5000" stroke="green" stroke-width="1" fill="none" /><circle cx="17.0000" cy="220.6667" r="1.5000" stroke="green" stroke-width="1" fill="none" /><circle cx="-17.0000" cy="220.6667" r="1.5000" stroke="green" stroke-width="1" fill="none" /><circle cx="-6.6667" cy="237.6667" r="1.5000" stroke="green" stroke-width="1" fill="none" /><circle cx="-6.6667" cy="213.6667" r="1.5000" stroke="green" stroke-width="1" fill="none" /><circle cx="6.6667" cy="237.6667" r="1.5000" stroke="green" stroke-width="1" fill="none" /><circle cx="6.6667" cy="213.6667" r="1.5000" stroke="green" stroke-width="1" fill="none" /><path d="M 20.0000 186.0000 L 20.0000 160.0000 A 2.0000 2.0000 0 0 0 18.0000 158.0000 L -18.0000 158.0000 A 2.0000 2.0000 0 0 0 -20.0000 160.0000 L -20.0000 186.0000 A 2.0000 2.0000 0 0 0 -18.0000 188.0000 L 18.0000 188.0000 A 2.0000 2.0000 0 0 0 20.0000 186.0000 Z" stroke="green" stroke-width="1" fill="none" /><circle cx="17.0000" cy="178.0000" r="1.5000" stroke="green" stroke-width="1" fill="none" /><circle cx="-17.0000" cy="178.0000" r="1.5000" stroke="green" stroke-width="1" fill="none" /><circle cx="17.0000" cy="168.0000" r="1.5000" stroke="green" stroke-width="1" fill="none" /><circle cx="-17.0000" cy="168.0000" r="1.5000" stroke="green" stroke-width="1" fill="none" /><circle cx="-6.6667" cy="185.0000" r="1.5000" stroke="green" stroke-width="1" fill="none" /><circle cx="-6.6667" cy="161.0000" r="1.5000" stroke="green" stroke-width="1" fill="none" /><circle cx="6.6667" cy="185.0000" r="1.5000" stroke="green" stroke-width="1" fill="none" /><circle cx="6.6667" cy="161.0000" r="1.5000" stroke="green" stroke-width="1" fill="none" /><path d="M 20.0000 133.3333 L 20.0000 107.3333 A 2.0000 2.0000 0 0 0 18.0000 105.3333 L -18.0000 105.3333 A 2.0000 2.0000 0 0 0 -20.0000 107.3333 L -20.0000 133.3333 A 2.0000 2.0000 0 0 0 -18.0000 135.3333 L 18.0000 135.3333 A 2.0000 2.0000 0 0 0 20.0000 133.3333 Z" stroke="green" stroke-width="1" fill="none" /><circle cx="17.0000" cy="125.3333" r="1.5000" stroke="green" stroke-width="1" fill="none" /><circle cx="-17.0000" cy="125.3333" r="1.5000" stroke="green" stroke-width="1" fill="none" /><circle cx="17.0000" cy="115.3333" r="1.5000" stroke="green" stroke-width="1" fill="none" /><circle cx="-17.0000" cy="115.3333" r="1.5000" stroke="green" stroke-width="1" fill="none" /><circle cx="-6.6667" cy="132.3333" r="1.5000" stroke="green" stroke-width="1" fill="none" /><circle cx="-6.6667" cy="108.3333" r="1.5000" stroke="green" stroke-width="1" fill="none" /><circle cx="6.6667" cy="132.3333" r="1.5000" stroke="green" stroke-width="1" fill="none" /><circle cx="6.6667" cy="108.3333" r="1.5000" stroke="green" stroke-width="1" fill="none" /><path d="M 20.0000 80.6667 L 20.0000 54.6667 A 2.0000 2.0000 0 0 0 18.0000 52.6667 L -18.0000 52.6667 A 2.0000 2.0000 0 0 0 -20.0000 54.6667 L -20.0000 80.6667 A 2.0000 2.0000 0 0 0 -18.0000 82.6667 L 18.0000 82.6667 A 2.0000 2.0000 0 0 0 20.0000 80.6667 Z" stroke="green" stroke-width="1" fill="none" /><circle cx="17.0000" cy="72.6667" r="1.5000" stroke="green" stroke-width="1" fill="none" /><circle cx="-17.0000" cy="72.6667" r="1.5000" stroke="green" stroke-width="1" fill="none" /><circle cx="17.0000" cy="62.6667" r="1.5000" stroke="green" stroke-width="1" fill="none" /><circle cx="-17.0000" cy="62.6667" r="1.5000" stroke="green" stroke-width="1" fill="none" /><circle cx="-6.6667" cy="79.6667" r="1.5000" stroke="green" stroke-width="1" fill="none" /><circle cx="-6.6667" cy="55.6667" r="1.5000" stroke="green" stroke-width="1" fill="none" /><circle cx="6.6667" cy="79.6667" r="1.5000" stroke="green" stroke-width="1" fill="none" /><circle cx="6.6667" cy="55.6667" r="1.5000" stroke="green" stroke-width="1" fill="none" /><path d="M 20.0000 28.0000 L 20.0000 2.0000 A 2.0000 2.0000 0 0 0 18.0000 0.0000 L -18.0000 0.0000 A 2.0000 2.0000 0 0 0 -20.0000 2.0000 L -20.0000 28.0000 A 2.0000 2.0000 0 0 0 -18.0000 30.0000 L 18.0000 30.0000 A 2.0000 2.0000 0 0 0 20.0000 28.0000 Z" stroke="green" stroke-width="1" fill="none" /><circle cx="17.0000" cy="20.0000" r="1.5000" stroke="green" stroke-width="1" fill="none" /><circle cx="-17.0000" cy="20.0000" r="1.5000" stroke="green" stroke-width="1" fill="none" /><circle cx="17.0000" cy="10.0000" r="1.5000" stroke="green" stroke-width="1" fill="none" /><circle cx="-17.0000" cy="10.0000" r="1.5000" stroke="green" stroke-width="1" fill="none" /><circle cx="-6.6667" cy="27.0000" r="1.5000" stroke="green" stroke-width="1" fill="none" /><circle cx="-6.6667" cy="3.0000" r="1.5000" stroke="green" stroke-width="1" fill="none" /><circle cx="6.6667" cy="27.0000" r="1.5000" stroke="green" stroke-width="1" fill="none" /><circle cx="6.6667" cy="3.0000" r="1.5000" stroke="green" stroke-width="1" fill="none" /></svg>