0
SECTION
2
ENTITIES
0
CIRCLE
8
PARAMETRIX
10
0.0000
20
0.0000
40
42.9731
0
LINE
8
PARAMETRIX
10
36.5896
20
-3.6346
11
31.3687
21
-1.8977
0
ARC
8
PARAMETRIX
10
32.0000
20
0.0000
40
2.0000
50
108.4008
51
251.5992
0
LINE
8
PARAMETRIX
10
31.3687
20
1.8977
11
36.5896
21
3.6346
0
ARC
8
PARAMETRIX
10
35.0113
20
8.3790
40
5.0000
50
288.4008
51
13.4590
0
ARC
8
PARAMETRIX
10
0.0000
20
0.0000
40
41.0000
50
13.4590
51
46.5410
0
ARC
8
PARAMETRIX
10
24.7621
20
26.1312
40
5.0000
50
46.5410
51
131.5992
0
LINE
8
PARAMETRIX
10
21.4425
20
29.8703
11
17.3278
21
26.2172
0
ARC
8
PARAMETRIX
10
16.0000
20
27.7128
40
2.0000
50
168.4008
51
311.5992
0
LINE
8
PARAMETRIX
10
14.0408
20
28.1149
11
15.1472
21
33.5049
0
ARC
8
PARAMETRIX
10
10.2493
20
34.5102
40
5.0000
50
348.4008
51
73.4590
0
ARC
8
PARAMETRIX
10
-0.0000
20
0.0000
40
41.0000
50
73.4590
51
106.5410
0
ARC
8
PARAMETRIX
10
-10.2493
20
34.5102
40
5.0000
50
106.5410
51
191.5992
0
LINE
8
PARAMETRIX
10
-15.1472
20
33.5049
11
-14.0408
21
28.1149
0
ARC
8
PARAMETRIX
10
-16.0000
20
27.7128
40
2.0000
50
228.4008
51
11.5992
0
LINE
8
PARAMETRIX
10
-17.3278
20
26.2172
11
-21.4425
21
29.8703
0
ARC
8
PARAMETRIX
10
-24.7621
20
26.1312
40
5.0000
50
48.4008
51
133.4590
0
ARC
8
PARAMETRIX
10
-0.0000
20
0.0000
40
41.0000
50
133.4590
51
166.5410
0
ARC
8
PARAMETRIX
10
-35.0113
20
8.3790
40
5.0000
50
166.5410
51
251.5992
0
LINE
8
PARAMETRIX
10
-36.5896
20
3.6346
11
-31.3687
21
1.8977
0
ARC
8
PARAMETRIX
10
-32.0000
20
0.0000
40
2.0000
50
288.4008
51
71.5992
0
LINE
8
PARAMETRIX
10
-31.3687
20
-1.8977
11
-36.5896
21
-3.6346
0
ARC
8
PARAMETRIX
10
-35.0113
20
-8.3790
40
5.0000
50
108.4008
51
193.4590
0
ARC
8
PARAMETRIX
10
-0.0000
20
-0.0000
40
41.0000
50
193.4590
51
226.5410
0
ARC
8
PARAMETRIX
10
-24.7621
20
-26.1312
40
5.0000
50
226.5410
51
311.5992
0
LINE
8
PARAMETRIX
10
-21.4425
20
-29.8703
11
-17.3278
21
-26.2172
0
ARC
8
PARAMETRIX
10
-16.0000
20
-27.7128
40
2.0000
50
348.4008
51
131.5992
0
LINE
8
PARAMETRIX
10
-14.0408
20
-28.1149
11
-15.1472
21
-33.5049
0
ARC
8
PARAMETRIX
10
-10.2493
20
-34.5102
40
5.0000
50
168.4008
51
253.4590
0
ARC
8
PARAMETRIX
10
-0.0000
20
-0.0000
40
41.0000
50
253.4590
51
286.5410
0
ARC
8
PARAMETRIX
10
10.2493
20
-34.5102
40
5.0000
50
286.5410
51
11.5992
0
LINE
8
PARAMETRIX
10
15.1472
20
-33.5049
11
14.0408
21
-28.1149
0
ARC
8
PARAMETRIX
10
16.0000
20
-27.7128
40
2.0000
50
48.4008
51
191.5992
0
LINE
8
PARAMETRIX
10
17.3278
20
-26.2172
11
21.4425
21
-29.8703
0
ARC
8
PARAMETRIX
10
24.7621
20
-26.1312
40
5.0000
50
228.4008
51
313.4590
0
ARC
8
PARAMETRIX
10
0.0000
20
-0.0000
40
41.0000
50
313.4590
51
346.5410
0
ARC
8
PARAMETRIX
10
35.0113
20
-8.3790
40
5.0000
50
346.5410
51
71.5992
0
CIRCLE
8
PARAMETRIX
10
32.0000
20
0.0000
40
1.0000
0
CIRCLE
8
PARAMETRIX
10
16.0000
20
27.7128
40
1.0000
0
CIRCLE
8
PARAMETRIX
10
-16.0000
20
27.7128
40
1.0000
0
CIRCLE
8
PARAMETRIX
10
-32.0000
20
0.0000
40
1.0000
0
CIRCLE
8
PARAMETRIX
10
-16.0000
20
-27.7128
40
1.0000
0
CIRCLE
8
PARAMETRIX
10
16.0000
20
-27.7128
40
1.0000
0
ENDSEC
0
EOF
