<svg width="105" height="105" viewBox="-48 -48 105 105" xmlns="http://www.w3.org/2000/svg"><circle cx="0.0000" cy="0.0000" r="42.9731" stroke="green" stroke-width="1" fill="none" /><path d="M 36.5896 3.6346 L 31.3687 1.8977 A 2.0000 2.0000 0 0 1 31.3687 -1.8977 L 36.5896 -3.6346 A 5.0000 5.0000 0 0 0 39.8740 -9.5427 A 41.0000 41.0000 0 0 0 28.2012 -29.7606 A 5.0000 5.0000 0 0 0 21.4425 -29.8703 L 17.3278 -26.2172 A 2.0000 2.0000 0 0 1 14.0408 -28.1149 L 15.1472 -33.5049 A 5.0000 5.0000 0 0 0 11.6728 -39.3033 A 41.0000 41.0000 0 0 0 -11.6728 -39.3033 A 5.0000 5.0000 0 0 0 -15.1472 -33.5049 L -14.0408 -28.1149 A 2.0000 2.0000 0 0 1 -17.3278 -26.2172 L -21.4425 -29.8703 A 5.0000 5.0000 0 0 0 -28.2012 -29.7606 A 41.0000 41.0000 0 0 0 -39.8740 -9.5427 A 5.0000 5.0000 0 0 0 -36.5896 -3.6346 L -31.3687 -1.8977 A 2.0000 2.0000 0 0 1 -31.3687 1.8977 L -36.5896 3.6346 A 5.0000 5.0000 0 0 0 -39.8740 9.5427 A 41.0000 41.0000 0 0 0 -28.2012 29.7606 A 5.0000 5.0000 0 0 0 -21.4425 29.8703 L -17.3278 26.2172 A 2.0000 2.0000 0 0 1 -14.0408 28.1149 L -15.1472 33.5049 A 5.0000 5.0000 0 0 0 -11.6728 39.3033 A 41.0000 41.0000 0 0 0 11.6728 39.3033 A 5.0000 5.0000 0 0 0 15.1472 33.5049 L 14.0408 28.1149 A 2.0000 2.0000 0 0 1 17.3278 26.2172 L 21.4425 29.8703 A 5.0000 5.0000 0 0 0 28.2012 29.7606 A 41.0000 41.0000 0 0 0 39.8740 9.5427 A 5.0000 5.0000 0 0 0 36.5896 3.6346 Z" stroke="green" stroke-width="1" fill="none" /><circle cx="32.0000" cy="0.0000" r="1.0000" stroke="green" stroke-width="1" fill="none" /><circle cx="16.0000" cy="-27.7128" r="1.0000" stroke="green" stroke-width="1" fill="none" /><circle cx="-16.0000" cy="-27.7128" r="1.0000" stroke="green" stroke-width="1" fill="none" /><circle cx="-32.0000" cy="-0.0000" r="1.0000" stroke="green" stroke-width="1" fill="none" /><circle cx="-16.0000" cy="27.7128" r="1.0000" stroke="green" stroke-width="1" fill="none" /><circle cx="16.0000" cy="27.7128" r="1.0000" stroke="green" stroke-width="1" fill="none" /></svg>